<svg viewBox="0 0 128 64" width="128" height="64" xmlns="http://www.w3.org/2000/svg" shape-rendering="crispEdges">
<rect x="0" y="0" width="128" height="64" fill="#000000"/>
<rect x="3" y="1" width="1" height="1" fill="#2EC4F6"/>
<rect x="4" y="1" width="1" height="1" fill="#2EC4F6"/>
<rect x="5" y="1" width="1" height="1" fill="#2EC4F6"/>
<rect x="6" y="1" width="1" height="1" fill="#2EC4F6"/>
<rect x="3" y="2" width="1" height="1" fill="#2EC4F6"/>
<rect x="4" y="2" width="1" height="1" fill="#2EC4F6"/>
<rect x="5" y="2" width="1" height="1" fill="#2EC4F6"/>
<rect x="6" y="2" width="1" height="1" fill="#2EC4F6"/>
<rect x="3" y="3" width="1" height="1" fill="#2EC4F6"/>
<rect x="4" y="3" width="1" height="1" fill="#2EC4F6"/>
<rect x="5" y="3" width="1" height="1" fill="#2EC4F6"/>
<rect x="6" y="3" width="1" height="1" fill="#2EC4F6"/>
<rect x="34" y="3" width="1" height="1" fill="#2EC4F6"/>
<rect x="35" y="3" width="1" height="1" fill="#2EC4F6"/>
<rect x="36" y="3" width="1" height="1" fill="#2EC4F6"/>
<rect x="37" y="3" width="1" height="1" fill="#2EC4F6"/>
<rect x="38" y="3" width="1" height="1" fill="#2EC4F6"/>
<rect x="39" y="3" width="1" height="1" fill="#2EC4F6"/>
<rect x="46" y="3" width="1" height="1" fill="#2EC4F6"/>
<rect x="47" y="3" width="1" height="1" fill="#2EC4F6"/>
<rect x="48" y="3" width="1" height="1" fill="#2EC4F6"/>
<rect x="49" y="3" width="1" height="1" fill="#2EC4F6"/>
<rect x="50" y="3" width="1" height="1" fill="#2EC4F6"/>
<rect x="51" y="3" width="1" height="1" fill="#2EC4F6"/>
<rect x="54" y="3" width="1" height="1" fill="#2EC4F6"/>
<rect x="55" y="3" width="1" height="1" fill="#2EC4F6"/>
<rect x="56" y="3" width="1" height="1" fill="#2EC4F6"/>
<rect x="57" y="3" width="1" height="1" fill="#2EC4F6"/>
<rect x="58" y="3" width="1" height="1" fill="#2EC4F6"/>
<rect x="59" y="3" width="1" height="1" fill="#2EC4F6"/>
<rect x="112" y="3" width="1" height="1" fill="#2EC4F6"/>
<rect x="113" y="3" width="1" height="1" fill="#2EC4F6"/>
<rect x="114" y="3" width="1" height="1" fill="#2EC4F6"/>
<rect x="115" y="3" width="1" height="1" fill="#2EC4F6"/>
<rect x="1" y="4" width="1" height="1" fill="#2EC4F6"/>
<rect x="2" y="4" width="1" height="1" fill="#2EC4F6"/>
<rect x="34" y="4" width="1" height="1" fill="#2EC4F6"/>
<rect x="35" y="4" width="1" height="1" fill="#2EC4F6"/>
<rect x="36" y="4" width="1" height="1" fill="#2EC4F6"/>
<rect x="37" y="4" width="1" height="1" fill="#2EC4F6"/>
<rect x="38" y="4" width="1" height="1" fill="#2EC4F6"/>
<rect x="39" y="4" width="1" height="1" fill="#2EC4F6"/>
<rect x="46" y="4" width="1" height="1" fill="#2EC4F6"/>
<rect x="47" y="4" width="1" height="1" fill="#2EC4F6"/>
<rect x="48" y="4" width="1" height="1" fill="#2EC4F6"/>
<rect x="49" y="4" width="1" height="1" fill="#2EC4F6"/>
<rect x="50" y="4" width="1" height="1" fill="#2EC4F6"/>
<rect x="51" y="4" width="1" height="1" fill="#2EC4F6"/>
<rect x="54" y="4" width="1" height="1" fill="#2EC4F6"/>
<rect x="55" y="4" width="1" height="1" fill="#2EC4F6"/>
<rect x="56" y="4" width="1" height="1" fill="#2EC4F6"/>
<rect x="57" y="4" width="1" height="1" fill="#2EC4F6"/>
<rect x="58" y="4" width="1" height="1" fill="#2EC4F6"/>
<rect x="59" y="4" width="1" height="1" fill="#2EC4F6"/>
<rect x="112" y="4" width="1" height="1" fill="#2EC4F6"/>
<rect x="113" y="4" width="1" height="1" fill="#2EC4F6"/>
<rect x="114" y="4" width="1" height="1" fill="#2EC4F6"/>
<rect x="115" y="4" width="1" height="1" fill="#2EC4F6"/>
<rect x="1" y="5" width="1" height="1" fill="#2EC4F6"/>
<rect x="2" y="5" width="1" height="1" fill="#2EC4F6"/>
<rect x="34" y="5" width="1" height="1" fill="#2EC4F6"/>
<rect x="35" y="5" width="1" height="1" fill="#2EC4F6"/>
<rect x="38" y="5" width="1" height="1" fill="#2EC4F6"/>
<rect x="39" y="5" width="1" height="1" fill="#2EC4F6"/>
<rect x="46" y="5" width="1" height="1" fill="#2EC4F6"/>
<rect x="47" y="5" width="1" height="1" fill="#2EC4F6"/>
<rect x="50" y="5" width="1" height="1" fill="#2EC4F6"/>
<rect x="51" y="5" width="1" height="1" fill="#2EC4F6"/>
<rect x="54" y="5" width="1" height="1" fill="#2EC4F6"/>
<rect x="55" y="5" width="1" height="1" fill="#2EC4F6"/>
<rect x="58" y="5" width="1" height="1" fill="#2EC4F6"/>
<rect x="59" y="5" width="1" height="1" fill="#2EC4F6"/>
<rect x="112" y="5" width="1" height="1" fill="#2EC4F6"/>
<rect x="113" y="5" width="1" height="1" fill="#2EC4F6"/>
<rect x="116" y="5" width="1" height="1" fill="#2EC4F6"/>
<rect x="117" y="5" width="1" height="1" fill="#2EC4F6"/>
<rect x="1" y="6" width="1" height="1" fill="#2EC4F6"/>
<rect x="2" y="6" width="1" height="1" fill="#2EC4F6"/>
<rect x="34" y="6" width="1" height="1" fill="#2EC4F6"/>
<rect x="35" y="6" width="1" height="1" fill="#2EC4F6"/>
<rect x="38" y="6" width="1" height="1" fill="#2EC4F6"/>
<rect x="39" y="6" width="1" height="1" fill="#2EC4F6"/>
<rect x="46" y="6" width="1" height="1" fill="#2EC4F6"/>
<rect x="47" y="6" width="1" height="1" fill="#2EC4F6"/>
<rect x="50" y="6" width="1" height="1" fill="#2EC4F6"/>
<rect x="51" y="6" width="1" height="1" fill="#2EC4F6"/>
<rect x="54" y="6" width="1" height="1" fill="#2EC4F6"/>
<rect x="55" y="6" width="1" height="1" fill="#2EC4F6"/>
<rect x="58" y="6" width="1" height="1" fill="#2EC4F6"/>
<rect x="59" y="6" width="1" height="1" fill="#2EC4F6"/>
<rect x="112" y="6" width="1" height="1" fill="#2EC4F6"/>
<rect x="113" y="6" width="1" height="1" fill="#2EC4F6"/>
<rect x="116" y="6" width="1" height="1" fill="#2EC4F6"/>
<rect x="117" y="6" width="1" height="1" fill="#2EC4F6"/>
<rect x="1" y="7" width="1" height="1" fill="#2EC4F6"/>
<rect x="2" y="7" width="1" height="1" fill="#2EC4F6"/>
<rect x="34" y="7" width="1" height="1" fill="#2EC4F6"/>
<rect x="35" y="7" width="1" height="1" fill="#2EC4F6"/>
<rect x="38" y="7" width="1" height="1" fill="#2EC4F6"/>
<rect x="39" y="7" width="1" height="1" fill="#2EC4F6"/>
<rect x="46" y="7" width="1" height="1" fill="#2EC4F6"/>
<rect x="47" y="7" width="1" height="1" fill="#2EC4F6"/>
<rect x="48" y="7" width="1" height="1" fill="#2EC4F6"/>
<rect x="49" y="7" width="1" height="1" fill="#2EC4F6"/>
<rect x="50" y="7" width="1" height="1" fill="#2EC4F6"/>
<rect x="51" y="7" width="1" height="1" fill="#2EC4F6"/>
<rect x="54" y="7" width="1" height="1" fill="#2EC4F6"/>
<rect x="55" y="7" width="1" height="1" fill="#2EC4F6"/>
<rect x="58" y="7" width="1" height="1" fill="#2EC4F6"/>
<rect x="59" y="7" width="1" height="1" fill="#2EC4F6"/>
<rect x="112" y="7" width="1" height="1" fill="#2EC4F6"/>
<rect x="113" y="7" width="1" height="1" fill="#2EC4F6"/>
<rect x="114" y="7" width="1" height="1" fill="#2EC4F6"/>
<rect x="115" y="7" width="1" height="1" fill="#2EC4F6"/>
<rect x="1" y="8" width="1" height="1" fill="#2EC4F6"/>
<rect x="2" y="8" width="1" height="1" fill="#2EC4F6"/>
<rect x="34" y="8" width="1" height="1" fill="#2EC4F6"/>
<rect x="35" y="8" width="1" height="1" fill="#2EC4F6"/>
<rect x="38" y="8" width="1" height="1" fill="#2EC4F6"/>
<rect x="39" y="8" width="1" height="1" fill="#2EC4F6"/>
<rect x="46" y="8" width="1" height="1" fill="#2EC4F6"/>
<rect x="47" y="8" width="1" height="1" fill="#2EC4F6"/>
<rect x="48" y="8" width="1" height="1" fill="#2EC4F6"/>
<rect x="49" y="8" width="1" height="1" fill="#2EC4F6"/>
<rect x="50" y="8" width="1" height="1" fill="#2EC4F6"/>
<rect x="51" y="8" width="1" height="1" fill="#2EC4F6"/>
<rect x="54" y="8" width="1" height="1" fill="#2EC4F6"/>
<rect x="55" y="8" width="1" height="1" fill="#2EC4F6"/>
<rect x="58" y="8" width="1" height="1" fill="#2EC4F6"/>
<rect x="59" y="8" width="1" height="1" fill="#2EC4F6"/>
<rect x="112" y="8" width="1" height="1" fill="#2EC4F6"/>
<rect x="113" y="8" width="1" height="1" fill="#2EC4F6"/>
<rect x="114" y="8" width="1" height="1" fill="#2EC4F6"/>
<rect x="115" y="8" width="1" height="1" fill="#2EC4F6"/>
<rect x="1" y="9" width="1" height="1" fill="#2EC4F6"/>
<rect x="2" y="9" width="1" height="1" fill="#2EC4F6"/>
<rect x="34" y="9" width="1" height="1" fill="#2EC4F6"/>
<rect x="35" y="9" width="1" height="1" fill="#2EC4F6"/>
<rect x="38" y="9" width="1" height="1" fill="#2EC4F6"/>
<rect x="39" y="9" width="1" height="1" fill="#2EC4F6"/>
<rect x="50" y="9" width="1" height="1" fill="#2EC4F6"/>
<rect x="51" y="9" width="1" height="1" fill="#2EC4F6"/>
<rect x="54" y="9" width="1" height="1" fill="#2EC4F6"/>
<rect x="55" y="9" width="1" height="1" fill="#2EC4F6"/>
<rect x="58" y="9" width="1" height="1" fill="#2EC4F6"/>
<rect x="59" y="9" width="1" height="1" fill="#2EC4F6"/>
<rect x="112" y="9" width="1" height="1" fill="#2EC4F6"/>
<rect x="113" y="9" width="1" height="1" fill="#2EC4F6"/>
<rect x="116" y="9" width="1" height="1" fill="#2EC4F6"/>
<rect x="117" y="9" width="1" height="1" fill="#2EC4F6"/>
<rect x="1" y="10" width="1" height="1" fill="#2EC4F6"/>
<rect x="2" y="10" width="1" height="1" fill="#2EC4F6"/>
<rect x="34" y="10" width="1" height="1" fill="#2EC4F6"/>
<rect x="35" y="10" width="1" height="1" fill="#2EC4F6"/>
<rect x="38" y="10" width="1" height="1" fill="#2EC4F6"/>
<rect x="39" y="10" width="1" height="1" fill="#2EC4F6"/>
<rect x="50" y="10" width="1" height="1" fill="#2EC4F6"/>
<rect x="51" y="10" width="1" height="1" fill="#2EC4F6"/>
<rect x="54" y="10" width="1" height="1" fill="#2EC4F6"/>
<rect x="55" y="10" width="1" height="1" fill="#2EC4F6"/>
<rect x="58" y="10" width="1" height="1" fill="#2EC4F6"/>
<rect x="59" y="10" width="1" height="1" fill="#2EC4F6"/>
<rect x="112" y="10" width="1" height="1" fill="#2EC4F6"/>
<rect x="113" y="10" width="1" height="1" fill="#2EC4F6"/>
<rect x="116" y="10" width="1" height="1" fill="#2EC4F6"/>
<rect x="117" y="10" width="1" height="1" fill="#2EC4F6"/>
<rect x="1" y="11" width="1" height="1" fill="#2EC4F6"/>
<rect x="2" y="11" width="1" height="1" fill="#2EC4F6"/>
<rect x="34" y="11" width="1" height="1" fill="#2EC4F6"/>
<rect x="35" y="11" width="1" height="1" fill="#2EC4F6"/>
<rect x="36" y="11" width="1" height="1" fill="#2EC4F6"/>
<rect x="37" y="11" width="1" height="1" fill="#2EC4F6"/>
<rect x="38" y="11" width="1" height="1" fill="#2EC4F6"/>
<rect x="39" y="11" width="1" height="1" fill="#2EC4F6"/>
<rect x="42" y="11" width="1" height="1" fill="#2EC4F6"/>
<rect x="43" y="11" width="1" height="1" fill="#2EC4F6"/>
<rect x="46" y="11" width="1" height="1" fill="#2EC4F6"/>
<rect x="47" y="11" width="1" height="1" fill="#2EC4F6"/>
<rect x="48" y="11" width="1" height="1" fill="#2EC4F6"/>
<rect x="49" y="11" width="1" height="1" fill="#2EC4F6"/>
<rect x="50" y="11" width="1" height="1" fill="#2EC4F6"/>
<rect x="51" y="11" width="1" height="1" fill="#2EC4F6"/>
<rect x="54" y="11" width="1" height="1" fill="#2EC4F6"/>
<rect x="55" y="11" width="1" height="1" fill="#2EC4F6"/>
<rect x="56" y="11" width="1" height="1" fill="#2EC4F6"/>
<rect x="57" y="11" width="1" height="1" fill="#2EC4F6"/>
<rect x="58" y="11" width="1" height="1" fill="#2EC4F6"/>
<rect x="59" y="11" width="1" height="1" fill="#2EC4F6"/>
<rect x="112" y="11" width="1" height="1" fill="#2EC4F6"/>
<rect x="113" y="11" width="1" height="1" fill="#2EC4F6"/>
<rect x="116" y="11" width="1" height="1" fill="#2EC4F6"/>
<rect x="117" y="11" width="1" height="1" fill="#2EC4F6"/>
<rect x="1" y="12" width="1" height="1" fill="#2EC4F6"/>
<rect x="2" y="12" width="1" height="1" fill="#2EC4F6"/>
<rect x="34" y="12" width="1" height="1" fill="#2EC4F6"/>
<rect x="35" y="12" width="1" height="1" fill="#2EC4F6"/>
<rect x="36" y="12" width="1" height="1" fill="#2EC4F6"/>
<rect x="37" y="12" width="1" height="1" fill="#2EC4F6"/>
<rect x="38" y="12" width="1" height="1" fill="#2EC4F6"/>
<rect x="39" y="12" width="1" height="1" fill="#2EC4F6"/>
<rect x="42" y="12" width="1" height="1" fill="#2EC4F6"/>
<rect x="43" y="12" width="1" height="1" fill="#2EC4F6"/>
<rect x="46" y="12" width="1" height="1" fill="#2EC4F6"/>
<rect x="47" y="12" width="1" height="1" fill="#2EC4F6"/>
<rect x="48" y="12" width="1" height="1" fill="#2EC4F6"/>
<rect x="49" y="12" width="1" height="1" fill="#2EC4F6"/>
<rect x="50" y="12" width="1" height="1" fill="#2EC4F6"/>
<rect x="51" y="12" width="1" height="1" fill="#2EC4F6"/>
<rect x="54" y="12" width="1" height="1" fill="#2EC4F6"/>
<rect x="55" y="12" width="1" height="1" fill="#2EC4F6"/>
<rect x="56" y="12" width="1" height="1" fill="#2EC4F6"/>
<rect x="57" y="12" width="1" height="1" fill="#2EC4F6"/>
<rect x="58" y="12" width="1" height="1" fill="#2EC4F6"/>
<rect x="59" y="12" width="1" height="1" fill="#2EC4F6"/>
<rect x="112" y="12" width="1" height="1" fill="#2EC4F6"/>
<rect x="113" y="12" width="1" height="1" fill="#2EC4F6"/>
<rect x="116" y="12" width="1" height="1" fill="#2EC4F6"/>
<rect x="117" y="12" width="1" height="1" fill="#2EC4F6"/>
<rect x="3" y="13" width="1" height="1" fill="#2EC4F6"/>
<rect x="4" y="13" width="1" height="1" fill="#2EC4F6"/>
<rect x="5" y="13" width="1" height="1" fill="#2EC4F6"/>
<rect x="6" y="13" width="1" height="1" fill="#2EC4F6"/>
<rect x="3" y="14" width="1" height="1" fill="#2EC4F6"/>
<rect x="4" y="14" width="1" height="1" fill="#2EC4F6"/>
<rect x="5" y="14" width="1" height="1" fill="#2EC4F6"/>
<rect x="6" y="14" width="1" height="1" fill="#2EC4F6"/>
<rect x="3" y="15" width="1" height="1" fill="#2EC4F6"/>
<rect x="4" y="15" width="1" height="1" fill="#2EC4F6"/>
<rect x="5" y="15" width="1" height="1" fill="#2EC4F6"/>
<rect x="6" y="15" width="1" height="1" fill="#2EC4F6"/>
<rect x="85" y="17" width="1" height="1" fill="#2EC4F6"/>
<rect x="108" y="18" width="1" height="1" fill="#2EC4F6"/>
<rect x="109" y="18" width="1" height="1" fill="#2EC4F6"/>
<rect x="110" y="18" width="1" height="1" fill="#2EC4F6"/>
<rect x="114" y="18" width="1" height="1" fill="#2EC4F6"/>
<rect x="115" y="18" width="1" height="1" fill="#2EC4F6"/>
<rect x="116" y="18" width="1" height="1" fill="#2EC4F6"/>
<rect x="85" y="19" width="1" height="1" fill="#2EC4F6"/>
<rect x="108" y="19" width="1" height="1" fill="#2EC4F6"/>
<rect x="109" y="19" width="1" height="1" fill="#2EC4F6"/>
<rect x="110" y="19" width="1" height="1" fill="#2EC4F6"/>
<rect x="114" y="19" width="1" height="1" fill="#2EC4F6"/>
<rect x="116" y="19" width="1" height="1" fill="#2EC4F6"/>
<rect x="108" y="20" width="1" height="1" fill="#2EC4F6"/>
<rect x="109" y="20" width="1" height="1" fill="#2EC4F6"/>
<rect x="110" y="20" width="1" height="1" fill="#2EC4F6"/>
<rect x="114" y="20" width="1" height="1" fill="#2EC4F6"/>
<rect x="115" y="20" width="1" height="1" fill="#2EC4F6"/>
<rect x="116" y="20" width="1" height="1" fill="#2EC4F6"/>
<rect x="85" y="21" width="1" height="1" fill="#2EC4F6"/>
<rect x="85" y="23" width="1" height="1" fill="#2EC4F6"/>
<rect x="85" y="25" width="1" height="1" fill="#2EC4F6"/>
<rect x="85" y="27" width="1" height="1" fill="#2EC4F6"/>
<rect x="85" y="29" width="1" height="1" fill="#2EC4F6"/>
<rect x="85" y="31" width="1" height="1" fill="#2EC4F6"/>
<rect x="85" y="33" width="1" height="1" fill="#2EC4F6"/>
<rect x="85" y="35" width="1" height="1" fill="#2EC4F6"/>
<rect x="0" y="37" width="1" height="1" fill="#2EC4F6"/>
<rect x="2" y="37" width="1" height="1" fill="#2EC4F6"/>
<rect x="4" y="37" width="1" height="1" fill="#2EC4F6"/>
<rect x="6" y="37" width="1" height="1" fill="#2EC4F6"/>
<rect x="8" y="37" width="1" height="1" fill="#2EC4F6"/>
<rect x="10" y="37" width="1" height="1" fill="#2EC4F6"/>
<rect x="12" y="37" width="1" height="1" fill="#2EC4F6"/>
<rect x="14" y="37" width="1" height="1" fill="#2EC4F6"/>
<rect x="16" y="37" width="1" height="1" fill="#2EC4F6"/>
<rect x="18" y="37" width="1" height="1" fill="#2EC4F6"/>
<rect x="20" y="37" width="1" height="1" fill="#2EC4F6"/>
<rect x="22" y="37" width="1" height="1" fill="#2EC4F6"/>
<rect x="24" y="37" width="1" height="1" fill="#2EC4F6"/>
<rect x="26" y="37" width="1" height="1" fill="#2EC4F6"/>
<rect x="28" y="37" width="1" height="1" fill="#2EC4F6"/>
<rect x="30" y="37" width="1" height="1" fill="#2EC4F6"/>
<rect x="32" y="37" width="1" height="1" fill="#2EC4F6"/>
<rect x="34" y="37" width="1" height="1" fill="#2EC4F6"/>
<rect x="36" y="37" width="1" height="1" fill="#2EC4F6"/>
<rect x="38" y="37" width="1" height="1" fill="#2EC4F6"/>
<rect x="40" y="37" width="1" height="1" fill="#2EC4F6"/>
<rect x="42" y="37" width="1" height="1" fill="#2EC4F6"/>
<rect x="44" y="37" width="1" height="1" fill="#2EC4F6"/>
<rect x="46" y="37" width="1" height="1" fill="#2EC4F6"/>
<rect x="48" y="37" width="1" height="1" fill="#2EC4F6"/>
<rect x="50" y="37" width="1" height="1" fill="#2EC4F6"/>
<rect x="52" y="37" width="1" height="1" fill="#2EC4F6"/>
<rect x="54" y="37" width="1" height="1" fill="#2EC4F6"/>
<rect x="56" y="37" width="1" height="1" fill="#2EC4F6"/>
<rect x="58" y="37" width="1" height="1" fill="#2EC4F6"/>
<rect x="60" y="37" width="1" height="1" fill="#2EC4F6"/>
<rect x="62" y="37" width="1" height="1" fill="#2EC4F6"/>
<rect x="64" y="37" width="1" height="1" fill="#2EC4F6"/>
<rect x="66" y="37" width="1" height="1" fill="#2EC4F6"/>
<rect x="68" y="37" width="1" height="1" fill="#2EC4F6"/>
<rect x="70" y="37" width="1" height="1" fill="#2EC4F6"/>
<rect x="72" y="37" width="1" height="1" fill="#2EC4F6"/>
<rect x="74" y="37" width="1" height="1" fill="#2EC4F6"/>
<rect x="76" y="37" width="1" height="1" fill="#2EC4F6"/>
<rect x="78" y="37" width="1" height="1" fill="#2EC4F6"/>
<rect x="80" y="37" width="1" height="1" fill="#2EC4F6"/>
<rect x="82" y="37" width="1" height="1" fill="#2EC4F6"/>
<rect x="84" y="37" width="1" height="1" fill="#2EC4F6"/>
<rect x="85" y="37" width="1" height="1" fill="#2EC4F6"/>
<rect x="86" y="37" width="1" height="1" fill="#2EC4F6"/>
<rect x="88" y="37" width="1" height="1" fill="#2EC4F6"/>
<rect x="90" y="37" width="1" height="1" fill="#2EC4F6"/>
<rect x="92" y="37" width="1" height="1" fill="#2EC4F6"/>
<rect x="94" y="37" width="1" height="1" fill="#2EC4F6"/>
<rect x="96" y="37" width="1" height="1" fill="#2EC4F6"/>
<rect x="98" y="37" width="1" height="1" fill="#2EC4F6"/>
<rect x="100" y="37" width="1" height="1" fill="#2EC4F6"/>
<rect x="102" y="37" width="1" height="1" fill="#2EC4F6"/>
<rect x="104" y="37" width="1" height="1" fill="#2EC4F6"/>
<rect x="106" y="37" width="1" height="1" fill="#2EC4F6"/>
<rect x="108" y="37" width="1" height="1" fill="#2EC4F6"/>
<rect x="110" y="37" width="1" height="1" fill="#2EC4F6"/>
<rect x="112" y="37" width="1" height="1" fill="#2EC4F6"/>
<rect x="114" y="37" width="1" height="1" fill="#2EC4F6"/>
<rect x="116" y="37" width="1" height="1" fill="#2EC4F6"/>
<rect x="118" y="37" width="1" height="1" fill="#2EC4F6"/>
<rect x="120" y="37" width="1" height="1" fill="#2EC4F6"/>
<rect x="122" y="37" width="1" height="1" fill="#2EC4F6"/>
<rect x="124" y="37" width="1" height="1" fill="#2EC4F6"/>
<rect x="126" y="37" width="1" height="1" fill="#2EC4F6"/>
<rect x="85" y="39" width="1" height="1" fill="#2EC4F6"/>
<rect x="85" y="41" width="1" height="1" fill="#2EC4F6"/>
<rect x="85" y="43" width="1" height="1" fill="#2EC4F6"/>
<rect x="85" y="45" width="1" height="1" fill="#2EC4F6"/>
<rect x="85" y="47" width="1" height="1" fill="#2EC4F6"/>
<rect x="52" y="48" width="1" height="1" fill="#2EC4F6"/>
<rect x="53" y="48" width="1" height="1" fill="#2EC4F6"/>
<rect x="50" y="49" width="1" height="1" fill="#2EC4F6"/>
<rect x="51" y="49" width="1" height="1" fill="#2EC4F6"/>
<rect x="54" y="49" width="1" height="1" fill="#2EC4F6"/>
<rect x="85" y="49" width="1" height="1" fill="#2EC4F6"/>
<rect x="48" y="50" width="1" height="1" fill="#2EC4F6"/>
<rect x="49" y="50" width="1" height="1" fill="#2EC4F6"/>
<rect x="55" y="50" width="1" height="1" fill="#2EC4F6"/>
<rect x="47" y="51" width="1" height="1" fill="#2EC4F6"/>
<rect x="56" y="51" width="1" height="1" fill="#2EC4F6"/>
<rect x="85" y="51" width="1" height="1" fill="#2EC4F6"/>
<rect x="46" y="52" width="1" height="1" fill="#2EC4F6"/>
<rect x="57" y="52" width="1" height="1" fill="#2EC4F6"/>
<rect x="44" y="53" width="1" height="1" fill="#2EC4F6"/>
<rect x="45" y="53" width="1" height="1" fill="#2EC4F6"/>
<rect x="58" y="53" width="1" height="1" fill="#2EC4F6"/>
<rect x="85" y="53" width="1" height="1" fill="#2EC4F6"/>
<rect x="43" y="54" width="1" height="1" fill="#2EC4F6"/>
<rect x="59" y="54" width="1" height="1" fill="#2EC4F6"/>
<rect x="43" y="55" width="1" height="1" fill="#2EC4F6"/>
<rect x="60" y="55" width="1" height="1" fill="#2EC4F6"/>
<rect x="61" y="55" width="1" height="1" fill="#2EC4F6"/>
<rect x="85" y="55" width="1" height="1" fill="#2EC4F6"/>
<rect x="40" y="56" width="1" height="1" fill="#2EC4F6"/>
<rect x="41" y="56" width="1" height="1" fill="#2EC4F6"/>
<rect x="42" y="56" width="1" height="1" fill="#2EC4F6"/>
<rect x="62" y="56" width="1" height="1" fill="#2EC4F6"/>
<rect x="63" y="56" width="1" height="1" fill="#2EC4F6"/>
<rect x="38" y="57" width="1" height="1" fill="#2EC4F6"/>
<rect x="39" y="57" width="1" height="1" fill="#2EC4F6"/>
<rect x="64" y="57" width="1" height="1" fill="#2EC4F6"/>
<rect x="65" y="57" width="1" height="1" fill="#2EC4F6"/>
<rect x="85" y="57" width="1" height="1" fill="#2EC4F6"/>
<rect x="36" y="58" width="1" height="1" fill="#2EC4F6"/>
<rect x="37" y="58" width="1" height="1" fill="#2EC4F6"/>
<rect x="66" y="58" width="1" height="1" fill="#2EC4F6"/>
<rect x="67" y="58" width="1" height="1" fill="#2EC4F6"/>
<rect x="1" y="59" width="1" height="1" fill="#2EC4F6"/>
<rect x="2" y="59" width="1" height="1" fill="#2EC4F6"/>
<rect x="3" y="59" width="1" height="1" fill="#2EC4F6"/>
<rect x="4" y="59" width="1" height="1" fill="#2EC4F6"/>
<rect x="5" y="59" width="1" height="1" fill="#2EC4F6"/>
<rect x="6" y="59" width="1" height="1" fill="#2EC4F6"/>
<rect x="7" y="59" width="1" height="1" fill="#2EC4F6"/>
<rect x="8" y="59" width="1" height="1" fill="#2EC4F6"/>
<rect x="9" y="59" width="1" height="1" fill="#2EC4F6"/>
<rect x="10" y="59" width="1" height="1" fill="#2EC4F6"/>
<rect x="11" y="59" width="1" height="1" fill="#2EC4F6"/>
<rect x="12" y="59" width="1" height="1" fill="#2EC4F6"/>
<rect x="13" y="59" width="1" height="1" fill="#2EC4F6"/>
<rect x="14" y="59" width="1" height="1" fill="#2EC4F6"/>
<rect x="15" y="59" width="1" height="1" fill="#2EC4F6"/>
<rect x="16" y="59" width="1" height="1" fill="#2EC4F6"/>
<rect x="17" y="59" width="1" height="1" fill="#2EC4F6"/>
<rect x="18" y="59" width="1" height="1" fill="#2EC4F6"/>
<rect x="19" y="59" width="1" height="1" fill="#2EC4F6"/>
<rect x="20" y="59" width="1" height="1" fill="#2EC4F6"/>
<rect x="21" y="59" width="1" height="1" fill="#2EC4F6"/>
<rect x="22" y="59" width="1" height="1" fill="#2EC4F6"/>
<rect x="23" y="59" width="1" height="1" fill="#2EC4F6"/>
<rect x="24" y="59" width="1" height="1" fill="#2EC4F6"/>
<rect x="25" y="59" width="1" height="1" fill="#2EC4F6"/>
<rect x="26" y="59" width="1" height="1" fill="#2EC4F6"/>
<rect x="27" y="59" width="1" height="1" fill="#2EC4F6"/>
<rect x="28" y="59" width="1" height="1" fill="#2EC4F6"/>
<rect x="29" y="59" width="1" height="1" fill="#2EC4F6"/>
<rect x="30" y="59" width="1" height="1" fill="#2EC4F6"/>
<rect x="31" y="59" width="1" height="1" fill="#2EC4F6"/>
<rect x="32" y="59" width="1" height="1" fill="#2EC4F6"/>
<rect x="33" y="59" width="1" height="1" fill="#2EC4F6"/>
<rect x="34" y="59" width="1" height="1" fill="#2EC4F6"/>
<rect x="35" y="59" width="1" height="1" fill="#2EC4F6"/>
<rect x="68" y="59" width="1" height="1" fill="#2EC4F6"/>
<rect x="69" y="59" width="1" height="1" fill="#2EC4F6"/>
<rect x="70" y="59" width="1" height="1" fill="#2EC4F6"/>
<rect x="71" y="59" width="1" height="1" fill="#2EC4F6"/>
<rect x="72" y="59" width="1" height="1" fill="#2EC4F6"/>
<rect x="73" y="59" width="1" height="1" fill="#2EC4F6"/>
<rect x="74" y="59" width="1" height="1" fill="#2EC4F6"/>
<rect x="75" y="59" width="1" height="1" fill="#2EC4F6"/>
<rect x="76" y="59" width="1" height="1" fill="#2EC4F6"/>
<rect x="77" y="59" width="1" height="1" fill="#2EC4F6"/>
<rect x="78" y="59" width="1" height="1" fill="#2EC4F6"/>
<rect x="79" y="59" width="1" height="1" fill="#2EC4F6"/>
<rect x="80" y="59" width="1" height="1" fill="#2EC4F6"/>
<rect x="81" y="59" width="1" height="1" fill="#2EC4F6"/>
<rect x="82" y="59" width="1" height="1" fill="#2EC4F6"/>
<rect x="83" y="59" width="1" height="1" fill="#2EC4F6"/>
<rect x="84" y="59" width="1" height="1" fill="#2EC4F6"/>
<rect x="85" y="59" width="1" height="1" fill="#2EC4F6"/>
<rect x="86" y="59" width="1" height="1" fill="#2EC4F6"/>
<rect x="87" y="59" width="1" height="1" fill="#2EC4F6"/>
<rect x="88" y="59" width="1" height="1" fill="#2EC4F6"/>
<rect x="89" y="59" width="1" height="1" fill="#2EC4F6"/>
<rect x="90" y="59" width="1" height="1" fill="#2EC4F6"/>
<rect x="91" y="59" width="1" height="1" fill="#2EC4F6"/>
<rect x="92" y="59" width="1" height="1" fill="#2EC4F6"/>
<rect x="93" y="59" width="1" height="1" fill="#2EC4F6"/>
<rect x="94" y="59" width="1" height="1" fill="#2EC4F6"/>
<rect x="95" y="59" width="1" height="1" fill="#2EC4F6"/>
<rect x="96" y="59" width="1" height="1" fill="#2EC4F6"/>
<rect x="97" y="59" width="1" height="1" fill="#2EC4F6"/>
<rect x="98" y="59" width="1" height="1" fill="#2EC4F6"/>
<rect x="99" y="59" width="1" height="1" fill="#2EC4F6"/>
<rect x="100" y="59" width="1" height="1" fill="#2EC4F6"/>
<rect x="101" y="59" width="1" height="1" fill="#2EC4F6"/>
<rect x="102" y="59" width="1" height="1" fill="#2EC4F6"/>
<rect x="103" y="59" width="1" height="1" fill="#2EC4F6"/>
<rect x="104" y="59" width="1" height="1" fill="#2EC4F6"/>
<rect x="105" y="59" width="1" height="1" fill="#2EC4F6"/>
<rect x="106" y="59" width="1" height="1" fill="#2EC4F6"/>
<rect x="107" y="59" width="1" height="1" fill="#2EC4F6"/>
<rect x="108" y="59" width="1" height="1" fill="#2EC4F6"/>
<rect x="109" y="59" width="1" height="1" fill="#2EC4F6"/>
<rect x="110" y="59" width="1" height="1" fill="#2EC4F6"/>
<rect x="111" y="59" width="1" height="1" fill="#2EC4F6"/>
<rect x="112" y="59" width="1" height="1" fill="#2EC4F6"/>
<rect x="113" y="59" width="1" height="1" fill="#2EC4F6"/>
<rect x="114" y="59" width="1" height="1" fill="#2EC4F6"/>
<rect x="115" y="59" width="1" height="1" fill="#2EC4F6"/>
<rect x="116" y="59" width="1" height="1" fill="#2EC4F6"/>
<rect x="117" y="59" width="1" height="1" fill="#2EC4F6"/>
<rect x="118" y="59" width="1" height="1" fill="#2EC4F6"/>
<rect x="119" y="59" width="1" height="1" fill="#2EC4F6"/>
<rect x="120" y="59" width="1" height="1" fill="#2EC4F6"/>
<rect x="121" y="59" width="1" height="1" fill="#2EC4F6"/>
<rect x="122" y="59" width="1" height="1" fill="#2EC4F6"/>
<rect x="123" y="59" width="1" height="1" fill="#2EC4F6"/>
<rect x="124" y="59" width="1" height="1" fill="#2EC4F6"/>
<rect x="125" y="59" width="1" height="1" fill="#2EC4F6"/>
<rect x="126" y="59" width="1" height="1" fill="#2EC4F6"/>
<rect x="127" y="59" width="1" height="1" fill="#2EC4F6"/>
<rect x="85" y="61" width="1" height="1" fill="#2EC4F6"/>
<rect x="0" y="62" width="1" height="1" fill="#2EC4F6"/>
<rect x="2" y="62" width="1" height="1" fill="#2EC4F6"/>
<rect x="4" y="62" width="1" height="1" fill="#2EC4F6"/>
<rect x="6" y="62" width="1" height="1" fill="#2EC4F6"/>
<rect x="8" y="62" width="1" height="1" fill="#2EC4F6"/>
<rect x="10" y="62" width="1" height="1" fill="#2EC4F6"/>
<rect x="12" y="62" width="1" height="1" fill="#2EC4F6"/>
<rect x="14" y="62" width="1" height="1" fill="#2EC4F6"/>
<rect x="16" y="62" width="1" height="1" fill="#2EC4F6"/>
<rect x="18" y="62" width="1" height="1" fill="#2EC4F6"/>
<rect x="20" y="62" width="1" height="1" fill="#2EC4F6"/>
<rect x="22" y="62" width="1" height="1" fill="#2EC4F6"/>
<rect x="24" y="62" width="1" height="1" fill="#2EC4F6"/>
<rect x="26" y="62" width="1" height="1" fill="#2EC4F6"/>
<rect x="28" y="62" width="1" height="1" fill="#2EC4F6"/>
<rect x="30" y="62" width="1" height="1" fill="#2EC4F6"/>
<rect x="32" y="62" width="1" height="1" fill="#2EC4F6"/>
<rect x="34" y="62" width="1" height="1" fill="#2EC4F6"/>
<rect x="36" y="62" width="1" height="1" fill="#2EC4F6"/>
<rect x="38" y="62" width="1" height="1" fill="#2EC4F6"/>
<rect x="40" y="62" width="1" height="1" fill="#2EC4F6"/>
<rect x="42" y="62" width="1" height="1" fill="#2EC4F6"/>
<rect x="44" y="62" width="1" height="1" fill="#2EC4F6"/>
<rect x="46" y="62" width="1" height="1" fill="#2EC4F6"/>
<rect x="48" y="62" width="1" height="1" fill="#2EC4F6"/>
<rect x="50" y="62" width="1" height="1" fill="#2EC4F6"/>
<rect x="52" y="62" width="1" height="1" fill="#2EC4F6"/>
<rect x="54" y="62" width="1" height="1" fill="#2EC4F6"/>
<rect x="56" y="62" width="1" height="1" fill="#2EC4F6"/>
<rect x="58" y="62" width="1" height="1" fill="#2EC4F6"/>
<rect x="60" y="62" width="1" height="1" fill="#2EC4F6"/>
<rect x="62" y="62" width="1" height="1" fill="#2EC4F6"/>
<rect x="64" y="62" width="1" height="1" fill="#2EC4F6"/>
<rect x="66" y="62" width="1" height="1" fill="#2EC4F6"/>
<rect x="68" y="62" width="1" height="1" fill="#2EC4F6"/>
<rect x="70" y="62" width="1" height="1" fill="#2EC4F6"/>
<rect x="72" y="62" width="1" height="1" fill="#2EC4F6"/>
<rect x="74" y="62" width="1" height="1" fill="#2EC4F6"/>
<rect x="76" y="62" width="1" height="1" fill="#2EC4F6"/>
<rect x="78" y="62" width="1" height="1" fill="#2EC4F6"/>
<rect x="80" y="62" width="1" height="1" fill="#2EC4F6"/>
<rect x="82" y="62" width="1" height="1" fill="#2EC4F6"/>
<rect x="84" y="62" width="1" height="1" fill="#2EC4F6"/>
<rect x="86" y="62" width="1" height="1" fill="#2EC4F6"/>
<rect x="88" y="62" width="1" height="1" fill="#2EC4F6"/>
<rect x="90" y="62" width="1" height="1" fill="#2EC4F6"/>
<rect x="92" y="62" width="1" height="1" fill="#2EC4F6"/>
<rect x="94" y="62" width="1" height="1" fill="#2EC4F6"/>
<rect x="96" y="62" width="1" height="1" fill="#2EC4F6"/>
<rect x="98" y="62" width="1" height="1" fill="#2EC4F6"/>
<rect x="100" y="62" width="1" height="1" fill="#2EC4F6"/>
<rect x="102" y="62" width="1" height="1" fill="#2EC4F6"/>
<rect x="104" y="62" width="1" height="1" fill="#2EC4F6"/>
<rect x="106" y="62" width="1" height="1" fill="#2EC4F6"/>
<rect x="108" y="62" width="1" height="1" fill="#2EC4F6"/>
<rect x="110" y="62" width="1" height="1" fill="#2EC4F6"/>
<rect x="112" y="62" width="1" height="1" fill="#2EC4F6"/>
<rect x="114" y="62" width="1" height="1" fill="#2EC4F6"/>
<rect x="116" y="62" width="1" height="1" fill="#2EC4F6"/>
<rect x="118" y="62" width="1" height="1" fill="#2EC4F6"/>
<rect x="120" y="62" width="1" height="1" fill="#2EC4F6"/>
<rect x="122" y="62" width="1" height="1" fill="#2EC4F6"/>
<rect x="124" y="62" width="1" height="1" fill="#2EC4F6"/>
<rect x="126" y="62" width="1" height="1" fill="#2EC4F6"/>
</svg>
