<svg viewBox="0 0 128 64" width="128" height="64" xmlns="http://www.w3.org/2000/svg" shape-rendering="crispEdges">
<rect x="0" y="0" width="128" height="64" fill="#000000"/>
<rect x="38" y="2" width="1" height="1" fill="#2EC4F6"/>
<rect x="39" y="2" width="1" height="1" fill="#2EC4F6"/>
<rect x="40" y="2" width="1" height="1" fill="#2EC4F6"/>
<rect x="43" y="2" width="1" height="1" fill="#2EC4F6"/>
<rect x="44" y="2" width="1" height="1" fill="#2EC4F6"/>
<rect x="45" y="2" width="1" height="1" fill="#2EC4F6"/>
<rect x="46" y="2" width="1" height="1" fill="#2EC4F6"/>
<rect x="47" y="2" width="1" height="1" fill="#2EC4F6"/>
<rect x="49" y="2" width="1" height="1" fill="#2EC4F6"/>
<rect x="55" y="2" width="1" height="1" fill="#2EC4F6"/>
<rect x="56" y="2" width="1" height="1" fill="#2EC4F6"/>
<rect x="57" y="2" width="1" height="1" fill="#2EC4F6"/>
<rect x="58" y="2" width="1" height="1" fill="#2EC4F6"/>
<rect x="59" y="2" width="1" height="1" fill="#2EC4F6"/>
<rect x="67" y="2" width="1" height="1" fill="#2EC4F6"/>
<rect x="68" y="2" width="1" height="1" fill="#2EC4F6"/>
<rect x="69" y="2" width="1" height="1" fill="#2EC4F6"/>
<rect x="70" y="2" width="1" height="1" fill="#2EC4F6"/>
<rect x="71" y="2" width="1" height="1" fill="#2EC4F6"/>
<rect x="73" y="2" width="1" height="1" fill="#2EC4F6"/>
<rect x="74" y="2" width="1" height="1" fill="#2EC4F6"/>
<rect x="75" y="2" width="1" height="1" fill="#2EC4F6"/>
<rect x="76" y="2" width="1" height="1" fill="#2EC4F6"/>
<rect x="77" y="2" width="1" height="1" fill="#2EC4F6"/>
<rect x="80" y="2" width="1" height="1" fill="#2EC4F6"/>
<rect x="81" y="2" width="1" height="1" fill="#2EC4F6"/>
<rect x="82" y="2" width="1" height="1" fill="#2EC4F6"/>
<rect x="85" y="2" width="1" height="1" fill="#2EC4F6"/>
<rect x="86" y="2" width="1" height="1" fill="#2EC4F6"/>
<rect x="87" y="2" width="1" height="1" fill="#2EC4F6"/>
<rect x="88" y="2" width="1" height="1" fill="#2EC4F6"/>
<rect x="89" y="2" width="1" height="1" fill="#2EC4F6"/>
<rect x="37" y="3" width="1" height="1" fill="#2EC4F6"/>
<rect x="43" y="3" width="1" height="1" fill="#2EC4F6"/>
<rect x="49" y="3" width="1" height="1" fill="#2EC4F6"/>
<rect x="55" y="3" width="1" height="1" fill="#2EC4F6"/>
<rect x="69" y="3" width="1" height="1" fill="#2EC4F6"/>
<rect x="73" y="3" width="1" height="1" fill="#2EC4F6"/>
<rect x="79" y="3" width="1" height="1" fill="#2EC4F6"/>
<rect x="87" y="3" width="1" height="1" fill="#2EC4F6"/>
<rect x="37" y="4" width="1" height="1" fill="#2EC4F6"/>
<rect x="43" y="4" width="1" height="1" fill="#2EC4F6"/>
<rect x="49" y="4" width="1" height="1" fill="#2EC4F6"/>
<rect x="55" y="4" width="1" height="1" fill="#2EC4F6"/>
<rect x="69" y="4" width="1" height="1" fill="#2EC4F6"/>
<rect x="73" y="4" width="1" height="1" fill="#2EC4F6"/>
<rect x="79" y="4" width="1" height="1" fill="#2EC4F6"/>
<rect x="87" y="4" width="1" height="1" fill="#2EC4F6"/>
<rect x="38" y="5" width="1" height="1" fill="#2EC4F6"/>
<rect x="39" y="5" width="1" height="1" fill="#2EC4F6"/>
<rect x="40" y="5" width="1" height="1" fill="#2EC4F6"/>
<rect x="43" y="5" width="1" height="1" fill="#2EC4F6"/>
<rect x="44" y="5" width="1" height="1" fill="#2EC4F6"/>
<rect x="45" y="5" width="1" height="1" fill="#2EC4F6"/>
<rect x="46" y="5" width="1" height="1" fill="#2EC4F6"/>
<rect x="49" y="5" width="1" height="1" fill="#2EC4F6"/>
<rect x="55" y="5" width="1" height="1" fill="#2EC4F6"/>
<rect x="56" y="5" width="1" height="1" fill="#2EC4F6"/>
<rect x="57" y="5" width="1" height="1" fill="#2EC4F6"/>
<rect x="58" y="5" width="1" height="1" fill="#2EC4F6"/>
<rect x="69" y="5" width="1" height="1" fill="#2EC4F6"/>
<rect x="73" y="5" width="1" height="1" fill="#2EC4F6"/>
<rect x="74" y="5" width="1" height="1" fill="#2EC4F6"/>
<rect x="75" y="5" width="1" height="1" fill="#2EC4F6"/>
<rect x="76" y="5" width="1" height="1" fill="#2EC4F6"/>
<rect x="80" y="5" width="1" height="1" fill="#2EC4F6"/>
<rect x="81" y="5" width="1" height="1" fill="#2EC4F6"/>
<rect x="82" y="5" width="1" height="1" fill="#2EC4F6"/>
<rect x="87" y="5" width="1" height="1" fill="#2EC4F6"/>
<rect x="41" y="6" width="1" height="1" fill="#2EC4F6"/>
<rect x="43" y="6" width="1" height="1" fill="#2EC4F6"/>
<rect x="49" y="6" width="1" height="1" fill="#2EC4F6"/>
<rect x="55" y="6" width="1" height="1" fill="#2EC4F6"/>
<rect x="69" y="6" width="1" height="1" fill="#2EC4F6"/>
<rect x="73" y="6" width="1" height="1" fill="#2EC4F6"/>
<rect x="83" y="6" width="1" height="1" fill="#2EC4F6"/>
<rect x="87" y="6" width="1" height="1" fill="#2EC4F6"/>
<rect x="41" y="7" width="1" height="1" fill="#2EC4F6"/>
<rect x="43" y="7" width="1" height="1" fill="#2EC4F6"/>
<rect x="49" y="7" width="1" height="1" fill="#2EC4F6"/>
<rect x="55" y="7" width="1" height="1" fill="#2EC4F6"/>
<rect x="69" y="7" width="1" height="1" fill="#2EC4F6"/>
<rect x="73" y="7" width="1" height="1" fill="#2EC4F6"/>
<rect x="83" y="7" width="1" height="1" fill="#2EC4F6"/>
<rect x="87" y="7" width="1" height="1" fill="#2EC4F6"/>
<rect x="37" y="8" width="1" height="1" fill="#2EC4F6"/>
<rect x="38" y="8" width="1" height="1" fill="#2EC4F6"/>
<rect x="39" y="8" width="1" height="1" fill="#2EC4F6"/>
<rect x="43" y="8" width="1" height="1" fill="#2EC4F6"/>
<rect x="44" y="8" width="1" height="1" fill="#2EC4F6"/>
<rect x="45" y="8" width="1" height="1" fill="#2EC4F6"/>
<rect x="46" y="8" width="1" height="1" fill="#2EC4F6"/>
<rect x="47" y="8" width="1" height="1" fill="#2EC4F6"/>
<rect x="49" y="8" width="1" height="1" fill="#2EC4F6"/>
<rect x="50" y="8" width="1" height="1" fill="#2EC4F6"/>
<rect x="51" y="8" width="1" height="1" fill="#2EC4F6"/>
<rect x="52" y="8" width="1" height="1" fill="#2EC4F6"/>
<rect x="53" y="8" width="1" height="1" fill="#2EC4F6"/>
<rect x="55" y="8" width="1" height="1" fill="#2EC4F6"/>
<rect x="69" y="8" width="1" height="1" fill="#2EC4F6"/>
<rect x="73" y="8" width="1" height="1" fill="#2EC4F6"/>
<rect x="74" y="8" width="1" height="1" fill="#2EC4F6"/>
<rect x="75" y="8" width="1" height="1" fill="#2EC4F6"/>
<rect x="76" y="8" width="1" height="1" fill="#2EC4F6"/>
<rect x="77" y="8" width="1" height="1" fill="#2EC4F6"/>
<rect x="79" y="8" width="1" height="1" fill="#2EC4F6"/>
<rect x="80" y="8" width="1" height="1" fill="#2EC4F6"/>
<rect x="81" y="8" width="1" height="1" fill="#2EC4F6"/>
<rect x="87" y="8" width="1" height="1" fill="#2EC4F6"/>
<rect x="6" y="14" width="1" height="1" fill="#2EC4F6"/>
<rect x="7" y="14" width="1" height="1" fill="#2EC4F6"/>
<rect x="8" y="14" width="1" height="1" fill="#2EC4F6"/>
<rect x="13" y="14" width="1" height="1" fill="#2EC4F6"/>
<rect x="14" y="14" width="1" height="1" fill="#2EC4F6"/>
<rect x="15" y="14" width="1" height="1" fill="#2EC4F6"/>
<rect x="19" y="14" width="1" height="1" fill="#2EC4F6"/>
<rect x="20" y="14" width="1" height="1" fill="#2EC4F6"/>
<rect x="21" y="14" width="1" height="1" fill="#2EC4F6"/>
<rect x="24" y="14" width="1" height="1" fill="#2EC4F6"/>
<rect x="25" y="14" width="1" height="1" fill="#2EC4F6"/>
<rect x="26" y="14" width="1" height="1" fill="#2EC4F6"/>
<rect x="27" y="14" width="1" height="1" fill="#2EC4F6"/>
<rect x="6" y="15" width="1" height="1" fill="#2EC4F6"/>
<rect x="9" y="15" width="1" height="1" fill="#2EC4F6"/>
<rect x="14" y="15" width="1" height="1" fill="#2EC4F6"/>
<rect x="18" y="15" width="1" height="1" fill="#2EC4F6"/>
<rect x="24" y="15" width="1" height="1" fill="#2EC4F6"/>
<rect x="28" y="15" width="1" height="1" fill="#2EC4F6"/>
<rect x="74" y="15" width="1" height="1" fill="#2EC4F6"/>
<rect x="6" y="16" width="1" height="1" fill="#2EC4F6"/>
<rect x="10" y="16" width="1" height="1" fill="#2EC4F6"/>
<rect x="14" y="16" width="1" height="1" fill="#2EC4F6"/>
<rect x="18" y="16" width="1" height="1" fill="#2EC4F6"/>
<rect x="24" y="16" width="1" height="1" fill="#2EC4F6"/>
<rect x="28" y="16" width="1" height="1" fill="#2EC4F6"/>
<rect x="73" y="16" width="1" height="1" fill="#2EC4F6"/>
<rect x="6" y="17" width="1" height="1" fill="#2EC4F6"/>
<rect x="10" y="17" width="1" height="1" fill="#2EC4F6"/>
<rect x="14" y="17" width="1" height="1" fill="#2EC4F6"/>
<rect x="19" y="17" width="1" height="1" fill="#2EC4F6"/>
<rect x="20" y="17" width="1" height="1" fill="#2EC4F6"/>
<rect x="21" y="17" width="1" height="1" fill="#2EC4F6"/>
<rect x="24" y="17" width="1" height="1" fill="#2EC4F6"/>
<rect x="25" y="17" width="1" height="1" fill="#2EC4F6"/>
<rect x="26" y="17" width="1" height="1" fill="#2EC4F6"/>
<rect x="27" y="17" width="1" height="1" fill="#2EC4F6"/>
<rect x="70" y="17" width="1" height="1" fill="#2EC4F6"/>
<rect x="73" y="17" width="1" height="1" fill="#2EC4F6"/>
<rect x="6" y="18" width="1" height="1" fill="#2EC4F6"/>
<rect x="10" y="18" width="1" height="1" fill="#2EC4F6"/>
<rect x="14" y="18" width="1" height="1" fill="#2EC4F6"/>
<rect x="22" y="18" width="1" height="1" fill="#2EC4F6"/>
<rect x="24" y="18" width="1" height="1" fill="#2EC4F6"/>
<rect x="71" y="18" width="1" height="1" fill="#2EC4F6"/>
<rect x="73" y="18" width="1" height="1" fill="#2EC4F6"/>
<rect x="6" y="19" width="1" height="1" fill="#2EC4F6"/>
<rect x="9" y="19" width="1" height="1" fill="#2EC4F6"/>
<rect x="14" y="19" width="1" height="1" fill="#2EC4F6"/>
<rect x="22" y="19" width="1" height="1" fill="#2EC4F6"/>
<rect x="24" y="19" width="1" height="1" fill="#2EC4F6"/>
<rect x="72" y="19" width="1" height="1" fill="#2EC4F6"/>
<rect x="6" y="20" width="1" height="1" fill="#2EC4F6"/>
<rect x="7" y="20" width="1" height="1" fill="#2EC4F6"/>
<rect x="8" y="20" width="1" height="1" fill="#2EC4F6"/>
<rect x="13" y="20" width="1" height="1" fill="#2EC4F6"/>
<rect x="14" y="20" width="1" height="1" fill="#2EC4F6"/>
<rect x="15" y="20" width="1" height="1" fill="#2EC4F6"/>
<rect x="18" y="20" width="1" height="1" fill="#2EC4F6"/>
<rect x="19" y="20" width="1" height="1" fill="#2EC4F6"/>
<rect x="20" y="20" width="1" height="1" fill="#2EC4F6"/>
<rect x="24" y="20" width="1" height="1" fill="#2EC4F6"/>
<rect x="6" y="24" width="1" height="1" fill="#2EC4F6"/>
<rect x="10" y="24" width="1" height="1" fill="#2EC4F6"/>
<rect x="13" y="24" width="1" height="1" fill="#2EC4F6"/>
<rect x="14" y="24" width="1" height="1" fill="#2EC4F6"/>
<rect x="15" y="24" width="1" height="1" fill="#2EC4F6"/>
<rect x="19" y="24" width="1" height="1" fill="#2EC4F6"/>
<rect x="20" y="24" width="1" height="1" fill="#2EC4F6"/>
<rect x="21" y="24" width="1" height="1" fill="#2EC4F6"/>
<rect x="6" y="25" width="1" height="1" fill="#2EC4F6"/>
<rect x="7" y="25" width="1" height="1" fill="#2EC4F6"/>
<rect x="9" y="25" width="1" height="1" fill="#2EC4F6"/>
<rect x="10" y="25" width="1" height="1" fill="#2EC4F6"/>
<rect x="14" y="25" width="1" height="1" fill="#2EC4F6"/>
<rect x="18" y="25" width="1" height="1" fill="#2EC4F6"/>
<rect x="22" y="25" width="1" height="1" fill="#2EC4F6"/>
<rect x="74" y="25" width="1" height="1" fill="#2EC4F6"/>
<rect x="6" y="26" width="1" height="1" fill="#2EC4F6"/>
<rect x="8" y="26" width="1" height="1" fill="#2EC4F6"/>
<rect x="10" y="26" width="1" height="1" fill="#2EC4F6"/>
<rect x="14" y="26" width="1" height="1" fill="#2EC4F6"/>
<rect x="18" y="26" width="1" height="1" fill="#2EC4F6"/>
<rect x="73" y="26" width="1" height="1" fill="#2EC4F6"/>
<rect x="6" y="27" width="1" height="1" fill="#2EC4F6"/>
<rect x="8" y="27" width="1" height="1" fill="#2EC4F6"/>
<rect x="10" y="27" width="1" height="1" fill="#2EC4F6"/>
<rect x="14" y="27" width="1" height="1" fill="#2EC4F6"/>
<rect x="18" y="27" width="1" height="1" fill="#2EC4F6"/>
<rect x="70" y="27" width="1" height="1" fill="#2EC4F6"/>
<rect x="73" y="27" width="1" height="1" fill="#2EC4F6"/>
<rect x="6" y="28" width="1" height="1" fill="#2EC4F6"/>
<rect x="10" y="28" width="1" height="1" fill="#2EC4F6"/>
<rect x="14" y="28" width="1" height="1" fill="#2EC4F6"/>
<rect x="18" y="28" width="1" height="1" fill="#2EC4F6"/>
<rect x="71" y="28" width="1" height="1" fill="#2EC4F6"/>
<rect x="73" y="28" width="1" height="1" fill="#2EC4F6"/>
<rect x="6" y="29" width="1" height="1" fill="#2EC4F6"/>
<rect x="10" y="29" width="1" height="1" fill="#2EC4F6"/>
<rect x="14" y="29" width="1" height="1" fill="#2EC4F6"/>
<rect x="18" y="29" width="1" height="1" fill="#2EC4F6"/>
<rect x="22" y="29" width="1" height="1" fill="#2EC4F6"/>
<rect x="72" y="29" width="1" height="1" fill="#2EC4F6"/>
<rect x="6" y="30" width="1" height="1" fill="#2EC4F6"/>
<rect x="10" y="30" width="1" height="1" fill="#2EC4F6"/>
<rect x="13" y="30" width="1" height="1" fill="#2EC4F6"/>
<rect x="14" y="30" width="1" height="1" fill="#2EC4F6"/>
<rect x="15" y="30" width="1" height="1" fill="#2EC4F6"/>
<rect x="19" y="30" width="1" height="1" fill="#2EC4F6"/>
<rect x="20" y="30" width="1" height="1" fill="#2EC4F6"/>
<rect x="21" y="30" width="1" height="1" fill="#2EC4F6"/>
<rect x="6" y="34" width="1" height="1" fill="#2EC4F6"/>
<rect x="7" y="34" width="1" height="1" fill="#2EC4F6"/>
<rect x="8" y="34" width="1" height="1" fill="#2EC4F6"/>
<rect x="9" y="34" width="1" height="1" fill="#2EC4F6"/>
<rect x="12" y="34" width="1" height="1" fill="#2EC4F6"/>
<rect x="13" y="34" width="1" height="1" fill="#2EC4F6"/>
<rect x="14" y="34" width="1" height="1" fill="#2EC4F6"/>
<rect x="15" y="34" width="1" height="1" fill="#2EC4F6"/>
<rect x="18" y="34" width="1" height="1" fill="#2EC4F6"/>
<rect x="19" y="34" width="1" height="1" fill="#2EC4F6"/>
<rect x="20" y="34" width="1" height="1" fill="#2EC4F6"/>
<rect x="21" y="34" width="1" height="1" fill="#2EC4F6"/>
<rect x="22" y="34" width="1" height="1" fill="#2EC4F6"/>
<rect x="25" y="34" width="1" height="1" fill="#2EC4F6"/>
<rect x="26" y="34" width="1" height="1" fill="#2EC4F6"/>
<rect x="27" y="34" width="1" height="1" fill="#2EC4F6"/>
<rect x="6" y="35" width="1" height="1" fill="#2EC4F6"/>
<rect x="10" y="35" width="1" height="1" fill="#2EC4F6"/>
<rect x="12" y="35" width="1" height="1" fill="#2EC4F6"/>
<rect x="16" y="35" width="1" height="1" fill="#2EC4F6"/>
<rect x="18" y="35" width="1" height="1" fill="#2EC4F6"/>
<rect x="24" y="35" width="1" height="1" fill="#2EC4F6"/>
<rect x="74" y="35" width="1" height="1" fill="#2EC4F6"/>
<rect x="6" y="36" width="1" height="1" fill="#2EC4F6"/>
<rect x="10" y="36" width="1" height="1" fill="#2EC4F6"/>
<rect x="12" y="36" width="1" height="1" fill="#2EC4F6"/>
<rect x="16" y="36" width="1" height="1" fill="#2EC4F6"/>
<rect x="18" y="36" width="1" height="1" fill="#2EC4F6"/>
<rect x="24" y="36" width="1" height="1" fill="#2EC4F6"/>
<rect x="73" y="36" width="1" height="1" fill="#2EC4F6"/>
<rect x="6" y="37" width="1" height="1" fill="#2EC4F6"/>
<rect x="7" y="37" width="1" height="1" fill="#2EC4F6"/>
<rect x="8" y="37" width="1" height="1" fill="#2EC4F6"/>
<rect x="9" y="37" width="1" height="1" fill="#2EC4F6"/>
<rect x="12" y="37" width="1" height="1" fill="#2EC4F6"/>
<rect x="13" y="37" width="1" height="1" fill="#2EC4F6"/>
<rect x="14" y="37" width="1" height="1" fill="#2EC4F6"/>
<rect x="15" y="37" width="1" height="1" fill="#2EC4F6"/>
<rect x="18" y="37" width="1" height="1" fill="#2EC4F6"/>
<rect x="19" y="37" width="1" height="1" fill="#2EC4F6"/>
<rect x="20" y="37" width="1" height="1" fill="#2EC4F6"/>
<rect x="21" y="37" width="1" height="1" fill="#2EC4F6"/>
<rect x="25" y="37" width="1" height="1" fill="#2EC4F6"/>
<rect x="26" y="37" width="1" height="1" fill="#2EC4F6"/>
<rect x="27" y="37" width="1" height="1" fill="#2EC4F6"/>
<rect x="70" y="37" width="1" height="1" fill="#2EC4F6"/>
<rect x="73" y="37" width="1" height="1" fill="#2EC4F6"/>
<rect x="6" y="38" width="1" height="1" fill="#2EC4F6"/>
<rect x="12" y="38" width="1" height="1" fill="#2EC4F6"/>
<rect x="14" y="38" width="1" height="1" fill="#2EC4F6"/>
<rect x="18" y="38" width="1" height="1" fill="#2EC4F6"/>
<rect x="28" y="38" width="1" height="1" fill="#2EC4F6"/>
<rect x="71" y="38" width="1" height="1" fill="#2EC4F6"/>
<rect x="73" y="38" width="1" height="1" fill="#2EC4F6"/>
<rect x="6" y="39" width="1" height="1" fill="#2EC4F6"/>
<rect x="12" y="39" width="1" height="1" fill="#2EC4F6"/>
<rect x="15" y="39" width="1" height="1" fill="#2EC4F6"/>
<rect x="18" y="39" width="1" height="1" fill="#2EC4F6"/>
<rect x="28" y="39" width="1" height="1" fill="#2EC4F6"/>
<rect x="72" y="39" width="1" height="1" fill="#2EC4F6"/>
<rect x="6" y="40" width="1" height="1" fill="#2EC4F6"/>
<rect x="12" y="40" width="1" height="1" fill="#2EC4F6"/>
<rect x="16" y="40" width="1" height="1" fill="#2EC4F6"/>
<rect x="18" y="40" width="1" height="1" fill="#2EC4F6"/>
<rect x="19" y="40" width="1" height="1" fill="#2EC4F6"/>
<rect x="20" y="40" width="1" height="1" fill="#2EC4F6"/>
<rect x="21" y="40" width="1" height="1" fill="#2EC4F6"/>
<rect x="22" y="40" width="1" height="1" fill="#2EC4F6"/>
<rect x="24" y="40" width="1" height="1" fill="#2EC4F6"/>
<rect x="25" y="40" width="1" height="1" fill="#2EC4F6"/>
<rect x="26" y="40" width="1" height="1" fill="#2EC4F6"/>
<rect x="6" y="44" width="1" height="1" fill="#2EC4F6"/>
<rect x="10" y="44" width="1" height="1" fill="#2EC4F6"/>
<rect x="13" y="44" width="1" height="1" fill="#2EC4F6"/>
<rect x="14" y="44" width="1" height="1" fill="#2EC4F6"/>
<rect x="15" y="44" width="1" height="1" fill="#2EC4F6"/>
<rect x="18" y="44" width="1" height="1" fill="#2EC4F6"/>
<rect x="19" y="44" width="1" height="1" fill="#2EC4F6"/>
<rect x="20" y="44" width="1" height="1" fill="#2EC4F6"/>
<rect x="21" y="44" width="1" height="1" fill="#2EC4F6"/>
<rect x="22" y="44" width="1" height="1" fill="#2EC4F6"/>
<rect x="25" y="44" width="1" height="1" fill="#2EC4F6"/>
<rect x="26" y="44" width="1" height="1" fill="#2EC4F6"/>
<rect x="27" y="44" width="1" height="1" fill="#2EC4F6"/>
<rect x="30" y="44" width="1" height="1" fill="#2EC4F6"/>
<rect x="31" y="44" width="1" height="1" fill="#2EC4F6"/>
<rect x="32" y="44" width="1" height="1" fill="#2EC4F6"/>
<rect x="33" y="44" width="1" height="1" fill="#2EC4F6"/>
<rect x="6" y="45" width="1" height="1" fill="#2EC4F6"/>
<rect x="7" y="45" width="1" height="1" fill="#2EC4F6"/>
<rect x="9" y="45" width="1" height="1" fill="#2EC4F6"/>
<rect x="10" y="45" width="1" height="1" fill="#2EC4F6"/>
<rect x="12" y="45" width="1" height="1" fill="#2EC4F6"/>
<rect x="16" y="45" width="1" height="1" fill="#2EC4F6"/>
<rect x="20" y="45" width="1" height="1" fill="#2EC4F6"/>
<rect x="24" y="45" width="1" height="1" fill="#2EC4F6"/>
<rect x="28" y="45" width="1" height="1" fill="#2EC4F6"/>
<rect x="30" y="45" width="1" height="1" fill="#2EC4F6"/>
<rect x="34" y="45" width="1" height="1" fill="#2EC4F6"/>
<rect x="74" y="45" width="1" height="1" fill="#2EC4F6"/>
<rect x="6" y="46" width="1" height="1" fill="#2EC4F6"/>
<rect x="8" y="46" width="1" height="1" fill="#2EC4F6"/>
<rect x="10" y="46" width="1" height="1" fill="#2EC4F6"/>
<rect x="12" y="46" width="1" height="1" fill="#2EC4F6"/>
<rect x="16" y="46" width="1" height="1" fill="#2EC4F6"/>
<rect x="20" y="46" width="1" height="1" fill="#2EC4F6"/>
<rect x="24" y="46" width="1" height="1" fill="#2EC4F6"/>
<rect x="28" y="46" width="1" height="1" fill="#2EC4F6"/>
<rect x="30" y="46" width="1" height="1" fill="#2EC4F6"/>
<rect x="34" y="46" width="1" height="1" fill="#2EC4F6"/>
<rect x="73" y="46" width="1" height="1" fill="#2EC4F6"/>
<rect x="6" y="47" width="1" height="1" fill="#2EC4F6"/>
<rect x="8" y="47" width="1" height="1" fill="#2EC4F6"/>
<rect x="10" y="47" width="1" height="1" fill="#2EC4F6"/>
<rect x="12" y="47" width="1" height="1" fill="#2EC4F6"/>
<rect x="16" y="47" width="1" height="1" fill="#2EC4F6"/>
<rect x="20" y="47" width="1" height="1" fill="#2EC4F6"/>
<rect x="24" y="47" width="1" height="1" fill="#2EC4F6"/>
<rect x="28" y="47" width="1" height="1" fill="#2EC4F6"/>
<rect x="30" y="47" width="1" height="1" fill="#2EC4F6"/>
<rect x="31" y="47" width="1" height="1" fill="#2EC4F6"/>
<rect x="32" y="47" width="1" height="1" fill="#2EC4F6"/>
<rect x="33" y="47" width="1" height="1" fill="#2EC4F6"/>
<rect x="70" y="47" width="1" height="1" fill="#2EC4F6"/>
<rect x="73" y="47" width="1" height="1" fill="#2EC4F6"/>
<rect x="6" y="48" width="1" height="1" fill="#2EC4F6"/>
<rect x="10" y="48" width="1" height="1" fill="#2EC4F6"/>
<rect x="12" y="48" width="1" height="1" fill="#2EC4F6"/>
<rect x="16" y="48" width="1" height="1" fill="#2EC4F6"/>
<rect x="20" y="48" width="1" height="1" fill="#2EC4F6"/>
<rect x="24" y="48" width="1" height="1" fill="#2EC4F6"/>
<rect x="28" y="48" width="1" height="1" fill="#2EC4F6"/>
<rect x="30" y="48" width="1" height="1" fill="#2EC4F6"/>
<rect x="32" y="48" width="1" height="1" fill="#2EC4F6"/>
<rect x="71" y="48" width="1" height="1" fill="#2EC4F6"/>
<rect x="73" y="48" width="1" height="1" fill="#2EC4F6"/>
<rect x="6" y="49" width="1" height="1" fill="#2EC4F6"/>
<rect x="10" y="49" width="1" height="1" fill="#2EC4F6"/>
<rect x="12" y="49" width="1" height="1" fill="#2EC4F6"/>
<rect x="16" y="49" width="1" height="1" fill="#2EC4F6"/>
<rect x="20" y="49" width="1" height="1" fill="#2EC4F6"/>
<rect x="24" y="49" width="1" height="1" fill="#2EC4F6"/>
<rect x="28" y="49" width="1" height="1" fill="#2EC4F6"/>
<rect x="30" y="49" width="1" height="1" fill="#2EC4F6"/>
<rect x="33" y="49" width="1" height="1" fill="#2EC4F6"/>
<rect x="72" y="49" width="1" height="1" fill="#2EC4F6"/>
<rect x="6" y="50" width="1" height="1" fill="#2EC4F6"/>
<rect x="10" y="50" width="1" height="1" fill="#2EC4F6"/>
<rect x="13" y="50" width="1" height="1" fill="#2EC4F6"/>
<rect x="14" y="50" width="1" height="1" fill="#2EC4F6"/>
<rect x="15" y="50" width="1" height="1" fill="#2EC4F6"/>
<rect x="20" y="50" width="1" height="1" fill="#2EC4F6"/>
<rect x="25" y="50" width="1" height="1" fill="#2EC4F6"/>
<rect x="26" y="50" width="1" height="1" fill="#2EC4F6"/>
<rect x="27" y="50" width="1" height="1" fill="#2EC4F6"/>
<rect x="30" y="50" width="1" height="1" fill="#2EC4F6"/>
<rect x="34" y="50" width="1" height="1" fill="#2EC4F6"/>
<rect x="6" y="54" width="1" height="1" fill="#2EC4F6"/>
<rect x="7" y="54" width="1" height="1" fill="#2EC4F6"/>
<rect x="8" y="54" width="1" height="1" fill="#2EC4F6"/>
<rect x="9" y="54" width="1" height="1" fill="#2EC4F6"/>
<rect x="12" y="54" width="1" height="1" fill="#2EC4F6"/>
<rect x="18" y="54" width="1" height="1" fill="#2EC4F6"/>
<rect x="19" y="54" width="1" height="1" fill="#2EC4F6"/>
<rect x="20" y="54" width="1" height="1" fill="#2EC4F6"/>
<rect x="21" y="54" width="1" height="1" fill="#2EC4F6"/>
<rect x="22" y="54" width="1" height="1" fill="#2EC4F6"/>
<rect x="6" y="55" width="1" height="1" fill="#2EC4F6"/>
<rect x="10" y="55" width="1" height="1" fill="#2EC4F6"/>
<rect x="12" y="55" width="1" height="1" fill="#2EC4F6"/>
<rect x="18" y="55" width="1" height="1" fill="#2EC4F6"/>
<rect x="74" y="55" width="1" height="1" fill="#2EC4F6"/>
<rect x="6" y="56" width="1" height="1" fill="#2EC4F6"/>
<rect x="10" y="56" width="1" height="1" fill="#2EC4F6"/>
<rect x="12" y="56" width="1" height="1" fill="#2EC4F6"/>
<rect x="18" y="56" width="1" height="1" fill="#2EC4F6"/>
<rect x="73" y="56" width="1" height="1" fill="#2EC4F6"/>
<rect x="6" y="57" width="1" height="1" fill="#2EC4F6"/>
<rect x="7" y="57" width="1" height="1" fill="#2EC4F6"/>
<rect x="8" y="57" width="1" height="1" fill="#2EC4F6"/>
<rect x="9" y="57" width="1" height="1" fill="#2EC4F6"/>
<rect x="12" y="57" width="1" height="1" fill="#2EC4F6"/>
<rect x="18" y="57" width="1" height="1" fill="#2EC4F6"/>
<rect x="19" y="57" width="1" height="1" fill="#2EC4F6"/>
<rect x="20" y="57" width="1" height="1" fill="#2EC4F6"/>
<rect x="21" y="57" width="1" height="1" fill="#2EC4F6"/>
<rect x="70" y="57" width="1" height="1" fill="#2EC4F6"/>
<rect x="73" y="57" width="1" height="1" fill="#2EC4F6"/>
<rect x="6" y="58" width="1" height="1" fill="#2EC4F6"/>
<rect x="10" y="58" width="1" height="1" fill="#2EC4F6"/>
<rect x="12" y="58" width="1" height="1" fill="#2EC4F6"/>
<rect x="18" y="58" width="1" height="1" fill="#2EC4F6"/>
<rect x="71" y="58" width="1" height="1" fill="#2EC4F6"/>
<rect x="73" y="58" width="1" height="1" fill="#2EC4F6"/>
<rect x="6" y="59" width="1" height="1" fill="#2EC4F6"/>
<rect x="10" y="59" width="1" height="1" fill="#2EC4F6"/>
<rect x="12" y="59" width="1" height="1" fill="#2EC4F6"/>
<rect x="18" y="59" width="1" height="1" fill="#2EC4F6"/>
<rect x="72" y="59" width="1" height="1" fill="#2EC4F6"/>
<rect x="6" y="60" width="1" height="1" fill="#2EC4F6"/>
<rect x="7" y="60" width="1" height="1" fill="#2EC4F6"/>
<rect x="8" y="60" width="1" height="1" fill="#2EC4F6"/>
<rect x="9" y="60" width="1" height="1" fill="#2EC4F6"/>
<rect x="12" y="60" width="1" height="1" fill="#2EC4F6"/>
<rect x="13" y="60" width="1" height="1" fill="#2EC4F6"/>
<rect x="14" y="60" width="1" height="1" fill="#2EC4F6"/>
<rect x="15" y="60" width="1" height="1" fill="#2EC4F6"/>
<rect x="16" y="60" width="1" height="1" fill="#2EC4F6"/>
<rect x="18" y="60" width="1" height="1" fill="#2EC4F6"/>
<rect x="19" y="60" width="1" height="1" fill="#2EC4F6"/>
<rect x="20" y="60" width="1" height="1" fill="#2EC4F6"/>
<rect x="21" y="60" width="1" height="1" fill="#2EC4F6"/>
<rect x="22" y="60" width="1" height="1" fill="#2EC4F6"/>
</svg>
