<svg viewBox="0 0 128 64" width="128" height="64" xmlns="http://www.w3.org/2000/svg" shape-rendering="crispEdges">
<rect x="0" y="0" width="128" height="64" fill="#000000"/>
<rect x="6" y="1" width="1" height="1" fill="#2EC4F6"/>
<rect x="7" y="1" width="1" height="1" fill="#2EC4F6"/>
<rect x="20" y="1" width="1" height="1" fill="#2EC4F6"/>
<rect x="21" y="1" width="1" height="1" fill="#2EC4F6"/>
<rect x="27" y="1" width="1" height="1" fill="#2EC4F6"/>
<rect x="6" y="2" width="1" height="1" fill="#2EC4F6"/>
<rect x="7" y="2" width="1" height="1" fill="#2EC4F6"/>
<rect x="20" y="2" width="1" height="1" fill="#2EC4F6"/>
<rect x="21" y="2" width="1" height="1" fill="#2EC4F6"/>
<rect x="26" y="2" width="1" height="1" fill="#2EC4F6"/>
<rect x="28" y="2" width="1" height="1" fill="#2EC4F6"/>
<rect x="4" y="3" width="1" height="1" fill="#2EC4F6"/>
<rect x="5" y="3" width="1" height="1" fill="#2EC4F6"/>
<rect x="6" y="3" width="1" height="1" fill="#2EC4F6"/>
<rect x="7" y="3" width="1" height="1" fill="#2EC4F6"/>
<rect x="18" y="3" width="1" height="1" fill="#2EC4F6"/>
<rect x="19" y="3" width="1" height="1" fill="#2EC4F6"/>
<rect x="20" y="3" width="1" height="1" fill="#2EC4F6"/>
<rect x="21" y="3" width="1" height="1" fill="#2EC4F6"/>
<rect x="27" y="3" width="1" height="1" fill="#2EC4F6"/>
<rect x="4" y="4" width="1" height="1" fill="#2EC4F6"/>
<rect x="5" y="4" width="1" height="1" fill="#2EC4F6"/>
<rect x="6" y="4" width="1" height="1" fill="#2EC4F6"/>
<rect x="7" y="4" width="1" height="1" fill="#2EC4F6"/>
<rect x="18" y="4" width="1" height="1" fill="#2EC4F6"/>
<rect x="19" y="4" width="1" height="1" fill="#2EC4F6"/>
<rect x="20" y="4" width="1" height="1" fill="#2EC4F6"/>
<rect x="21" y="4" width="1" height="1" fill="#2EC4F6"/>
<rect x="6" y="5" width="1" height="1" fill="#2EC4F6"/>
<rect x="7" y="5" width="1" height="1" fill="#2EC4F6"/>
<rect x="16" y="5" width="1" height="1" fill="#2EC4F6"/>
<rect x="17" y="5" width="1" height="1" fill="#2EC4F6"/>
<rect x="20" y="5" width="1" height="1" fill="#2EC4F6"/>
<rect x="21" y="5" width="1" height="1" fill="#2EC4F6"/>
<rect x="6" y="6" width="1" height="1" fill="#2EC4F6"/>
<rect x="7" y="6" width="1" height="1" fill="#2EC4F6"/>
<rect x="16" y="6" width="1" height="1" fill="#2EC4F6"/>
<rect x="17" y="6" width="1" height="1" fill="#2EC4F6"/>
<rect x="20" y="6" width="1" height="1" fill="#2EC4F6"/>
<rect x="21" y="6" width="1" height="1" fill="#2EC4F6"/>
<rect x="6" y="7" width="1" height="1" fill="#2EC4F6"/>
<rect x="7" y="7" width="1" height="1" fill="#2EC4F6"/>
<rect x="14" y="7" width="1" height="1" fill="#2EC4F6"/>
<rect x="15" y="7" width="1" height="1" fill="#2EC4F6"/>
<rect x="20" y="7" width="1" height="1" fill="#2EC4F6"/>
<rect x="21" y="7" width="1" height="1" fill="#2EC4F6"/>
<rect x="6" y="8" width="1" height="1" fill="#2EC4F6"/>
<rect x="7" y="8" width="1" height="1" fill="#2EC4F6"/>
<rect x="14" y="8" width="1" height="1" fill="#2EC4F6"/>
<rect x="15" y="8" width="1" height="1" fill="#2EC4F6"/>
<rect x="20" y="8" width="1" height="1" fill="#2EC4F6"/>
<rect x="21" y="8" width="1" height="1" fill="#2EC4F6"/>
<rect x="6" y="9" width="1" height="1" fill="#2EC4F6"/>
<rect x="7" y="9" width="1" height="1" fill="#2EC4F6"/>
<rect x="14" y="9" width="1" height="1" fill="#2EC4F6"/>
<rect x="15" y="9" width="1" height="1" fill="#2EC4F6"/>
<rect x="16" y="9" width="1" height="1" fill="#2EC4F6"/>
<rect x="17" y="9" width="1" height="1" fill="#2EC4F6"/>
<rect x="18" y="9" width="1" height="1" fill="#2EC4F6"/>
<rect x="19" y="9" width="1" height="1" fill="#2EC4F6"/>
<rect x="20" y="9" width="1" height="1" fill="#2EC4F6"/>
<rect x="21" y="9" width="1" height="1" fill="#2EC4F6"/>
<rect x="22" y="9" width="1" height="1" fill="#2EC4F6"/>
<rect x="23" y="9" width="1" height="1" fill="#2EC4F6"/>
<rect x="6" y="10" width="1" height="1" fill="#2EC4F6"/>
<rect x="7" y="10" width="1" height="1" fill="#2EC4F6"/>
<rect x="14" y="10" width="1" height="1" fill="#2EC4F6"/>
<rect x="15" y="10" width="1" height="1" fill="#2EC4F6"/>
<rect x="16" y="10" width="1" height="1" fill="#2EC4F6"/>
<rect x="17" y="10" width="1" height="1" fill="#2EC4F6"/>
<rect x="18" y="10" width="1" height="1" fill="#2EC4F6"/>
<rect x="19" y="10" width="1" height="1" fill="#2EC4F6"/>
<rect x="20" y="10" width="1" height="1" fill="#2EC4F6"/>
<rect x="21" y="10" width="1" height="1" fill="#2EC4F6"/>
<rect x="22" y="10" width="1" height="1" fill="#2EC4F6"/>
<rect x="23" y="10" width="1" height="1" fill="#2EC4F6"/>
<rect x="6" y="11" width="1" height="1" fill="#2EC4F6"/>
<rect x="7" y="11" width="1" height="1" fill="#2EC4F6"/>
<rect x="20" y="11" width="1" height="1" fill="#2EC4F6"/>
<rect x="21" y="11" width="1" height="1" fill="#2EC4F6"/>
<rect x="6" y="12" width="1" height="1" fill="#2EC4F6"/>
<rect x="7" y="12" width="1" height="1" fill="#2EC4F6"/>
<rect x="20" y="12" width="1" height="1" fill="#2EC4F6"/>
<rect x="21" y="12" width="1" height="1" fill="#2EC4F6"/>
<rect x="4" y="13" width="1" height="1" fill="#2EC4F6"/>
<rect x="5" y="13" width="1" height="1" fill="#2EC4F6"/>
<rect x="6" y="13" width="1" height="1" fill="#2EC4F6"/>
<rect x="7" y="13" width="1" height="1" fill="#2EC4F6"/>
<rect x="8" y="13" width="1" height="1" fill="#2EC4F6"/>
<rect x="9" y="13" width="1" height="1" fill="#2EC4F6"/>
<rect x="20" y="13" width="1" height="1" fill="#2EC4F6"/>
<rect x="21" y="13" width="1" height="1" fill="#2EC4F6"/>
<rect x="4" y="14" width="1" height="1" fill="#2EC4F6"/>
<rect x="5" y="14" width="1" height="1" fill="#2EC4F6"/>
<rect x="6" y="14" width="1" height="1" fill="#2EC4F6"/>
<rect x="7" y="14" width="1" height="1" fill="#2EC4F6"/>
<rect x="8" y="14" width="1" height="1" fill="#2EC4F6"/>
<rect x="9" y="14" width="1" height="1" fill="#2EC4F6"/>
<rect x="20" y="14" width="1" height="1" fill="#2EC4F6"/>
<rect x="21" y="14" width="1" height="1" fill="#2EC4F6"/>
<rect x="61" y="20" width="1" height="1" fill="#2EC4F6"/>
<rect x="62" y="20" width="1" height="1" fill="#2EC4F6"/>
<rect x="63" y="20" width="1" height="1" fill="#2EC4F6"/>
<rect x="64" y="20" width="1" height="1" fill="#2EC4F6"/>
<rect x="65" y="20" width="1" height="1" fill="#2EC4F6"/>
<rect x="66" y="20" width="1" height="1" fill="#2EC4F6"/>
<rect x="67" y="20" width="1" height="1" fill="#2EC4F6"/>
<rect x="58" y="21" width="1" height="1" fill="#2EC4F6"/>
<rect x="59" y="21" width="1" height="1" fill="#2EC4F6"/>
<rect x="60" y="21" width="1" height="1" fill="#2EC4F6"/>
<rect x="68" y="21" width="1" height="1" fill="#2EC4F6"/>
<rect x="69" y="21" width="1" height="1" fill="#2EC4F6"/>
<rect x="70" y="21" width="1" height="1" fill="#2EC4F6"/>
<rect x="56" y="22" width="1" height="1" fill="#2EC4F6"/>
<rect x="57" y="22" width="1" height="1" fill="#2EC4F6"/>
<rect x="64" y="22" width="1" height="1" fill="#2EC4F6"/>
<rect x="71" y="22" width="1" height="1" fill="#2EC4F6"/>
<rect x="72" y="22" width="1" height="1" fill="#2EC4F6"/>
<rect x="55" y="23" width="1" height="1" fill="#2EC4F6"/>
<rect x="73" y="23" width="1" height="1" fill="#2EC4F6"/>
<rect x="53" y="24" width="1" height="1" fill="#2EC4F6"/>
<rect x="54" y="24" width="1" height="1" fill="#2EC4F6"/>
<rect x="64" y="24" width="1" height="1" fill="#2EC4F6"/>
<rect x="74" y="24" width="1" height="1" fill="#2EC4F6"/>
<rect x="75" y="24" width="1" height="1" fill="#2EC4F6"/>
<rect x="52" y="25" width="1" height="1" fill="#2EC4F6"/>
<rect x="76" y="25" width="1" height="1" fill="#2EC4F6"/>
<rect x="52" y="26" width="1" height="1" fill="#2EC4F6"/>
<rect x="64" y="26" width="1" height="1" fill="#2EC4F6"/>
<rect x="76" y="26" width="1" height="1" fill="#2EC4F6"/>
<rect x="51" y="27" width="1" height="1" fill="#2EC4F6"/>
<rect x="77" y="27" width="1" height="1" fill="#2EC4F6"/>
<rect x="50" y="28" width="1" height="1" fill="#2EC4F6"/>
<rect x="64" y="28" width="1" height="1" fill="#2EC4F6"/>
<rect x="78" y="28" width="1" height="1" fill="#2EC4F6"/>
<rect x="50" y="29" width="1" height="1" fill="#2EC4F6"/>
<rect x="78" y="29" width="1" height="1" fill="#2EC4F6"/>
<rect x="49" y="30" width="1" height="1" fill="#2EC4F6"/>
<rect x="62" y="30" width="1" height="1" fill="#2EC4F6"/>
<rect x="63" y="30" width="1" height="1" fill="#2EC4F6"/>
<rect x="64" y="30" width="1" height="1" fill="#2EC4F6"/>
<rect x="65" y="30" width="1" height="1" fill="#2EC4F6"/>
<rect x="66" y="30" width="1" height="1" fill="#2EC4F6"/>
<rect x="79" y="30" width="1" height="1" fill="#2EC4F6"/>
<rect x="49" y="31" width="1" height="1" fill="#2EC4F6"/>
<rect x="61" y="31" width="1" height="1" fill="#2EC4F6"/>
<rect x="67" y="31" width="1" height="1" fill="#2EC4F6"/>
<rect x="79" y="31" width="1" height="1" fill="#2EC4F6"/>
<rect x="49" y="32" width="1" height="1" fill="#2EC4F6"/>
<rect x="60" y="32" width="1" height="1" fill="#2EC4F6"/>
<rect x="64" y="32" width="1" height="1" fill="#2EC4F6"/>
<rect x="68" y="32" width="1" height="1" fill="#2EC4F6"/>
<rect x="79" y="32" width="1" height="1" fill="#2EC4F6"/>
<rect x="48" y="33" width="1" height="1" fill="#2EC4F6"/>
<rect x="59" y="33" width="1" height="1" fill="#2EC4F6"/>
<rect x="69" y="33" width="1" height="1" fill="#2EC4F6"/>
<rect x="80" y="33" width="1" height="1" fill="#2EC4F6"/>
<rect x="48" y="34" width="1" height="1" fill="#2EC4F6"/>
<rect x="58" y="34" width="1" height="1" fill="#2EC4F6"/>
<rect x="64" y="34" width="1" height="1" fill="#2EC4F6"/>
<rect x="70" y="34" width="1" height="1" fill="#2EC4F6"/>
<rect x="80" y="34" width="1" height="1" fill="#2EC4F6"/>
<rect x="48" y="35" width="1" height="1" fill="#2EC4F6"/>
<rect x="58" y="35" width="1" height="1" fill="#2EC4F6"/>
<rect x="70" y="35" width="1" height="1" fill="#2EC4F6"/>
<rect x="80" y="35" width="1" height="1" fill="#2EC4F6"/>
<rect x="48" y="36" width="1" height="1" fill="#2EC4F6"/>
<rect x="50" y="36" width="1" height="1" fill="#2EC4F6"/>
<rect x="52" y="36" width="1" height="1" fill="#2EC4F6"/>
<rect x="54" y="36" width="1" height="1" fill="#2EC4F6"/>
<rect x="56" y="36" width="1" height="1" fill="#2EC4F6"/>
<rect x="58" y="36" width="1" height="1" fill="#2EC4F6"/>
<rect x="60" y="36" width="1" height="1" fill="#2EC4F6"/>
<rect x="62" y="36" width="1" height="1" fill="#2EC4F6"/>
<rect x="64" y="36" width="1" height="1" fill="#2EC4F6"/>
<rect x="66" y="36" width="1" height="1" fill="#2EC4F6"/>
<rect x="68" y="36" width="1" height="1" fill="#2EC4F6"/>
<rect x="70" y="36" width="1" height="1" fill="#2EC4F6"/>
<rect x="72" y="36" width="1" height="1" fill="#2EC4F6"/>
<rect x="74" y="36" width="1" height="1" fill="#2EC4F6"/>
<rect x="76" y="36" width="1" height="1" fill="#2EC4F6"/>
<rect x="78" y="36" width="1" height="1" fill="#2EC4F6"/>
<rect x="80" y="36" width="1" height="1" fill="#2EC4F6"/>
<rect x="48" y="37" width="1" height="1" fill="#2EC4F6"/>
<rect x="58" y="37" width="1" height="1" fill="#2EC4F6"/>
<rect x="70" y="37" width="1" height="1" fill="#2EC4F6"/>
<rect x="80" y="37" width="1" height="1" fill="#2EC4F6"/>
<rect x="48" y="38" width="1" height="1" fill="#2EC4F6"/>
<rect x="58" y="38" width="1" height="1" fill="#2EC4F6"/>
<rect x="64" y="38" width="1" height="1" fill="#2EC4F6"/>
<rect x="70" y="38" width="1" height="1" fill="#2EC4F6"/>
<rect x="80" y="38" width="1" height="1" fill="#2EC4F6"/>
<rect x="48" y="39" width="1" height="1" fill="#2EC4F6"/>
<rect x="59" y="39" width="1" height="1" fill="#2EC4F6"/>
<rect x="69" y="39" width="1" height="1" fill="#2EC4F6"/>
<rect x="76" y="39" width="1" height="1" fill="#2EC4F6"/>
<rect x="80" y="39" width="1" height="1" fill="#2EC4F6"/>
<rect x="49" y="40" width="1" height="1" fill="#2EC4F6"/>
<rect x="60" y="40" width="1" height="1" fill="#2EC4F6"/>
<rect x="64" y="40" width="1" height="1" fill="#2EC4F6"/>
<rect x="68" y="40" width="1" height="1" fill="#2EC4F6"/>
<rect x="74" y="40" width="1" height="1" fill="#2EC4F6"/>
<rect x="75" y="40" width="1" height="1" fill="#2EC4F6"/>
<rect x="76" y="40" width="1" height="1" fill="#2EC4F6"/>
<rect x="77" y="40" width="1" height="1" fill="#2EC4F6"/>
<rect x="78" y="40" width="1" height="1" fill="#2EC4F6"/>
<rect x="79" y="40" width="1" height="1" fill="#2EC4F6"/>
<rect x="49" y="41" width="1" height="1" fill="#2EC4F6"/>
<rect x="61" y="41" width="1" height="1" fill="#2EC4F6"/>
<rect x="67" y="41" width="1" height="1" fill="#2EC4F6"/>
<rect x="73" y="41" width="1" height="1" fill="#2EC4F6"/>
<rect x="74" y="41" width="1" height="1" fill="#2EC4F6"/>
<rect x="75" y="41" width="1" height="1" fill="#2EC4F6"/>
<rect x="76" y="41" width="1" height="1" fill="#2EC4F6"/>
<rect x="77" y="41" width="1" height="1" fill="#2EC4F6"/>
<rect x="78" y="41" width="1" height="1" fill="#2EC4F6"/>
<rect x="79" y="41" width="1" height="1" fill="#2EC4F6"/>
<rect x="49" y="42" width="1" height="1" fill="#2EC4F6"/>
<rect x="62" y="42" width="1" height="1" fill="#2EC4F6"/>
<rect x="63" y="42" width="1" height="1" fill="#2EC4F6"/>
<rect x="64" y="42" width="1" height="1" fill="#2EC4F6"/>
<rect x="65" y="42" width="1" height="1" fill="#2EC4F6"/>
<rect x="66" y="42" width="1" height="1" fill="#2EC4F6"/>
<rect x="73" y="42" width="1" height="1" fill="#2EC4F6"/>
<rect x="74" y="42" width="1" height="1" fill="#2EC4F6"/>
<rect x="75" y="42" width="1" height="1" fill="#2EC4F6"/>
<rect x="76" y="42" width="1" height="1" fill="#2EC4F6"/>
<rect x="77" y="42" width="1" height="1" fill="#2EC4F6"/>
<rect x="78" y="42" width="1" height="1" fill="#2EC4F6"/>
<rect x="79" y="42" width="1" height="1" fill="#2EC4F6"/>
<rect x="50" y="43" width="1" height="1" fill="#2EC4F6"/>
<rect x="72" y="43" width="1" height="1" fill="#2EC4F6"/>
<rect x="73" y="43" width="1" height="1" fill="#2EC4F6"/>
<rect x="74" y="43" width="1" height="1" fill="#2EC4F6"/>
<rect x="75" y="43" width="1" height="1" fill="#2EC4F6"/>
<rect x="76" y="43" width="1" height="1" fill="#2EC4F6"/>
<rect x="77" y="43" width="1" height="1" fill="#2EC4F6"/>
<rect x="78" y="43" width="1" height="1" fill="#2EC4F6"/>
<rect x="79" y="43" width="1" height="1" fill="#2EC4F6"/>
<rect x="80" y="43" width="1" height="1" fill="#2EC4F6"/>
<rect x="50" y="44" width="1" height="1" fill="#2EC4F6"/>
<rect x="64" y="44" width="1" height="1" fill="#2EC4F6"/>
<rect x="73" y="44" width="1" height="1" fill="#2EC4F6"/>
<rect x="74" y="44" width="1" height="1" fill="#2EC4F6"/>
<rect x="75" y="44" width="1" height="1" fill="#2EC4F6"/>
<rect x="76" y="44" width="1" height="1" fill="#2EC4F6"/>
<rect x="77" y="44" width="1" height="1" fill="#2EC4F6"/>
<rect x="78" y="44" width="1" height="1" fill="#2EC4F6"/>
<rect x="79" y="44" width="1" height="1" fill="#2EC4F6"/>
<rect x="51" y="45" width="1" height="1" fill="#2EC4F6"/>
<rect x="73" y="45" width="1" height="1" fill="#2EC4F6"/>
<rect x="74" y="45" width="1" height="1" fill="#2EC4F6"/>
<rect x="75" y="45" width="1" height="1" fill="#2EC4F6"/>
<rect x="76" y="45" width="1" height="1" fill="#2EC4F6"/>
<rect x="77" y="45" width="1" height="1" fill="#2EC4F6"/>
<rect x="78" y="45" width="1" height="1" fill="#2EC4F6"/>
<rect x="79" y="45" width="1" height="1" fill="#2EC4F6"/>
<rect x="52" y="46" width="1" height="1" fill="#2EC4F6"/>
<rect x="64" y="46" width="1" height="1" fill="#2EC4F6"/>
<rect x="74" y="46" width="1" height="1" fill="#2EC4F6"/>
<rect x="75" y="46" width="1" height="1" fill="#2EC4F6"/>
<rect x="76" y="46" width="1" height="1" fill="#2EC4F6"/>
<rect x="77" y="46" width="1" height="1" fill="#2EC4F6"/>
<rect x="78" y="46" width="1" height="1" fill="#2EC4F6"/>
<rect x="52" y="47" width="1" height="1" fill="#2EC4F6"/>
<rect x="76" y="47" width="1" height="1" fill="#2EC4F6"/>
<rect x="53" y="48" width="1" height="1" fill="#2EC4F6"/>
<rect x="54" y="48" width="1" height="1" fill="#2EC4F6"/>
<rect x="64" y="48" width="1" height="1" fill="#2EC4F6"/>
<rect x="74" y="48" width="1" height="1" fill="#2EC4F6"/>
<rect x="75" y="48" width="1" height="1" fill="#2EC4F6"/>
<rect x="55" y="49" width="1" height="1" fill="#2EC4F6"/>
<rect x="73" y="49" width="1" height="1" fill="#2EC4F6"/>
<rect x="56" y="50" width="1" height="1" fill="#2EC4F6"/>
<rect x="57" y="50" width="1" height="1" fill="#2EC4F6"/>
<rect x="64" y="50" width="1" height="1" fill="#2EC4F6"/>
<rect x="71" y="50" width="1" height="1" fill="#2EC4F6"/>
<rect x="72" y="50" width="1" height="1" fill="#2EC4F6"/>
<rect x="58" y="51" width="1" height="1" fill="#2EC4F6"/>
<rect x="59" y="51" width="1" height="1" fill="#2EC4F6"/>
<rect x="60" y="51" width="1" height="1" fill="#2EC4F6"/>
<rect x="68" y="51" width="1" height="1" fill="#2EC4F6"/>
<rect x="69" y="51" width="1" height="1" fill="#2EC4F6"/>
<rect x="70" y="51" width="1" height="1" fill="#2EC4F6"/>
<rect x="61" y="52" width="1" height="1" fill="#2EC4F6"/>
<rect x="62" y="52" width="1" height="1" fill="#2EC4F6"/>
<rect x="63" y="52" width="1" height="1" fill="#2EC4F6"/>
<rect x="64" y="52" width="1" height="1" fill="#2EC4F6"/>
<rect x="65" y="52" width="1" height="1" fill="#2EC4F6"/>
<rect x="66" y="52" width="1" height="1" fill="#2EC4F6"/>
<rect x="67" y="52" width="1" height="1" fill="#2EC4F6"/>
</svg>
