<svg viewBox="0 0 128 64" width="128" height="64" xmlns="http://www.w3.org/2000/svg" shape-rendering="crispEdges">
<rect x="0" y="0" width="128" height="64" fill="#000000"/>
<rect x="108" y="2" width="1" height="1" fill="#2EC4F6"/>
<rect x="109" y="2" width="1" height="1" fill="#2EC4F6"/>
<rect x="110" y="2" width="1" height="1" fill="#2EC4F6"/>
<rect x="111" y="2" width="1" height="1" fill="#2EC4F6"/>
<rect x="112" y="2" width="1" height="1" fill="#2EC4F6"/>
<rect x="112" y="3" width="1" height="1" fill="#2EC4F6"/>
<rect x="111" y="4" width="1" height="1" fill="#2EC4F6"/>
<rect x="110" y="5" width="1" height="1" fill="#2EC4F6"/>
<rect x="109" y="6" width="1" height="1" fill="#2EC4F6"/>
<rect x="116" y="6" width="1" height="1" fill="#2EC4F6"/>
<rect x="117" y="6" width="1" height="1" fill="#2EC4F6"/>
<rect x="118" y="6" width="1" height="1" fill="#2EC4F6"/>
<rect x="119" y="6" width="1" height="1" fill="#2EC4F6"/>
<rect x="120" y="6" width="1" height="1" fill="#2EC4F6"/>
<rect x="108" y="7" width="1" height="1" fill="#2EC4F6"/>
<rect x="120" y="7" width="1" height="1" fill="#2EC4F6"/>
<rect x="108" y="8" width="1" height="1" fill="#2EC4F6"/>
<rect x="109" y="8" width="1" height="1" fill="#2EC4F6"/>
<rect x="110" y="8" width="1" height="1" fill="#2EC4F6"/>
<rect x="111" y="8" width="1" height="1" fill="#2EC4F6"/>
<rect x="112" y="8" width="1" height="1" fill="#2EC4F6"/>
<rect x="119" y="8" width="1" height="1" fill="#2EC4F6"/>
<rect x="118" y="9" width="1" height="1" fill="#2EC4F6"/>
<rect x="117" y="10" width="1" height="1" fill="#2EC4F6"/>
<rect x="116" y="11" width="1" height="1" fill="#2EC4F6"/>
<rect x="116" y="12" width="1" height="1" fill="#2EC4F6"/>
<rect x="117" y="12" width="1" height="1" fill="#2EC4F6"/>
<rect x="118" y="12" width="1" height="1" fill="#2EC4F6"/>
<rect x="119" y="12" width="1" height="1" fill="#2EC4F6"/>
<rect x="120" y="12" width="1" height="1" fill="#2EC4F6"/>
</svg>
