<svg viewBox="0 0 128 64" width="128" height="64" xmlns="http://www.w3.org/2000/svg" shape-rendering="crispEdges">
<rect x="0" y="0" width="128" height="64" fill="#000000"/>
<rect x="24" y="3" width="1" height="1" fill="#2EC4F6"/>
<rect x="2" y="4" width="1" height="1" fill="#2EC4F6"/>
<rect x="3" y="4" width="1" height="1" fill="#2EC4F6"/>
<rect x="4" y="4" width="1" height="1" fill="#2EC4F6"/>
<rect x="5" y="4" width="1" height="1" fill="#2EC4F6"/>
<rect x="6" y="4" width="1" height="1" fill="#2EC4F6"/>
<rect x="7" y="4" width="1" height="1" fill="#2EC4F6"/>
<rect x="8" y="4" width="1" height="1" fill="#2EC4F6"/>
<rect x="9" y="4" width="1" height="1" fill="#2EC4F6"/>
<rect x="10" y="4" width="1" height="1" fill="#2EC4F6"/>
<rect x="11" y="4" width="1" height="1" fill="#2EC4F6"/>
<rect x="12" y="4" width="1" height="1" fill="#2EC4F6"/>
<rect x="24" y="4" width="1" height="1" fill="#2EC4F6"/>
<rect x="25" y="4" width="1" height="1" fill="#2EC4F6"/>
<rect x="118" y="4" width="1" height="1" fill="#2EC4F6"/>
<rect x="2" y="5" width="1" height="1" fill="#2EC4F6"/>
<rect x="12" y="5" width="1" height="1" fill="#2EC4F6"/>
<rect x="22" y="5" width="1" height="1" fill="#2EC4F6"/>
<rect x="24" y="5" width="1" height="1" fill="#2EC4F6"/>
<rect x="26" y="5" width="1" height="1" fill="#2EC4F6"/>
<rect x="118" y="5" width="1" height="1" fill="#2EC4F6"/>
<rect x="2" y="6" width="1" height="1" fill="#2EC4F6"/>
<rect x="4" y="6" width="1" height="1" fill="#2EC4F6"/>
<rect x="5" y="6" width="1" height="1" fill="#2EC4F6"/>
<rect x="7" y="6" width="1" height="1" fill="#2EC4F6"/>
<rect x="8" y="6" width="1" height="1" fill="#2EC4F6"/>
<rect x="10" y="6" width="1" height="1" fill="#2EC4F6"/>
<rect x="11" y="6" width="1" height="1" fill="#2EC4F6"/>
<rect x="12" y="6" width="1" height="1" fill="#2EC4F6"/>
<rect x="13" y="6" width="1" height="1" fill="#2EC4F6"/>
<rect x="23" y="6" width="1" height="1" fill="#2EC4F6"/>
<rect x="24" y="6" width="1" height="1" fill="#2EC4F6"/>
<rect x="25" y="6" width="1" height="1" fill="#2EC4F6"/>
<rect x="118" y="6" width="1" height="1" fill="#2EC4F6"/>
<rect x="2" y="7" width="1" height="1" fill="#2EC4F6"/>
<rect x="4" y="7" width="1" height="1" fill="#2EC4F6"/>
<rect x="5" y="7" width="1" height="1" fill="#2EC4F6"/>
<rect x="7" y="7" width="1" height="1" fill="#2EC4F6"/>
<rect x="8" y="7" width="1" height="1" fill="#2EC4F6"/>
<rect x="10" y="7" width="1" height="1" fill="#2EC4F6"/>
<rect x="11" y="7" width="1" height="1" fill="#2EC4F6"/>
<rect x="12" y="7" width="1" height="1" fill="#2EC4F6"/>
<rect x="13" y="7" width="1" height="1" fill="#2EC4F6"/>
<rect x="24" y="7" width="1" height="1" fill="#2EC4F6"/>
<rect x="118" y="7" width="1" height="1" fill="#2EC4F6"/>
<rect x="2" y="8" width="1" height="1" fill="#2EC4F6"/>
<rect x="4" y="8" width="1" height="1" fill="#2EC4F6"/>
<rect x="5" y="8" width="1" height="1" fill="#2EC4F6"/>
<rect x="7" y="8" width="1" height="1" fill="#2EC4F6"/>
<rect x="8" y="8" width="1" height="1" fill="#2EC4F6"/>
<rect x="10" y="8" width="1" height="1" fill="#2EC4F6"/>
<rect x="11" y="8" width="1" height="1" fill="#2EC4F6"/>
<rect x="12" y="8" width="1" height="1" fill="#2EC4F6"/>
<rect x="13" y="8" width="1" height="1" fill="#2EC4F6"/>
<rect x="23" y="8" width="1" height="1" fill="#2EC4F6"/>
<rect x="24" y="8" width="1" height="1" fill="#2EC4F6"/>
<rect x="25" y="8" width="1" height="1" fill="#2EC4F6"/>
<rect x="118" y="8" width="1" height="1" fill="#2EC4F6"/>
<rect x="2" y="9" width="1" height="1" fill="#2EC4F6"/>
<rect x="12" y="9" width="1" height="1" fill="#2EC4F6"/>
<rect x="22" y="9" width="1" height="1" fill="#2EC4F6"/>
<rect x="24" y="9" width="1" height="1" fill="#2EC4F6"/>
<rect x="26" y="9" width="1" height="1" fill="#2EC4F6"/>
<rect x="118" y="9" width="1" height="1" fill="#2EC4F6"/>
<rect x="2" y="10" width="1" height="1" fill="#2EC4F6"/>
<rect x="3" y="10" width="1" height="1" fill="#2EC4F6"/>
<rect x="4" y="10" width="1" height="1" fill="#2EC4F6"/>
<rect x="5" y="10" width="1" height="1" fill="#2EC4F6"/>
<rect x="6" y="10" width="1" height="1" fill="#2EC4F6"/>
<rect x="7" y="10" width="1" height="1" fill="#2EC4F6"/>
<rect x="8" y="10" width="1" height="1" fill="#2EC4F6"/>
<rect x="9" y="10" width="1" height="1" fill="#2EC4F6"/>
<rect x="10" y="10" width="1" height="1" fill="#2EC4F6"/>
<rect x="11" y="10" width="1" height="1" fill="#2EC4F6"/>
<rect x="12" y="10" width="1" height="1" fill="#2EC4F6"/>
<rect x="24" y="10" width="1" height="1" fill="#2EC4F6"/>
<rect x="25" y="10" width="1" height="1" fill="#2EC4F6"/>
<rect x="118" y="10" width="1" height="1" fill="#2EC4F6"/>
<rect x="119" y="10" width="1" height="1" fill="#2EC4F6"/>
<rect x="120" y="10" width="1" height="1" fill="#2EC4F6"/>
<rect x="121" y="10" width="1" height="1" fill="#2EC4F6"/>
<rect x="122" y="10" width="1" height="1" fill="#2EC4F6"/>
<rect x="24" y="11" width="1" height="1" fill="#2EC4F6"/>
<rect x="23" y="24" width="1" height="1" fill="#2EC4F6"/>
<rect x="24" y="24" width="1" height="1" fill="#2EC4F6"/>
<rect x="25" y="24" width="1" height="1" fill="#2EC4F6"/>
<rect x="28" y="24" width="1" height="1" fill="#2EC4F6"/>
<rect x="32" y="24" width="1" height="1" fill="#2EC4F6"/>
<rect x="35" y="24" width="1" height="1" fill="#2EC4F6"/>
<rect x="36" y="24" width="1" height="1" fill="#2EC4F6"/>
<rect x="37" y="24" width="1" height="1" fill="#2EC4F6"/>
<rect x="40" y="24" width="1" height="1" fill="#2EC4F6"/>
<rect x="41" y="24" width="1" height="1" fill="#2EC4F6"/>
<rect x="42" y="24" width="1" height="1" fill="#2EC4F6"/>
<rect x="43" y="24" width="1" height="1" fill="#2EC4F6"/>
<rect x="44" y="24" width="1" height="1" fill="#2EC4F6"/>
<rect x="46" y="24" width="1" height="1" fill="#2EC4F6"/>
<rect x="47" y="24" width="1" height="1" fill="#2EC4F6"/>
<rect x="48" y="24" width="1" height="1" fill="#2EC4F6"/>
<rect x="49" y="24" width="1" height="1" fill="#2EC4F6"/>
<rect x="52" y="24" width="1" height="1" fill="#2EC4F6"/>
<rect x="53" y="24" width="1" height="1" fill="#2EC4F6"/>
<rect x="54" y="24" width="1" height="1" fill="#2EC4F6"/>
<rect x="55" y="24" width="1" height="1" fill="#2EC4F6"/>
<rect x="56" y="24" width="1" height="1" fill="#2EC4F6"/>
<rect x="64" y="24" width="1" height="1" fill="#2EC4F6"/>
<rect x="65" y="24" width="1" height="1" fill="#2EC4F6"/>
<rect x="66" y="24" width="1" height="1" fill="#2EC4F6"/>
<rect x="67" y="24" width="1" height="1" fill="#2EC4F6"/>
<rect x="68" y="24" width="1" height="1" fill="#2EC4F6"/>
<rect x="71" y="24" width="1" height="1" fill="#2EC4F6"/>
<rect x="72" y="24" width="1" height="1" fill="#2EC4F6"/>
<rect x="73" y="24" width="1" height="1" fill="#2EC4F6"/>
<rect x="76" y="24" width="1" height="1" fill="#2EC4F6"/>
<rect x="77" y="24" width="1" height="1" fill="#2EC4F6"/>
<rect x="78" y="24" width="1" height="1" fill="#2EC4F6"/>
<rect x="79" y="24" width="1" height="1" fill="#2EC4F6"/>
<rect x="88" y="24" width="1" height="1" fill="#2EC4F6"/>
<rect x="89" y="24" width="1" height="1" fill="#2EC4F6"/>
<rect x="90" y="24" width="1" height="1" fill="#2EC4F6"/>
<rect x="91" y="24" width="1" height="1" fill="#2EC4F6"/>
<rect x="92" y="24" width="1" height="1" fill="#2EC4F6"/>
<rect x="95" y="24" width="1" height="1" fill="#2EC4F6"/>
<rect x="96" y="24" width="1" height="1" fill="#2EC4F6"/>
<rect x="97" y="24" width="1" height="1" fill="#2EC4F6"/>
<rect x="100" y="24" width="1" height="1" fill="#2EC4F6"/>
<rect x="101" y="24" width="1" height="1" fill="#2EC4F6"/>
<rect x="102" y="24" width="1" height="1" fill="#2EC4F6"/>
<rect x="103" y="24" width="1" height="1" fill="#2EC4F6"/>
<rect x="24" y="25" width="1" height="1" fill="#2EC4F6"/>
<rect x="28" y="25" width="1" height="1" fill="#2EC4F6"/>
<rect x="29" y="25" width="1" height="1" fill="#2EC4F6"/>
<rect x="32" y="25" width="1" height="1" fill="#2EC4F6"/>
<rect x="34" y="25" width="1" height="1" fill="#2EC4F6"/>
<rect x="40" y="25" width="1" height="1" fill="#2EC4F6"/>
<rect x="46" y="25" width="1" height="1" fill="#2EC4F6"/>
<rect x="50" y="25" width="1" height="1" fill="#2EC4F6"/>
<rect x="54" y="25" width="1" height="1" fill="#2EC4F6"/>
<rect x="64" y="25" width="1" height="1" fill="#2EC4F6"/>
<rect x="70" y="25" width="1" height="1" fill="#2EC4F6"/>
<rect x="74" y="25" width="1" height="1" fill="#2EC4F6"/>
<rect x="76" y="25" width="1" height="1" fill="#2EC4F6"/>
<rect x="80" y="25" width="1" height="1" fill="#2EC4F6"/>
<rect x="90" y="25" width="1" height="1" fill="#2EC4F6"/>
<rect x="96" y="25" width="1" height="1" fill="#2EC4F6"/>
<rect x="100" y="25" width="1" height="1" fill="#2EC4F6"/>
<rect x="104" y="25" width="1" height="1" fill="#2EC4F6"/>
<rect x="24" y="26" width="1" height="1" fill="#2EC4F6"/>
<rect x="28" y="26" width="1" height="1" fill="#2EC4F6"/>
<rect x="30" y="26" width="1" height="1" fill="#2EC4F6"/>
<rect x="32" y="26" width="1" height="1" fill="#2EC4F6"/>
<rect x="34" y="26" width="1" height="1" fill="#2EC4F6"/>
<rect x="40" y="26" width="1" height="1" fill="#2EC4F6"/>
<rect x="46" y="26" width="1" height="1" fill="#2EC4F6"/>
<rect x="50" y="26" width="1" height="1" fill="#2EC4F6"/>
<rect x="54" y="26" width="1" height="1" fill="#2EC4F6"/>
<rect x="64" y="26" width="1" height="1" fill="#2EC4F6"/>
<rect x="70" y="26" width="1" height="1" fill="#2EC4F6"/>
<rect x="74" y="26" width="1" height="1" fill="#2EC4F6"/>
<rect x="76" y="26" width="1" height="1" fill="#2EC4F6"/>
<rect x="80" y="26" width="1" height="1" fill="#2EC4F6"/>
<rect x="90" y="26" width="1" height="1" fill="#2EC4F6"/>
<rect x="96" y="26" width="1" height="1" fill="#2EC4F6"/>
<rect x="100" y="26" width="1" height="1" fill="#2EC4F6"/>
<rect x="104" y="26" width="1" height="1" fill="#2EC4F6"/>
<rect x="24" y="27" width="1" height="1" fill="#2EC4F6"/>
<rect x="28" y="27" width="1" height="1" fill="#2EC4F6"/>
<rect x="30" y="27" width="1" height="1" fill="#2EC4F6"/>
<rect x="32" y="27" width="1" height="1" fill="#2EC4F6"/>
<rect x="35" y="27" width="1" height="1" fill="#2EC4F6"/>
<rect x="36" y="27" width="1" height="1" fill="#2EC4F6"/>
<rect x="37" y="27" width="1" height="1" fill="#2EC4F6"/>
<rect x="40" y="27" width="1" height="1" fill="#2EC4F6"/>
<rect x="41" y="27" width="1" height="1" fill="#2EC4F6"/>
<rect x="42" y="27" width="1" height="1" fill="#2EC4F6"/>
<rect x="43" y="27" width="1" height="1" fill="#2EC4F6"/>
<rect x="46" y="27" width="1" height="1" fill="#2EC4F6"/>
<rect x="47" y="27" width="1" height="1" fill="#2EC4F6"/>
<rect x="48" y="27" width="1" height="1" fill="#2EC4F6"/>
<rect x="49" y="27" width="1" height="1" fill="#2EC4F6"/>
<rect x="54" y="27" width="1" height="1" fill="#2EC4F6"/>
<rect x="64" y="27" width="1" height="1" fill="#2EC4F6"/>
<rect x="65" y="27" width="1" height="1" fill="#2EC4F6"/>
<rect x="66" y="27" width="1" height="1" fill="#2EC4F6"/>
<rect x="67" y="27" width="1" height="1" fill="#2EC4F6"/>
<rect x="70" y="27" width="1" height="1" fill="#2EC4F6"/>
<rect x="71" y="27" width="1" height="1" fill="#2EC4F6"/>
<rect x="72" y="27" width="1" height="1" fill="#2EC4F6"/>
<rect x="73" y="27" width="1" height="1" fill="#2EC4F6"/>
<rect x="74" y="27" width="1" height="1" fill="#2EC4F6"/>
<rect x="76" y="27" width="1" height="1" fill="#2EC4F6"/>
<rect x="77" y="27" width="1" height="1" fill="#2EC4F6"/>
<rect x="78" y="27" width="1" height="1" fill="#2EC4F6"/>
<rect x="79" y="27" width="1" height="1" fill="#2EC4F6"/>
<rect x="90" y="27" width="1" height="1" fill="#2EC4F6"/>
<rect x="96" y="27" width="1" height="1" fill="#2EC4F6"/>
<rect x="100" y="27" width="1" height="1" fill="#2EC4F6"/>
<rect x="101" y="27" width="1" height="1" fill="#2EC4F6"/>
<rect x="102" y="27" width="1" height="1" fill="#2EC4F6"/>
<rect x="103" y="27" width="1" height="1" fill="#2EC4F6"/>
<rect x="24" y="28" width="1" height="1" fill="#2EC4F6"/>
<rect x="28" y="28" width="1" height="1" fill="#2EC4F6"/>
<rect x="31" y="28" width="1" height="1" fill="#2EC4F6"/>
<rect x="32" y="28" width="1" height="1" fill="#2EC4F6"/>
<rect x="38" y="28" width="1" height="1" fill="#2EC4F6"/>
<rect x="40" y="28" width="1" height="1" fill="#2EC4F6"/>
<rect x="46" y="28" width="1" height="1" fill="#2EC4F6"/>
<rect x="48" y="28" width="1" height="1" fill="#2EC4F6"/>
<rect x="54" y="28" width="1" height="1" fill="#2EC4F6"/>
<rect x="64" y="28" width="1" height="1" fill="#2EC4F6"/>
<rect x="70" y="28" width="1" height="1" fill="#2EC4F6"/>
<rect x="74" y="28" width="1" height="1" fill="#2EC4F6"/>
<rect x="76" y="28" width="1" height="1" fill="#2EC4F6"/>
<rect x="78" y="28" width="1" height="1" fill="#2EC4F6"/>
<rect x="90" y="28" width="1" height="1" fill="#2EC4F6"/>
<rect x="96" y="28" width="1" height="1" fill="#2EC4F6"/>
<rect x="100" y="28" width="1" height="1" fill="#2EC4F6"/>
<rect x="24" y="29" width="1" height="1" fill="#2EC4F6"/>
<rect x="28" y="29" width="1" height="1" fill="#2EC4F6"/>
<rect x="32" y="29" width="1" height="1" fill="#2EC4F6"/>
<rect x="38" y="29" width="1" height="1" fill="#2EC4F6"/>
<rect x="40" y="29" width="1" height="1" fill="#2EC4F6"/>
<rect x="46" y="29" width="1" height="1" fill="#2EC4F6"/>
<rect x="49" y="29" width="1" height="1" fill="#2EC4F6"/>
<rect x="54" y="29" width="1" height="1" fill="#2EC4F6"/>
<rect x="64" y="29" width="1" height="1" fill="#2EC4F6"/>
<rect x="70" y="29" width="1" height="1" fill="#2EC4F6"/>
<rect x="74" y="29" width="1" height="1" fill="#2EC4F6"/>
<rect x="76" y="29" width="1" height="1" fill="#2EC4F6"/>
<rect x="79" y="29" width="1" height="1" fill="#2EC4F6"/>
<rect x="90" y="29" width="1" height="1" fill="#2EC4F6"/>
<rect x="96" y="29" width="1" height="1" fill="#2EC4F6"/>
<rect x="100" y="29" width="1" height="1" fill="#2EC4F6"/>
<rect x="23" y="30" width="1" height="1" fill="#2EC4F6"/>
<rect x="24" y="30" width="1" height="1" fill="#2EC4F6"/>
<rect x="25" y="30" width="1" height="1" fill="#2EC4F6"/>
<rect x="28" y="30" width="1" height="1" fill="#2EC4F6"/>
<rect x="32" y="30" width="1" height="1" fill="#2EC4F6"/>
<rect x="34" y="30" width="1" height="1" fill="#2EC4F6"/>
<rect x="35" y="30" width="1" height="1" fill="#2EC4F6"/>
<rect x="36" y="30" width="1" height="1" fill="#2EC4F6"/>
<rect x="40" y="30" width="1" height="1" fill="#2EC4F6"/>
<rect x="41" y="30" width="1" height="1" fill="#2EC4F6"/>
<rect x="42" y="30" width="1" height="1" fill="#2EC4F6"/>
<rect x="43" y="30" width="1" height="1" fill="#2EC4F6"/>
<rect x="44" y="30" width="1" height="1" fill="#2EC4F6"/>
<rect x="46" y="30" width="1" height="1" fill="#2EC4F6"/>
<rect x="50" y="30" width="1" height="1" fill="#2EC4F6"/>
<rect x="54" y="30" width="1" height="1" fill="#2EC4F6"/>
<rect x="64" y="30" width="1" height="1" fill="#2EC4F6"/>
<rect x="65" y="30" width="1" height="1" fill="#2EC4F6"/>
<rect x="66" y="30" width="1" height="1" fill="#2EC4F6"/>
<rect x="67" y="30" width="1" height="1" fill="#2EC4F6"/>
<rect x="68" y="30" width="1" height="1" fill="#2EC4F6"/>
<rect x="70" y="30" width="1" height="1" fill="#2EC4F6"/>
<rect x="74" y="30" width="1" height="1" fill="#2EC4F6"/>
<rect x="76" y="30" width="1" height="1" fill="#2EC4F6"/>
<rect x="80" y="30" width="1" height="1" fill="#2EC4F6"/>
<rect x="90" y="30" width="1" height="1" fill="#2EC4F6"/>
<rect x="95" y="30" width="1" height="1" fill="#2EC4F6"/>
<rect x="96" y="30" width="1" height="1" fill="#2EC4F6"/>
<rect x="97" y="30" width="1" height="1" fill="#2EC4F6"/>
<rect x="100" y="30" width="1" height="1" fill="#2EC4F6"/>
<rect x="22" y="38" width="1" height="1" fill="#2EC4F6"/>
<rect x="23" y="38" width="1" height="1" fill="#2EC4F6"/>
<rect x="24" y="38" width="1" height="1" fill="#2EC4F6"/>
<rect x="25" y="38" width="1" height="1" fill="#2EC4F6"/>
<rect x="28" y="38" width="1" height="1" fill="#2EC4F6"/>
<rect x="29" y="38" width="1" height="1" fill="#2EC4F6"/>
<rect x="30" y="38" width="1" height="1" fill="#2EC4F6"/>
<rect x="31" y="38" width="1" height="1" fill="#2EC4F6"/>
<rect x="34" y="38" width="1" height="1" fill="#2EC4F6"/>
<rect x="35" y="38" width="1" height="1" fill="#2EC4F6"/>
<rect x="36" y="38" width="1" height="1" fill="#2EC4F6"/>
<rect x="37" y="38" width="1" height="1" fill="#2EC4F6"/>
<rect x="38" y="38" width="1" height="1" fill="#2EC4F6"/>
<rect x="41" y="38" width="1" height="1" fill="#2EC4F6"/>
<rect x="42" y="38" width="1" height="1" fill="#2EC4F6"/>
<rect x="43" y="38" width="1" height="1" fill="#2EC4F6"/>
<rect x="47" y="38" width="1" height="1" fill="#2EC4F6"/>
<rect x="48" y="38" width="1" height="1" fill="#2EC4F6"/>
<rect x="49" y="38" width="1" height="1" fill="#2EC4F6"/>
<rect x="58" y="38" width="1" height="1" fill="#2EC4F6"/>
<rect x="59" y="38" width="1" height="1" fill="#2EC4F6"/>
<rect x="60" y="38" width="1" height="1" fill="#2EC4F6"/>
<rect x="61" y="38" width="1" height="1" fill="#2EC4F6"/>
<rect x="62" y="38" width="1" height="1" fill="#2EC4F6"/>
<rect x="65" y="38" width="1" height="1" fill="#2EC4F6"/>
<rect x="66" y="38" width="1" height="1" fill="#2EC4F6"/>
<rect x="67" y="38" width="1" height="1" fill="#2EC4F6"/>
<rect x="77" y="38" width="1" height="1" fill="#2EC4F6"/>
<rect x="78" y="38" width="1" height="1" fill="#2EC4F6"/>
<rect x="79" y="38" width="1" height="1" fill="#2EC4F6"/>
<rect x="82" y="38" width="1" height="1" fill="#2EC4F6"/>
<rect x="83" y="38" width="1" height="1" fill="#2EC4F6"/>
<rect x="84" y="38" width="1" height="1" fill="#2EC4F6"/>
<rect x="85" y="38" width="1" height="1" fill="#2EC4F6"/>
<rect x="86" y="38" width="1" height="1" fill="#2EC4F6"/>
<rect x="89" y="38" width="1" height="1" fill="#2EC4F6"/>
<rect x="90" y="38" width="1" height="1" fill="#2EC4F6"/>
<rect x="91" y="38" width="1" height="1" fill="#2EC4F6"/>
<rect x="94" y="38" width="1" height="1" fill="#2EC4F6"/>
<rect x="95" y="38" width="1" height="1" fill="#2EC4F6"/>
<rect x="96" y="38" width="1" height="1" fill="#2EC4F6"/>
<rect x="97" y="38" width="1" height="1" fill="#2EC4F6"/>
<rect x="100" y="38" width="1" height="1" fill="#2EC4F6"/>
<rect x="101" y="38" width="1" height="1" fill="#2EC4F6"/>
<rect x="102" y="38" width="1" height="1" fill="#2EC4F6"/>
<rect x="103" y="38" width="1" height="1" fill="#2EC4F6"/>
<rect x="104" y="38" width="1" height="1" fill="#2EC4F6"/>
<rect x="22" y="39" width="1" height="1" fill="#2EC4F6"/>
<rect x="26" y="39" width="1" height="1" fill="#2EC4F6"/>
<rect x="28" y="39" width="1" height="1" fill="#2EC4F6"/>
<rect x="32" y="39" width="1" height="1" fill="#2EC4F6"/>
<rect x="34" y="39" width="1" height="1" fill="#2EC4F6"/>
<rect x="40" y="39" width="1" height="1" fill="#2EC4F6"/>
<rect x="46" y="39" width="1" height="1" fill="#2EC4F6"/>
<rect x="60" y="39" width="1" height="1" fill="#2EC4F6"/>
<rect x="64" y="39" width="1" height="1" fill="#2EC4F6"/>
<rect x="68" y="39" width="1" height="1" fill="#2EC4F6"/>
<rect x="76" y="39" width="1" height="1" fill="#2EC4F6"/>
<rect x="84" y="39" width="1" height="1" fill="#2EC4F6"/>
<rect x="88" y="39" width="1" height="1" fill="#2EC4F6"/>
<rect x="92" y="39" width="1" height="1" fill="#2EC4F6"/>
<rect x="94" y="39" width="1" height="1" fill="#2EC4F6"/>
<rect x="98" y="39" width="1" height="1" fill="#2EC4F6"/>
<rect x="102" y="39" width="1" height="1" fill="#2EC4F6"/>
<rect x="22" y="40" width="1" height="1" fill="#2EC4F6"/>
<rect x="26" y="40" width="1" height="1" fill="#2EC4F6"/>
<rect x="28" y="40" width="1" height="1" fill="#2EC4F6"/>
<rect x="32" y="40" width="1" height="1" fill="#2EC4F6"/>
<rect x="34" y="40" width="1" height="1" fill="#2EC4F6"/>
<rect x="40" y="40" width="1" height="1" fill="#2EC4F6"/>
<rect x="46" y="40" width="1" height="1" fill="#2EC4F6"/>
<rect x="60" y="40" width="1" height="1" fill="#2EC4F6"/>
<rect x="64" y="40" width="1" height="1" fill="#2EC4F6"/>
<rect x="68" y="40" width="1" height="1" fill="#2EC4F6"/>
<rect x="76" y="40" width="1" height="1" fill="#2EC4F6"/>
<rect x="84" y="40" width="1" height="1" fill="#2EC4F6"/>
<rect x="88" y="40" width="1" height="1" fill="#2EC4F6"/>
<rect x="92" y="40" width="1" height="1" fill="#2EC4F6"/>
<rect x="94" y="40" width="1" height="1" fill="#2EC4F6"/>
<rect x="98" y="40" width="1" height="1" fill="#2EC4F6"/>
<rect x="102" y="40" width="1" height="1" fill="#2EC4F6"/>
<rect x="22" y="41" width="1" height="1" fill="#2EC4F6"/>
<rect x="23" y="41" width="1" height="1" fill="#2EC4F6"/>
<rect x="24" y="41" width="1" height="1" fill="#2EC4F6"/>
<rect x="25" y="41" width="1" height="1" fill="#2EC4F6"/>
<rect x="28" y="41" width="1" height="1" fill="#2EC4F6"/>
<rect x="29" y="41" width="1" height="1" fill="#2EC4F6"/>
<rect x="30" y="41" width="1" height="1" fill="#2EC4F6"/>
<rect x="31" y="41" width="1" height="1" fill="#2EC4F6"/>
<rect x="34" y="41" width="1" height="1" fill="#2EC4F6"/>
<rect x="35" y="41" width="1" height="1" fill="#2EC4F6"/>
<rect x="36" y="41" width="1" height="1" fill="#2EC4F6"/>
<rect x="37" y="41" width="1" height="1" fill="#2EC4F6"/>
<rect x="41" y="41" width="1" height="1" fill="#2EC4F6"/>
<rect x="42" y="41" width="1" height="1" fill="#2EC4F6"/>
<rect x="43" y="41" width="1" height="1" fill="#2EC4F6"/>
<rect x="47" y="41" width="1" height="1" fill="#2EC4F6"/>
<rect x="48" y="41" width="1" height="1" fill="#2EC4F6"/>
<rect x="49" y="41" width="1" height="1" fill="#2EC4F6"/>
<rect x="60" y="41" width="1" height="1" fill="#2EC4F6"/>
<rect x="64" y="41" width="1" height="1" fill="#2EC4F6"/>
<rect x="68" y="41" width="1" height="1" fill="#2EC4F6"/>
<rect x="77" y="41" width="1" height="1" fill="#2EC4F6"/>
<rect x="78" y="41" width="1" height="1" fill="#2EC4F6"/>
<rect x="79" y="41" width="1" height="1" fill="#2EC4F6"/>
<rect x="84" y="41" width="1" height="1" fill="#2EC4F6"/>
<rect x="88" y="41" width="1" height="1" fill="#2EC4F6"/>
<rect x="89" y="41" width="1" height="1" fill="#2EC4F6"/>
<rect x="90" y="41" width="1" height="1" fill="#2EC4F6"/>
<rect x="91" y="41" width="1" height="1" fill="#2EC4F6"/>
<rect x="92" y="41" width="1" height="1" fill="#2EC4F6"/>
<rect x="94" y="41" width="1" height="1" fill="#2EC4F6"/>
<rect x="95" y="41" width="1" height="1" fill="#2EC4F6"/>
<rect x="96" y="41" width="1" height="1" fill="#2EC4F6"/>
<rect x="97" y="41" width="1" height="1" fill="#2EC4F6"/>
<rect x="102" y="41" width="1" height="1" fill="#2EC4F6"/>
<rect x="22" y="42" width="1" height="1" fill="#2EC4F6"/>
<rect x="28" y="42" width="1" height="1" fill="#2EC4F6"/>
<rect x="30" y="42" width="1" height="1" fill="#2EC4F6"/>
<rect x="34" y="42" width="1" height="1" fill="#2EC4F6"/>
<rect x="44" y="42" width="1" height="1" fill="#2EC4F6"/>
<rect x="50" y="42" width="1" height="1" fill="#2EC4F6"/>
<rect x="60" y="42" width="1" height="1" fill="#2EC4F6"/>
<rect x="64" y="42" width="1" height="1" fill="#2EC4F6"/>
<rect x="68" y="42" width="1" height="1" fill="#2EC4F6"/>
<rect x="80" y="42" width="1" height="1" fill="#2EC4F6"/>
<rect x="84" y="42" width="1" height="1" fill="#2EC4F6"/>
<rect x="88" y="42" width="1" height="1" fill="#2EC4F6"/>
<rect x="92" y="42" width="1" height="1" fill="#2EC4F6"/>
<rect x="94" y="42" width="1" height="1" fill="#2EC4F6"/>
<rect x="96" y="42" width="1" height="1" fill="#2EC4F6"/>
<rect x="102" y="42" width="1" height="1" fill="#2EC4F6"/>
<rect x="22" y="43" width="1" height="1" fill="#2EC4F6"/>
<rect x="28" y="43" width="1" height="1" fill="#2EC4F6"/>
<rect x="31" y="43" width="1" height="1" fill="#2EC4F6"/>
<rect x="34" y="43" width="1" height="1" fill="#2EC4F6"/>
<rect x="44" y="43" width="1" height="1" fill="#2EC4F6"/>
<rect x="50" y="43" width="1" height="1" fill="#2EC4F6"/>
<rect x="60" y="43" width="1" height="1" fill="#2EC4F6"/>
<rect x="64" y="43" width="1" height="1" fill="#2EC4F6"/>
<rect x="68" y="43" width="1" height="1" fill="#2EC4F6"/>
<rect x="80" y="43" width="1" height="1" fill="#2EC4F6"/>
<rect x="84" y="43" width="1" height="1" fill="#2EC4F6"/>
<rect x="88" y="43" width="1" height="1" fill="#2EC4F6"/>
<rect x="92" y="43" width="1" height="1" fill="#2EC4F6"/>
<rect x="94" y="43" width="1" height="1" fill="#2EC4F6"/>
<rect x="97" y="43" width="1" height="1" fill="#2EC4F6"/>
<rect x="102" y="43" width="1" height="1" fill="#2EC4F6"/>
<rect x="22" y="44" width="1" height="1" fill="#2EC4F6"/>
<rect x="28" y="44" width="1" height="1" fill="#2EC4F6"/>
<rect x="32" y="44" width="1" height="1" fill="#2EC4F6"/>
<rect x="34" y="44" width="1" height="1" fill="#2EC4F6"/>
<rect x="35" y="44" width="1" height="1" fill="#2EC4F6"/>
<rect x="36" y="44" width="1" height="1" fill="#2EC4F6"/>
<rect x="37" y="44" width="1" height="1" fill="#2EC4F6"/>
<rect x="38" y="44" width="1" height="1" fill="#2EC4F6"/>
<rect x="40" y="44" width="1" height="1" fill="#2EC4F6"/>
<rect x="41" y="44" width="1" height="1" fill="#2EC4F6"/>
<rect x="42" y="44" width="1" height="1" fill="#2EC4F6"/>
<rect x="46" y="44" width="1" height="1" fill="#2EC4F6"/>
<rect x="47" y="44" width="1" height="1" fill="#2EC4F6"/>
<rect x="48" y="44" width="1" height="1" fill="#2EC4F6"/>
<rect x="60" y="44" width="1" height="1" fill="#2EC4F6"/>
<rect x="65" y="44" width="1" height="1" fill="#2EC4F6"/>
<rect x="66" y="44" width="1" height="1" fill="#2EC4F6"/>
<rect x="67" y="44" width="1" height="1" fill="#2EC4F6"/>
<rect x="76" y="44" width="1" height="1" fill="#2EC4F6"/>
<rect x="77" y="44" width="1" height="1" fill="#2EC4F6"/>
<rect x="78" y="44" width="1" height="1" fill="#2EC4F6"/>
<rect x="84" y="44" width="1" height="1" fill="#2EC4F6"/>
<rect x="88" y="44" width="1" height="1" fill="#2EC4F6"/>
<rect x="92" y="44" width="1" height="1" fill="#2EC4F6"/>
<rect x="94" y="44" width="1" height="1" fill="#2EC4F6"/>
<rect x="98" y="44" width="1" height="1" fill="#2EC4F6"/>
<rect x="102" y="44" width="1" height="1" fill="#2EC4F6"/>
</svg>
