<svg viewBox="0 0 128 64" width="128" height="64" xmlns="http://www.w3.org/2000/svg" shape-rendering="crispEdges">
<rect x="0" y="0" width="128" height="64" fill="#000000"/>
<rect x="20" y="6" width="1" height="1" fill="#2EC4F6"/>
<rect x="19" y="7" width="1" height="1" fill="#2EC4F6"/>
<rect x="21" y="7" width="1" height="1" fill="#2EC4F6"/>
<rect x="18" y="8" width="1" height="1" fill="#2EC4F6"/>
<rect x="22" y="8" width="1" height="1" fill="#2EC4F6"/>
<rect x="17" y="9" width="1" height="1" fill="#2EC4F6"/>
<rect x="20" y="9" width="1" height="1" fill="#2EC4F6"/>
<rect x="23" y="9" width="1" height="1" fill="#2EC4F6"/>
<rect x="16" y="10" width="1" height="1" fill="#2EC4F6"/>
<rect x="20" y="10" width="1" height="1" fill="#2EC4F6"/>
<rect x="24" y="10" width="1" height="1" fill="#2EC4F6"/>
<rect x="15" y="11" width="1" height="1" fill="#2EC4F6"/>
<rect x="20" y="11" width="1" height="1" fill="#2EC4F6"/>
<rect x="25" y="11" width="1" height="1" fill="#2EC4F6"/>
<rect x="14" y="12" width="1" height="1" fill="#2EC4F6"/>
<rect x="20" y="12" width="1" height="1" fill="#2EC4F6"/>
<rect x="26" y="12" width="1" height="1" fill="#2EC4F6"/>
<rect x="40" y="12" width="1" height="1" fill="#2EC4F6"/>
<rect x="47" y="12" width="1" height="1" fill="#2EC4F6"/>
<rect x="48" y="12" width="1" height="1" fill="#2EC4F6"/>
<rect x="49" y="12" width="1" height="1" fill="#2EC4F6"/>
<rect x="52" y="12" width="1" height="1" fill="#2EC4F6"/>
<rect x="56" y="12" width="1" height="1" fill="#2EC4F6"/>
<rect x="13" y="13" width="1" height="1" fill="#2EC4F6"/>
<rect x="20" y="13" width="1" height="1" fill="#2EC4F6"/>
<rect x="27" y="13" width="1" height="1" fill="#2EC4F6"/>
<rect x="40" y="13" width="1" height="1" fill="#2EC4F6"/>
<rect x="46" y="13" width="1" height="1" fill="#2EC4F6"/>
<rect x="50" y="13" width="1" height="1" fill="#2EC4F6"/>
<rect x="52" y="13" width="1" height="1" fill="#2EC4F6"/>
<rect x="56" y="13" width="1" height="1" fill="#2EC4F6"/>
<rect x="12" y="14" width="1" height="1" fill="#2EC4F6"/>
<rect x="28" y="14" width="1" height="1" fill="#2EC4F6"/>
<rect x="40" y="14" width="1" height="1" fill="#2EC4F6"/>
<rect x="46" y="14" width="1" height="1" fill="#2EC4F6"/>
<rect x="50" y="14" width="1" height="1" fill="#2EC4F6"/>
<rect x="52" y="14" width="1" height="1" fill="#2EC4F6"/>
<rect x="56" y="14" width="1" height="1" fill="#2EC4F6"/>
<rect x="11" y="15" width="1" height="1" fill="#2EC4F6"/>
<rect x="20" y="15" width="1" height="1" fill="#2EC4F6"/>
<rect x="29" y="15" width="1" height="1" fill="#2EC4F6"/>
<rect x="40" y="15" width="1" height="1" fill="#2EC4F6"/>
<rect x="46" y="15" width="1" height="1" fill="#2EC4F6"/>
<rect x="50" y="15" width="1" height="1" fill="#2EC4F6"/>
<rect x="52" y="15" width="1" height="1" fill="#2EC4F6"/>
<rect x="54" y="15" width="1" height="1" fill="#2EC4F6"/>
<rect x="56" y="15" width="1" height="1" fill="#2EC4F6"/>
<rect x="10" y="16" width="1" height="1" fill="#2EC4F6"/>
<rect x="30" y="16" width="1" height="1" fill="#2EC4F6"/>
<rect x="40" y="16" width="1" height="1" fill="#2EC4F6"/>
<rect x="46" y="16" width="1" height="1" fill="#2EC4F6"/>
<rect x="50" y="16" width="1" height="1" fill="#2EC4F6"/>
<rect x="52" y="16" width="1" height="1" fill="#2EC4F6"/>
<rect x="54" y="16" width="1" height="1" fill="#2EC4F6"/>
<rect x="56" y="16" width="1" height="1" fill="#2EC4F6"/>
<rect x="10" y="17" width="1" height="1" fill="#2EC4F6"/>
<rect x="11" y="17" width="1" height="1" fill="#2EC4F6"/>
<rect x="12" y="17" width="1" height="1" fill="#2EC4F6"/>
<rect x="13" y="17" width="1" height="1" fill="#2EC4F6"/>
<rect x="14" y="17" width="1" height="1" fill="#2EC4F6"/>
<rect x="15" y="17" width="1" height="1" fill="#2EC4F6"/>
<rect x="16" y="17" width="1" height="1" fill="#2EC4F6"/>
<rect x="17" y="17" width="1" height="1" fill="#2EC4F6"/>
<rect x="18" y="17" width="1" height="1" fill="#2EC4F6"/>
<rect x="19" y="17" width="1" height="1" fill="#2EC4F6"/>
<rect x="20" y="17" width="1" height="1" fill="#2EC4F6"/>
<rect x="21" y="17" width="1" height="1" fill="#2EC4F6"/>
<rect x="22" y="17" width="1" height="1" fill="#2EC4F6"/>
<rect x="23" y="17" width="1" height="1" fill="#2EC4F6"/>
<rect x="24" y="17" width="1" height="1" fill="#2EC4F6"/>
<rect x="25" y="17" width="1" height="1" fill="#2EC4F6"/>
<rect x="26" y="17" width="1" height="1" fill="#2EC4F6"/>
<rect x="27" y="17" width="1" height="1" fill="#2EC4F6"/>
<rect x="28" y="17" width="1" height="1" fill="#2EC4F6"/>
<rect x="29" y="17" width="1" height="1" fill="#2EC4F6"/>
<rect x="30" y="17" width="1" height="1" fill="#2EC4F6"/>
<rect x="40" y="17" width="1" height="1" fill="#2EC4F6"/>
<rect x="46" y="17" width="1" height="1" fill="#2EC4F6"/>
<rect x="50" y="17" width="1" height="1" fill="#2EC4F6"/>
<rect x="52" y="17" width="1" height="1" fill="#2EC4F6"/>
<rect x="53" y="17" width="1" height="1" fill="#2EC4F6"/>
<rect x="55" y="17" width="1" height="1" fill="#2EC4F6"/>
<rect x="56" y="17" width="1" height="1" fill="#2EC4F6"/>
<rect x="40" y="18" width="1" height="1" fill="#2EC4F6"/>
<rect x="41" y="18" width="1" height="1" fill="#2EC4F6"/>
<rect x="42" y="18" width="1" height="1" fill="#2EC4F6"/>
<rect x="43" y="18" width="1" height="1" fill="#2EC4F6"/>
<rect x="44" y="18" width="1" height="1" fill="#2EC4F6"/>
<rect x="47" y="18" width="1" height="1" fill="#2EC4F6"/>
<rect x="48" y="18" width="1" height="1" fill="#2EC4F6"/>
<rect x="49" y="18" width="1" height="1" fill="#2EC4F6"/>
<rect x="52" y="18" width="1" height="1" fill="#2EC4F6"/>
<rect x="56" y="18" width="1" height="1" fill="#2EC4F6"/>
<rect x="40" y="24" width="1" height="1" fill="#2EC4F6"/>
<rect x="41" y="24" width="1" height="1" fill="#2EC4F6"/>
<rect x="42" y="24" width="1" height="1" fill="#2EC4F6"/>
<rect x="43" y="24" width="1" height="1" fill="#2EC4F6"/>
<rect x="47" y="24" width="1" height="1" fill="#2EC4F6"/>
<rect x="48" y="24" width="1" height="1" fill="#2EC4F6"/>
<rect x="49" y="24" width="1" height="1" fill="#2EC4F6"/>
<rect x="52" y="24" width="1" height="1" fill="#2EC4F6"/>
<rect x="53" y="24" width="1" height="1" fill="#2EC4F6"/>
<rect x="54" y="24" width="1" height="1" fill="#2EC4F6"/>
<rect x="55" y="24" width="1" height="1" fill="#2EC4F6"/>
<rect x="56" y="24" width="1" height="1" fill="#2EC4F6"/>
<rect x="58" y="24" width="1" height="1" fill="#2EC4F6"/>
<rect x="59" y="24" width="1" height="1" fill="#2EC4F6"/>
<rect x="60" y="24" width="1" height="1" fill="#2EC4F6"/>
<rect x="61" y="24" width="1" height="1" fill="#2EC4F6"/>
<rect x="62" y="24" width="1" height="1" fill="#2EC4F6"/>
<rect x="64" y="24" width="1" height="1" fill="#2EC4F6"/>
<rect x="65" y="24" width="1" height="1" fill="#2EC4F6"/>
<rect x="66" y="24" width="1" height="1" fill="#2EC4F6"/>
<rect x="67" y="24" width="1" height="1" fill="#2EC4F6"/>
<rect x="68" y="24" width="1" height="1" fill="#2EC4F6"/>
<rect x="70" y="24" width="1" height="1" fill="#2EC4F6"/>
<rect x="71" y="24" width="1" height="1" fill="#2EC4F6"/>
<rect x="72" y="24" width="1" height="1" fill="#2EC4F6"/>
<rect x="73" y="24" width="1" height="1" fill="#2EC4F6"/>
<rect x="76" y="24" width="1" height="1" fill="#2EC4F6"/>
<rect x="80" y="24" width="1" height="1" fill="#2EC4F6"/>
<rect x="40" y="25" width="1" height="1" fill="#2EC4F6"/>
<rect x="44" y="25" width="1" height="1" fill="#2EC4F6"/>
<rect x="46" y="25" width="1" height="1" fill="#2EC4F6"/>
<rect x="50" y="25" width="1" height="1" fill="#2EC4F6"/>
<rect x="54" y="25" width="1" height="1" fill="#2EC4F6"/>
<rect x="60" y="25" width="1" height="1" fill="#2EC4F6"/>
<rect x="64" y="25" width="1" height="1" fill="#2EC4F6"/>
<rect x="70" y="25" width="1" height="1" fill="#2EC4F6"/>
<rect x="74" y="25" width="1" height="1" fill="#2EC4F6"/>
<rect x="76" y="25" width="1" height="1" fill="#2EC4F6"/>
<rect x="80" y="25" width="1" height="1" fill="#2EC4F6"/>
<rect x="40" y="26" width="1" height="1" fill="#2EC4F6"/>
<rect x="44" y="26" width="1" height="1" fill="#2EC4F6"/>
<rect x="46" y="26" width="1" height="1" fill="#2EC4F6"/>
<rect x="50" y="26" width="1" height="1" fill="#2EC4F6"/>
<rect x="54" y="26" width="1" height="1" fill="#2EC4F6"/>
<rect x="60" y="26" width="1" height="1" fill="#2EC4F6"/>
<rect x="64" y="26" width="1" height="1" fill="#2EC4F6"/>
<rect x="70" y="26" width="1" height="1" fill="#2EC4F6"/>
<rect x="74" y="26" width="1" height="1" fill="#2EC4F6"/>
<rect x="77" y="26" width="1" height="1" fill="#2EC4F6"/>
<rect x="79" y="26" width="1" height="1" fill="#2EC4F6"/>
<rect x="40" y="27" width="1" height="1" fill="#2EC4F6"/>
<rect x="41" y="27" width="1" height="1" fill="#2EC4F6"/>
<rect x="42" y="27" width="1" height="1" fill="#2EC4F6"/>
<rect x="43" y="27" width="1" height="1" fill="#2EC4F6"/>
<rect x="46" y="27" width="1" height="1" fill="#2EC4F6"/>
<rect x="47" y="27" width="1" height="1" fill="#2EC4F6"/>
<rect x="48" y="27" width="1" height="1" fill="#2EC4F6"/>
<rect x="49" y="27" width="1" height="1" fill="#2EC4F6"/>
<rect x="50" y="27" width="1" height="1" fill="#2EC4F6"/>
<rect x="54" y="27" width="1" height="1" fill="#2EC4F6"/>
<rect x="60" y="27" width="1" height="1" fill="#2EC4F6"/>
<rect x="64" y="27" width="1" height="1" fill="#2EC4F6"/>
<rect x="65" y="27" width="1" height="1" fill="#2EC4F6"/>
<rect x="66" y="27" width="1" height="1" fill="#2EC4F6"/>
<rect x="67" y="27" width="1" height="1" fill="#2EC4F6"/>
<rect x="70" y="27" width="1" height="1" fill="#2EC4F6"/>
<rect x="71" y="27" width="1" height="1" fill="#2EC4F6"/>
<rect x="72" y="27" width="1" height="1" fill="#2EC4F6"/>
<rect x="73" y="27" width="1" height="1" fill="#2EC4F6"/>
<rect x="78" y="27" width="1" height="1" fill="#2EC4F6"/>
<rect x="40" y="28" width="1" height="1" fill="#2EC4F6"/>
<rect x="44" y="28" width="1" height="1" fill="#2EC4F6"/>
<rect x="46" y="28" width="1" height="1" fill="#2EC4F6"/>
<rect x="50" y="28" width="1" height="1" fill="#2EC4F6"/>
<rect x="54" y="28" width="1" height="1" fill="#2EC4F6"/>
<rect x="60" y="28" width="1" height="1" fill="#2EC4F6"/>
<rect x="64" y="28" width="1" height="1" fill="#2EC4F6"/>
<rect x="70" y="28" width="1" height="1" fill="#2EC4F6"/>
<rect x="72" y="28" width="1" height="1" fill="#2EC4F6"/>
<rect x="78" y="28" width="1" height="1" fill="#2EC4F6"/>
<rect x="40" y="29" width="1" height="1" fill="#2EC4F6"/>
<rect x="44" y="29" width="1" height="1" fill="#2EC4F6"/>
<rect x="46" y="29" width="1" height="1" fill="#2EC4F6"/>
<rect x="50" y="29" width="1" height="1" fill="#2EC4F6"/>
<rect x="54" y="29" width="1" height="1" fill="#2EC4F6"/>
<rect x="60" y="29" width="1" height="1" fill="#2EC4F6"/>
<rect x="64" y="29" width="1" height="1" fill="#2EC4F6"/>
<rect x="70" y="29" width="1" height="1" fill="#2EC4F6"/>
<rect x="73" y="29" width="1" height="1" fill="#2EC4F6"/>
<rect x="78" y="29" width="1" height="1" fill="#2EC4F6"/>
<rect x="40" y="30" width="1" height="1" fill="#2EC4F6"/>
<rect x="41" y="30" width="1" height="1" fill="#2EC4F6"/>
<rect x="42" y="30" width="1" height="1" fill="#2EC4F6"/>
<rect x="43" y="30" width="1" height="1" fill="#2EC4F6"/>
<rect x="46" y="30" width="1" height="1" fill="#2EC4F6"/>
<rect x="50" y="30" width="1" height="1" fill="#2EC4F6"/>
<rect x="54" y="30" width="1" height="1" fill="#2EC4F6"/>
<rect x="60" y="30" width="1" height="1" fill="#2EC4F6"/>
<rect x="64" y="30" width="1" height="1" fill="#2EC4F6"/>
<rect x="65" y="30" width="1" height="1" fill="#2EC4F6"/>
<rect x="66" y="30" width="1" height="1" fill="#2EC4F6"/>
<rect x="67" y="30" width="1" height="1" fill="#2EC4F6"/>
<rect x="68" y="30" width="1" height="1" fill="#2EC4F6"/>
<rect x="70" y="30" width="1" height="1" fill="#2EC4F6"/>
<rect x="74" y="30" width="1" height="1" fill="#2EC4F6"/>
<rect x="78" y="30" width="1" height="1" fill="#2EC4F6"/>
</svg>
