<svg viewBox="0 0 128 64" width="128" height="64" xmlns="http://www.w3.org/2000/svg" shape-rendering="crispEdges">
<rect x="0" y="0" width="128" height="64" fill="#000000"/>
<rect x="118" y="2" width="1" height="1" fill="#2EC4F6"/>
<rect x="119" y="2" width="1" height="1" fill="#2EC4F6"/>
<rect x="120" y="2" width="1" height="1" fill="#2EC4F6"/>
<rect x="121" y="2" width="1" height="1" fill="#2EC4F6"/>
<rect x="118" y="3" width="1" height="1" fill="#2EC4F6"/>
<rect x="122" y="3" width="1" height="1" fill="#2EC4F6"/>
<rect x="118" y="4" width="1" height="1" fill="#2EC4F6"/>
<rect x="122" y="4" width="1" height="1" fill="#2EC4F6"/>
<rect x="118" y="5" width="1" height="1" fill="#2EC4F6"/>
<rect x="119" y="5" width="1" height="1" fill="#2EC4F6"/>
<rect x="120" y="5" width="1" height="1" fill="#2EC4F6"/>
<rect x="121" y="5" width="1" height="1" fill="#2EC4F6"/>
<rect x="118" y="6" width="1" height="1" fill="#2EC4F6"/>
<rect x="120" y="6" width="1" height="1" fill="#2EC4F6"/>
<rect x="118" y="7" width="1" height="1" fill="#2EC4F6"/>
<rect x="121" y="7" width="1" height="1" fill="#2EC4F6"/>
<rect x="118" y="8" width="1" height="1" fill="#2EC4F6"/>
<rect x="122" y="8" width="1" height="1" fill="#2EC4F6"/>
<rect x="22" y="16" width="1" height="1" fill="#2EC4F6"/>
<rect x="23" y="16" width="1" height="1" fill="#2EC4F6"/>
<rect x="24" y="16" width="1" height="1" fill="#2EC4F6"/>
<rect x="25" y="16" width="1" height="1" fill="#2EC4F6"/>
<rect x="29" y="16" width="1" height="1" fill="#2EC4F6"/>
<rect x="30" y="16" width="1" height="1" fill="#2EC4F6"/>
<rect x="31" y="16" width="1" height="1" fill="#2EC4F6"/>
<rect x="35" y="16" width="1" height="1" fill="#2EC4F6"/>
<rect x="36" y="16" width="1" height="1" fill="#2EC4F6"/>
<rect x="37" y="16" width="1" height="1" fill="#2EC4F6"/>
<rect x="40" y="16" width="1" height="1" fill="#2EC4F6"/>
<rect x="44" y="16" width="1" height="1" fill="#2EC4F6"/>
<rect x="46" y="16" width="1" height="1" fill="#2EC4F6"/>
<rect x="47" y="16" width="1" height="1" fill="#2EC4F6"/>
<rect x="48" y="16" width="1" height="1" fill="#2EC4F6"/>
<rect x="49" y="16" width="1" height="1" fill="#2EC4F6"/>
<rect x="50" y="16" width="1" height="1" fill="#2EC4F6"/>
<rect x="58" y="16" width="1" height="1" fill="#2EC4F6"/>
<rect x="59" y="16" width="1" height="1" fill="#2EC4F6"/>
<rect x="60" y="16" width="1" height="1" fill="#2EC4F6"/>
<rect x="61" y="16" width="1" height="1" fill="#2EC4F6"/>
<rect x="62" y="16" width="1" height="1" fill="#2EC4F6"/>
<rect x="65" y="16" width="1" height="1" fill="#2EC4F6"/>
<rect x="66" y="16" width="1" height="1" fill="#2EC4F6"/>
<rect x="67" y="16" width="1" height="1" fill="#2EC4F6"/>
<rect x="70" y="16" width="1" height="1" fill="#2EC4F6"/>
<rect x="71" y="16" width="1" height="1" fill="#2EC4F6"/>
<rect x="72" y="16" width="1" height="1" fill="#2EC4F6"/>
<rect x="73" y="16" width="1" height="1" fill="#2EC4F6"/>
<rect x="82" y="16" width="1" height="1" fill="#2EC4F6"/>
<rect x="86" y="16" width="1" height="1" fill="#2EC4F6"/>
<rect x="88" y="16" width="1" height="1" fill="#2EC4F6"/>
<rect x="89" y="16" width="1" height="1" fill="#2EC4F6"/>
<rect x="90" y="16" width="1" height="1" fill="#2EC4F6"/>
<rect x="91" y="16" width="1" height="1" fill="#2EC4F6"/>
<rect x="92" y="16" width="1" height="1" fill="#2EC4F6"/>
<rect x="94" y="16" width="1" height="1" fill="#2EC4F6"/>
<rect x="98" y="16" width="1" height="1" fill="#2EC4F6"/>
<rect x="100" y="16" width="1" height="1" fill="#2EC4F6"/>
<rect x="101" y="16" width="1" height="1" fill="#2EC4F6"/>
<rect x="102" y="16" width="1" height="1" fill="#2EC4F6"/>
<rect x="103" y="16" width="1" height="1" fill="#2EC4F6"/>
<rect x="104" y="16" width="1" height="1" fill="#2EC4F6"/>
<rect x="22" y="17" width="1" height="1" fill="#2EC4F6"/>
<rect x="26" y="17" width="1" height="1" fill="#2EC4F6"/>
<rect x="30" y="17" width="1" height="1" fill="#2EC4F6"/>
<rect x="34" y="17" width="1" height="1" fill="#2EC4F6"/>
<rect x="38" y="17" width="1" height="1" fill="#2EC4F6"/>
<rect x="40" y="17" width="1" height="1" fill="#2EC4F6"/>
<rect x="44" y="17" width="1" height="1" fill="#2EC4F6"/>
<rect x="48" y="17" width="1" height="1" fill="#2EC4F6"/>
<rect x="58" y="17" width="1" height="1" fill="#2EC4F6"/>
<rect x="64" y="17" width="1" height="1" fill="#2EC4F6"/>
<rect x="68" y="17" width="1" height="1" fill="#2EC4F6"/>
<rect x="70" y="17" width="1" height="1" fill="#2EC4F6"/>
<rect x="74" y="17" width="1" height="1" fill="#2EC4F6"/>
<rect x="82" y="17" width="1" height="1" fill="#2EC4F6"/>
<rect x="83" y="17" width="1" height="1" fill="#2EC4F6"/>
<rect x="86" y="17" width="1" height="1" fill="#2EC4F6"/>
<rect x="88" y="17" width="1" height="1" fill="#2EC4F6"/>
<rect x="94" y="17" width="1" height="1" fill="#2EC4F6"/>
<rect x="98" y="17" width="1" height="1" fill="#2EC4F6"/>
<rect x="102" y="17" width="1" height="1" fill="#2EC4F6"/>
<rect x="22" y="18" width="1" height="1" fill="#2EC4F6"/>
<rect x="26" y="18" width="1" height="1" fill="#2EC4F6"/>
<rect x="30" y="18" width="1" height="1" fill="#2EC4F6"/>
<rect x="34" y="18" width="1" height="1" fill="#2EC4F6"/>
<rect x="40" y="18" width="1" height="1" fill="#2EC4F6"/>
<rect x="44" y="18" width="1" height="1" fill="#2EC4F6"/>
<rect x="48" y="18" width="1" height="1" fill="#2EC4F6"/>
<rect x="58" y="18" width="1" height="1" fill="#2EC4F6"/>
<rect x="64" y="18" width="1" height="1" fill="#2EC4F6"/>
<rect x="68" y="18" width="1" height="1" fill="#2EC4F6"/>
<rect x="70" y="18" width="1" height="1" fill="#2EC4F6"/>
<rect x="74" y="18" width="1" height="1" fill="#2EC4F6"/>
<rect x="82" y="18" width="1" height="1" fill="#2EC4F6"/>
<rect x="84" y="18" width="1" height="1" fill="#2EC4F6"/>
<rect x="86" y="18" width="1" height="1" fill="#2EC4F6"/>
<rect x="88" y="18" width="1" height="1" fill="#2EC4F6"/>
<rect x="95" y="18" width="1" height="1" fill="#2EC4F6"/>
<rect x="97" y="18" width="1" height="1" fill="#2EC4F6"/>
<rect x="102" y="18" width="1" height="1" fill="#2EC4F6"/>
<rect x="22" y="19" width="1" height="1" fill="#2EC4F6"/>
<rect x="23" y="19" width="1" height="1" fill="#2EC4F6"/>
<rect x="24" y="19" width="1" height="1" fill="#2EC4F6"/>
<rect x="25" y="19" width="1" height="1" fill="#2EC4F6"/>
<rect x="30" y="19" width="1" height="1" fill="#2EC4F6"/>
<rect x="34" y="19" width="1" height="1" fill="#2EC4F6"/>
<rect x="36" y="19" width="1" height="1" fill="#2EC4F6"/>
<rect x="37" y="19" width="1" height="1" fill="#2EC4F6"/>
<rect x="38" y="19" width="1" height="1" fill="#2EC4F6"/>
<rect x="40" y="19" width="1" height="1" fill="#2EC4F6"/>
<rect x="41" y="19" width="1" height="1" fill="#2EC4F6"/>
<rect x="42" y="19" width="1" height="1" fill="#2EC4F6"/>
<rect x="43" y="19" width="1" height="1" fill="#2EC4F6"/>
<rect x="44" y="19" width="1" height="1" fill="#2EC4F6"/>
<rect x="48" y="19" width="1" height="1" fill="#2EC4F6"/>
<rect x="58" y="19" width="1" height="1" fill="#2EC4F6"/>
<rect x="59" y="19" width="1" height="1" fill="#2EC4F6"/>
<rect x="60" y="19" width="1" height="1" fill="#2EC4F6"/>
<rect x="61" y="19" width="1" height="1" fill="#2EC4F6"/>
<rect x="64" y="19" width="1" height="1" fill="#2EC4F6"/>
<rect x="65" y="19" width="1" height="1" fill="#2EC4F6"/>
<rect x="66" y="19" width="1" height="1" fill="#2EC4F6"/>
<rect x="67" y="19" width="1" height="1" fill="#2EC4F6"/>
<rect x="68" y="19" width="1" height="1" fill="#2EC4F6"/>
<rect x="70" y="19" width="1" height="1" fill="#2EC4F6"/>
<rect x="71" y="19" width="1" height="1" fill="#2EC4F6"/>
<rect x="72" y="19" width="1" height="1" fill="#2EC4F6"/>
<rect x="73" y="19" width="1" height="1" fill="#2EC4F6"/>
<rect x="82" y="19" width="1" height="1" fill="#2EC4F6"/>
<rect x="84" y="19" width="1" height="1" fill="#2EC4F6"/>
<rect x="86" y="19" width="1" height="1" fill="#2EC4F6"/>
<rect x="88" y="19" width="1" height="1" fill="#2EC4F6"/>
<rect x="89" y="19" width="1" height="1" fill="#2EC4F6"/>
<rect x="90" y="19" width="1" height="1" fill="#2EC4F6"/>
<rect x="91" y="19" width="1" height="1" fill="#2EC4F6"/>
<rect x="96" y="19" width="1" height="1" fill="#2EC4F6"/>
<rect x="102" y="19" width="1" height="1" fill="#2EC4F6"/>
<rect x="22" y="20" width="1" height="1" fill="#2EC4F6"/>
<rect x="24" y="20" width="1" height="1" fill="#2EC4F6"/>
<rect x="30" y="20" width="1" height="1" fill="#2EC4F6"/>
<rect x="34" y="20" width="1" height="1" fill="#2EC4F6"/>
<rect x="38" y="20" width="1" height="1" fill="#2EC4F6"/>
<rect x="40" y="20" width="1" height="1" fill="#2EC4F6"/>
<rect x="44" y="20" width="1" height="1" fill="#2EC4F6"/>
<rect x="48" y="20" width="1" height="1" fill="#2EC4F6"/>
<rect x="58" y="20" width="1" height="1" fill="#2EC4F6"/>
<rect x="64" y="20" width="1" height="1" fill="#2EC4F6"/>
<rect x="68" y="20" width="1" height="1" fill="#2EC4F6"/>
<rect x="70" y="20" width="1" height="1" fill="#2EC4F6"/>
<rect x="72" y="20" width="1" height="1" fill="#2EC4F6"/>
<rect x="82" y="20" width="1" height="1" fill="#2EC4F6"/>
<rect x="85" y="20" width="1" height="1" fill="#2EC4F6"/>
<rect x="86" y="20" width="1" height="1" fill="#2EC4F6"/>
<rect x="88" y="20" width="1" height="1" fill="#2EC4F6"/>
<rect x="95" y="20" width="1" height="1" fill="#2EC4F6"/>
<rect x="97" y="20" width="1" height="1" fill="#2EC4F6"/>
<rect x="102" y="20" width="1" height="1" fill="#2EC4F6"/>
<rect x="22" y="21" width="1" height="1" fill="#2EC4F6"/>
<rect x="25" y="21" width="1" height="1" fill="#2EC4F6"/>
<rect x="30" y="21" width="1" height="1" fill="#2EC4F6"/>
<rect x="34" y="21" width="1" height="1" fill="#2EC4F6"/>
<rect x="38" y="21" width="1" height="1" fill="#2EC4F6"/>
<rect x="40" y="21" width="1" height="1" fill="#2EC4F6"/>
<rect x="44" y="21" width="1" height="1" fill="#2EC4F6"/>
<rect x="48" y="21" width="1" height="1" fill="#2EC4F6"/>
<rect x="58" y="21" width="1" height="1" fill="#2EC4F6"/>
<rect x="64" y="21" width="1" height="1" fill="#2EC4F6"/>
<rect x="68" y="21" width="1" height="1" fill="#2EC4F6"/>
<rect x="70" y="21" width="1" height="1" fill="#2EC4F6"/>
<rect x="73" y="21" width="1" height="1" fill="#2EC4F6"/>
<rect x="82" y="21" width="1" height="1" fill="#2EC4F6"/>
<rect x="86" y="21" width="1" height="1" fill="#2EC4F6"/>
<rect x="88" y="21" width="1" height="1" fill="#2EC4F6"/>
<rect x="94" y="21" width="1" height="1" fill="#2EC4F6"/>
<rect x="98" y="21" width="1" height="1" fill="#2EC4F6"/>
<rect x="102" y="21" width="1" height="1" fill="#2EC4F6"/>
<rect x="22" y="22" width="1" height="1" fill="#2EC4F6"/>
<rect x="26" y="22" width="1" height="1" fill="#2EC4F6"/>
<rect x="29" y="22" width="1" height="1" fill="#2EC4F6"/>
<rect x="30" y="22" width="1" height="1" fill="#2EC4F6"/>
<rect x="31" y="22" width="1" height="1" fill="#2EC4F6"/>
<rect x="35" y="22" width="1" height="1" fill="#2EC4F6"/>
<rect x="36" y="22" width="1" height="1" fill="#2EC4F6"/>
<rect x="37" y="22" width="1" height="1" fill="#2EC4F6"/>
<rect x="40" y="22" width="1" height="1" fill="#2EC4F6"/>
<rect x="44" y="22" width="1" height="1" fill="#2EC4F6"/>
<rect x="48" y="22" width="1" height="1" fill="#2EC4F6"/>
<rect x="58" y="22" width="1" height="1" fill="#2EC4F6"/>
<rect x="59" y="22" width="1" height="1" fill="#2EC4F6"/>
<rect x="60" y="22" width="1" height="1" fill="#2EC4F6"/>
<rect x="61" y="22" width="1" height="1" fill="#2EC4F6"/>
<rect x="62" y="22" width="1" height="1" fill="#2EC4F6"/>
<rect x="64" y="22" width="1" height="1" fill="#2EC4F6"/>
<rect x="68" y="22" width="1" height="1" fill="#2EC4F6"/>
<rect x="70" y="22" width="1" height="1" fill="#2EC4F6"/>
<rect x="74" y="22" width="1" height="1" fill="#2EC4F6"/>
<rect x="82" y="22" width="1" height="1" fill="#2EC4F6"/>
<rect x="86" y="22" width="1" height="1" fill="#2EC4F6"/>
<rect x="88" y="22" width="1" height="1" fill="#2EC4F6"/>
<rect x="89" y="22" width="1" height="1" fill="#2EC4F6"/>
<rect x="90" y="22" width="1" height="1" fill="#2EC4F6"/>
<rect x="91" y="22" width="1" height="1" fill="#2EC4F6"/>
<rect x="92" y="22" width="1" height="1" fill="#2EC4F6"/>
<rect x="94" y="22" width="1" height="1" fill="#2EC4F6"/>
<rect x="98" y="22" width="1" height="1" fill="#2EC4F6"/>
<rect x="102" y="22" width="1" height="1" fill="#2EC4F6"/>
<rect x="22" y="40" width="1" height="1" fill="#2EC4F6"/>
<rect x="23" y="40" width="1" height="1" fill="#2EC4F6"/>
<rect x="24" y="40" width="1" height="1" fill="#2EC4F6"/>
<rect x="25" y="40" width="1" height="1" fill="#2EC4F6"/>
<rect x="28" y="40" width="1" height="1" fill="#2EC4F6"/>
<rect x="29" y="40" width="1" height="1" fill="#2EC4F6"/>
<rect x="30" y="40" width="1" height="1" fill="#2EC4F6"/>
<rect x="31" y="40" width="1" height="1" fill="#2EC4F6"/>
<rect x="34" y="40" width="1" height="1" fill="#2EC4F6"/>
<rect x="35" y="40" width="1" height="1" fill="#2EC4F6"/>
<rect x="36" y="40" width="1" height="1" fill="#2EC4F6"/>
<rect x="37" y="40" width="1" height="1" fill="#2EC4F6"/>
<rect x="38" y="40" width="1" height="1" fill="#2EC4F6"/>
<rect x="41" y="40" width="1" height="1" fill="#2EC4F6"/>
<rect x="42" y="40" width="1" height="1" fill="#2EC4F6"/>
<rect x="43" y="40" width="1" height="1" fill="#2EC4F6"/>
<rect x="47" y="40" width="1" height="1" fill="#2EC4F6"/>
<rect x="48" y="40" width="1" height="1" fill="#2EC4F6"/>
<rect x="49" y="40" width="1" height="1" fill="#2EC4F6"/>
<rect x="58" y="40" width="1" height="1" fill="#2EC4F6"/>
<rect x="59" y="40" width="1" height="1" fill="#2EC4F6"/>
<rect x="60" y="40" width="1" height="1" fill="#2EC4F6"/>
<rect x="61" y="40" width="1" height="1" fill="#2EC4F6"/>
<rect x="62" y="40" width="1" height="1" fill="#2EC4F6"/>
<rect x="65" y="40" width="1" height="1" fill="#2EC4F6"/>
<rect x="66" y="40" width="1" height="1" fill="#2EC4F6"/>
<rect x="67" y="40" width="1" height="1" fill="#2EC4F6"/>
<rect x="77" y="40" width="1" height="1" fill="#2EC4F6"/>
<rect x="78" y="40" width="1" height="1" fill="#2EC4F6"/>
<rect x="79" y="40" width="1" height="1" fill="#2EC4F6"/>
<rect x="82" y="40" width="1" height="1" fill="#2EC4F6"/>
<rect x="83" y="40" width="1" height="1" fill="#2EC4F6"/>
<rect x="84" y="40" width="1" height="1" fill="#2EC4F6"/>
<rect x="85" y="40" width="1" height="1" fill="#2EC4F6"/>
<rect x="86" y="40" width="1" height="1" fill="#2EC4F6"/>
<rect x="89" y="40" width="1" height="1" fill="#2EC4F6"/>
<rect x="90" y="40" width="1" height="1" fill="#2EC4F6"/>
<rect x="91" y="40" width="1" height="1" fill="#2EC4F6"/>
<rect x="94" y="40" width="1" height="1" fill="#2EC4F6"/>
<rect x="95" y="40" width="1" height="1" fill="#2EC4F6"/>
<rect x="96" y="40" width="1" height="1" fill="#2EC4F6"/>
<rect x="97" y="40" width="1" height="1" fill="#2EC4F6"/>
<rect x="100" y="40" width="1" height="1" fill="#2EC4F6"/>
<rect x="101" y="40" width="1" height="1" fill="#2EC4F6"/>
<rect x="102" y="40" width="1" height="1" fill="#2EC4F6"/>
<rect x="103" y="40" width="1" height="1" fill="#2EC4F6"/>
<rect x="104" y="40" width="1" height="1" fill="#2EC4F6"/>
<rect x="22" y="41" width="1" height="1" fill="#2EC4F6"/>
<rect x="26" y="41" width="1" height="1" fill="#2EC4F6"/>
<rect x="28" y="41" width="1" height="1" fill="#2EC4F6"/>
<rect x="32" y="41" width="1" height="1" fill="#2EC4F6"/>
<rect x="34" y="41" width="1" height="1" fill="#2EC4F6"/>
<rect x="40" y="41" width="1" height="1" fill="#2EC4F6"/>
<rect x="46" y="41" width="1" height="1" fill="#2EC4F6"/>
<rect x="60" y="41" width="1" height="1" fill="#2EC4F6"/>
<rect x="64" y="41" width="1" height="1" fill="#2EC4F6"/>
<rect x="68" y="41" width="1" height="1" fill="#2EC4F6"/>
<rect x="76" y="41" width="1" height="1" fill="#2EC4F6"/>
<rect x="84" y="41" width="1" height="1" fill="#2EC4F6"/>
<rect x="88" y="41" width="1" height="1" fill="#2EC4F6"/>
<rect x="92" y="41" width="1" height="1" fill="#2EC4F6"/>
<rect x="94" y="41" width="1" height="1" fill="#2EC4F6"/>
<rect x="98" y="41" width="1" height="1" fill="#2EC4F6"/>
<rect x="102" y="41" width="1" height="1" fill="#2EC4F6"/>
<rect x="22" y="42" width="1" height="1" fill="#2EC4F6"/>
<rect x="26" y="42" width="1" height="1" fill="#2EC4F6"/>
<rect x="28" y="42" width="1" height="1" fill="#2EC4F6"/>
<rect x="32" y="42" width="1" height="1" fill="#2EC4F6"/>
<rect x="34" y="42" width="1" height="1" fill="#2EC4F6"/>
<rect x="40" y="42" width="1" height="1" fill="#2EC4F6"/>
<rect x="46" y="42" width="1" height="1" fill="#2EC4F6"/>
<rect x="60" y="42" width="1" height="1" fill="#2EC4F6"/>
<rect x="64" y="42" width="1" height="1" fill="#2EC4F6"/>
<rect x="68" y="42" width="1" height="1" fill="#2EC4F6"/>
<rect x="76" y="42" width="1" height="1" fill="#2EC4F6"/>
<rect x="84" y="42" width="1" height="1" fill="#2EC4F6"/>
<rect x="88" y="42" width="1" height="1" fill="#2EC4F6"/>
<rect x="92" y="42" width="1" height="1" fill="#2EC4F6"/>
<rect x="94" y="42" width="1" height="1" fill="#2EC4F6"/>
<rect x="98" y="42" width="1" height="1" fill="#2EC4F6"/>
<rect x="102" y="42" width="1" height="1" fill="#2EC4F6"/>
<rect x="22" y="43" width="1" height="1" fill="#2EC4F6"/>
<rect x="23" y="43" width="1" height="1" fill="#2EC4F6"/>
<rect x="24" y="43" width="1" height="1" fill="#2EC4F6"/>
<rect x="25" y="43" width="1" height="1" fill="#2EC4F6"/>
<rect x="28" y="43" width="1" height="1" fill="#2EC4F6"/>
<rect x="29" y="43" width="1" height="1" fill="#2EC4F6"/>
<rect x="30" y="43" width="1" height="1" fill="#2EC4F6"/>
<rect x="31" y="43" width="1" height="1" fill="#2EC4F6"/>
<rect x="34" y="43" width="1" height="1" fill="#2EC4F6"/>
<rect x="35" y="43" width="1" height="1" fill="#2EC4F6"/>
<rect x="36" y="43" width="1" height="1" fill="#2EC4F6"/>
<rect x="37" y="43" width="1" height="1" fill="#2EC4F6"/>
<rect x="41" y="43" width="1" height="1" fill="#2EC4F6"/>
<rect x="42" y="43" width="1" height="1" fill="#2EC4F6"/>
<rect x="43" y="43" width="1" height="1" fill="#2EC4F6"/>
<rect x="47" y="43" width="1" height="1" fill="#2EC4F6"/>
<rect x="48" y="43" width="1" height="1" fill="#2EC4F6"/>
<rect x="49" y="43" width="1" height="1" fill="#2EC4F6"/>
<rect x="60" y="43" width="1" height="1" fill="#2EC4F6"/>
<rect x="64" y="43" width="1" height="1" fill="#2EC4F6"/>
<rect x="68" y="43" width="1" height="1" fill="#2EC4F6"/>
<rect x="77" y="43" width="1" height="1" fill="#2EC4F6"/>
<rect x="78" y="43" width="1" height="1" fill="#2EC4F6"/>
<rect x="79" y="43" width="1" height="1" fill="#2EC4F6"/>
<rect x="84" y="43" width="1" height="1" fill="#2EC4F6"/>
<rect x="88" y="43" width="1" height="1" fill="#2EC4F6"/>
<rect x="89" y="43" width="1" height="1" fill="#2EC4F6"/>
<rect x="90" y="43" width="1" height="1" fill="#2EC4F6"/>
<rect x="91" y="43" width="1" height="1" fill="#2EC4F6"/>
<rect x="92" y="43" width="1" height="1" fill="#2EC4F6"/>
<rect x="94" y="43" width="1" height="1" fill="#2EC4F6"/>
<rect x="95" y="43" width="1" height="1" fill="#2EC4F6"/>
<rect x="96" y="43" width="1" height="1" fill="#2EC4F6"/>
<rect x="97" y="43" width="1" height="1" fill="#2EC4F6"/>
<rect x="102" y="43" width="1" height="1" fill="#2EC4F6"/>
<rect x="22" y="44" width="1" height="1" fill="#2EC4F6"/>
<rect x="28" y="44" width="1" height="1" fill="#2EC4F6"/>
<rect x="30" y="44" width="1" height="1" fill="#2EC4F6"/>
<rect x="34" y="44" width="1" height="1" fill="#2EC4F6"/>
<rect x="44" y="44" width="1" height="1" fill="#2EC4F6"/>
<rect x="50" y="44" width="1" height="1" fill="#2EC4F6"/>
<rect x="60" y="44" width="1" height="1" fill="#2EC4F6"/>
<rect x="64" y="44" width="1" height="1" fill="#2EC4F6"/>
<rect x="68" y="44" width="1" height="1" fill="#2EC4F6"/>
<rect x="80" y="44" width="1" height="1" fill="#2EC4F6"/>
<rect x="84" y="44" width="1" height="1" fill="#2EC4F6"/>
<rect x="88" y="44" width="1" height="1" fill="#2EC4F6"/>
<rect x="92" y="44" width="1" height="1" fill="#2EC4F6"/>
<rect x="94" y="44" width="1" height="1" fill="#2EC4F6"/>
<rect x="96" y="44" width="1" height="1" fill="#2EC4F6"/>
<rect x="102" y="44" width="1" height="1" fill="#2EC4F6"/>
<rect x="22" y="45" width="1" height="1" fill="#2EC4F6"/>
<rect x="28" y="45" width="1" height="1" fill="#2EC4F6"/>
<rect x="31" y="45" width="1" height="1" fill="#2EC4F6"/>
<rect x="34" y="45" width="1" height="1" fill="#2EC4F6"/>
<rect x="44" y="45" width="1" height="1" fill="#2EC4F6"/>
<rect x="50" y="45" width="1" height="1" fill="#2EC4F6"/>
<rect x="60" y="45" width="1" height="1" fill="#2EC4F6"/>
<rect x="64" y="45" width="1" height="1" fill="#2EC4F6"/>
<rect x="68" y="45" width="1" height="1" fill="#2EC4F6"/>
<rect x="80" y="45" width="1" height="1" fill="#2EC4F6"/>
<rect x="84" y="45" width="1" height="1" fill="#2EC4F6"/>
<rect x="88" y="45" width="1" height="1" fill="#2EC4F6"/>
<rect x="92" y="45" width="1" height="1" fill="#2EC4F6"/>
<rect x="94" y="45" width="1" height="1" fill="#2EC4F6"/>
<rect x="97" y="45" width="1" height="1" fill="#2EC4F6"/>
<rect x="102" y="45" width="1" height="1" fill="#2EC4F6"/>
<rect x="22" y="46" width="1" height="1" fill="#2EC4F6"/>
<rect x="28" y="46" width="1" height="1" fill="#2EC4F6"/>
<rect x="32" y="46" width="1" height="1" fill="#2EC4F6"/>
<rect x="34" y="46" width="1" height="1" fill="#2EC4F6"/>
<rect x="35" y="46" width="1" height="1" fill="#2EC4F6"/>
<rect x="36" y="46" width="1" height="1" fill="#2EC4F6"/>
<rect x="37" y="46" width="1" height="1" fill="#2EC4F6"/>
<rect x="38" y="46" width="1" height="1" fill="#2EC4F6"/>
<rect x="40" y="46" width="1" height="1" fill="#2EC4F6"/>
<rect x="41" y="46" width="1" height="1" fill="#2EC4F6"/>
<rect x="42" y="46" width="1" height="1" fill="#2EC4F6"/>
<rect x="46" y="46" width="1" height="1" fill="#2EC4F6"/>
<rect x="47" y="46" width="1" height="1" fill="#2EC4F6"/>
<rect x="48" y="46" width="1" height="1" fill="#2EC4F6"/>
<rect x="60" y="46" width="1" height="1" fill="#2EC4F6"/>
<rect x="65" y="46" width="1" height="1" fill="#2EC4F6"/>
<rect x="66" y="46" width="1" height="1" fill="#2EC4F6"/>
<rect x="67" y="46" width="1" height="1" fill="#2EC4F6"/>
<rect x="76" y="46" width="1" height="1" fill="#2EC4F6"/>
<rect x="77" y="46" width="1" height="1" fill="#2EC4F6"/>
<rect x="78" y="46" width="1" height="1" fill="#2EC4F6"/>
<rect x="84" y="46" width="1" height="1" fill="#2EC4F6"/>
<rect x="88" y="46" width="1" height="1" fill="#2EC4F6"/>
<rect x="92" y="46" width="1" height="1" fill="#2EC4F6"/>
<rect x="94" y="46" width="1" height="1" fill="#2EC4F6"/>
<rect x="98" y="46" width="1" height="1" fill="#2EC4F6"/>
<rect x="102" y="46" width="1" height="1" fill="#2EC4F6"/>
</svg>
