<svg viewBox="0 0 128 64" width="128" height="64" xmlns="http://www.w3.org/2000/svg" shape-rendering="crispEdges">
<rect x="0" y="0" width="128" height="64" fill="#000000"/>
<rect x="57" y="4" width="1" height="1" fill="#2EC4F6"/>
<rect x="69" y="4" width="1" height="1" fill="#2EC4F6"/>
<rect x="58" y="5" width="1" height="1" fill="#2EC4F6"/>
<rect x="68" y="5" width="1" height="1" fill="#2EC4F6"/>
<rect x="59" y="6" width="1" height="1" fill="#2EC4F6"/>
<rect x="67" y="6" width="1" height="1" fill="#2EC4F6"/>
<rect x="60" y="7" width="1" height="1" fill="#2EC4F6"/>
<rect x="66" y="7" width="1" height="1" fill="#2EC4F6"/>
<rect x="61" y="8" width="1" height="1" fill="#2EC4F6"/>
<rect x="65" y="8" width="1" height="1" fill="#2EC4F6"/>
<rect x="62" y="9" width="1" height="1" fill="#2EC4F6"/>
<rect x="64" y="9" width="1" height="1" fill="#2EC4F6"/>
<rect x="63" y="10" width="1" height="1" fill="#2EC4F6"/>
<rect x="62" y="11" width="1" height="1" fill="#2EC4F6"/>
<rect x="64" y="11" width="1" height="1" fill="#2EC4F6"/>
<rect x="61" y="12" width="1" height="1" fill="#2EC4F6"/>
<rect x="65" y="12" width="1" height="1" fill="#2EC4F6"/>
<rect x="60" y="13" width="1" height="1" fill="#2EC4F6"/>
<rect x="66" y="13" width="1" height="1" fill="#2EC4F6"/>
<rect x="59" y="14" width="1" height="1" fill="#2EC4F6"/>
<rect x="67" y="14" width="1" height="1" fill="#2EC4F6"/>
<rect x="58" y="15" width="1" height="1" fill="#2EC4F6"/>
<rect x="68" y="15" width="1" height="1" fill="#2EC4F6"/>
<rect x="57" y="16" width="1" height="1" fill="#2EC4F6"/>
<rect x="69" y="16" width="1" height="1" fill="#2EC4F6"/>
<rect x="29" y="24" width="1" height="1" fill="#2EC4F6"/>
<rect x="30" y="24" width="1" height="1" fill="#2EC4F6"/>
<rect x="31" y="24" width="1" height="1" fill="#2EC4F6"/>
<rect x="34" y="24" width="1" height="1" fill="#2EC4F6"/>
<rect x="35" y="24" width="1" height="1" fill="#2EC4F6"/>
<rect x="36" y="24" width="1" height="1" fill="#2EC4F6"/>
<rect x="37" y="24" width="1" height="1" fill="#2EC4F6"/>
<rect x="38" y="24" width="1" height="1" fill="#2EC4F6"/>
<rect x="40" y="24" width="1" height="1" fill="#2EC4F6"/>
<rect x="44" y="24" width="1" height="1" fill="#2EC4F6"/>
<rect x="47" y="24" width="1" height="1" fill="#2EC4F6"/>
<rect x="48" y="24" width="1" height="1" fill="#2EC4F6"/>
<rect x="49" y="24" width="1" height="1" fill="#2EC4F6"/>
<rect x="53" y="24" width="1" height="1" fill="#2EC4F6"/>
<rect x="54" y="24" width="1" height="1" fill="#2EC4F6"/>
<rect x="55" y="24" width="1" height="1" fill="#2EC4F6"/>
<rect x="58" y="24" width="1" height="1" fill="#2EC4F6"/>
<rect x="59" y="24" width="1" height="1" fill="#2EC4F6"/>
<rect x="60" y="24" width="1" height="1" fill="#2EC4F6"/>
<rect x="61" y="24" width="1" height="1" fill="#2EC4F6"/>
<rect x="70" y="24" width="1" height="1" fill="#2EC4F6"/>
<rect x="71" y="24" width="1" height="1" fill="#2EC4F6"/>
<rect x="72" y="24" width="1" height="1" fill="#2EC4F6"/>
<rect x="73" y="24" width="1" height="1" fill="#2EC4F6"/>
<rect x="74" y="24" width="1" height="1" fill="#2EC4F6"/>
<rect x="76" y="24" width="1" height="1" fill="#2EC4F6"/>
<rect x="77" y="24" width="1" height="1" fill="#2EC4F6"/>
<rect x="78" y="24" width="1" height="1" fill="#2EC4F6"/>
<rect x="79" y="24" width="1" height="1" fill="#2EC4F6"/>
<rect x="82" y="24" width="1" height="1" fill="#2EC4F6"/>
<rect x="83" y="24" width="1" height="1" fill="#2EC4F6"/>
<rect x="84" y="24" width="1" height="1" fill="#2EC4F6"/>
<rect x="85" y="24" width="1" height="1" fill="#2EC4F6"/>
<rect x="89" y="24" width="1" height="1" fill="#2EC4F6"/>
<rect x="90" y="24" width="1" height="1" fill="#2EC4F6"/>
<rect x="91" y="24" width="1" height="1" fill="#2EC4F6"/>
<rect x="94" y="24" width="1" height="1" fill="#2EC4F6"/>
<rect x="95" y="24" width="1" height="1" fill="#2EC4F6"/>
<rect x="96" y="24" width="1" height="1" fill="#2EC4F6"/>
<rect x="97" y="24" width="1" height="1" fill="#2EC4F6"/>
<rect x="28" y="25" width="1" height="1" fill="#2EC4F6"/>
<rect x="34" y="25" width="1" height="1" fill="#2EC4F6"/>
<rect x="40" y="25" width="1" height="1" fill="#2EC4F6"/>
<rect x="41" y="25" width="1" height="1" fill="#2EC4F6"/>
<rect x="44" y="25" width="1" height="1" fill="#2EC4F6"/>
<rect x="46" y="25" width="1" height="1" fill="#2EC4F6"/>
<rect x="52" y="25" width="1" height="1" fill="#2EC4F6"/>
<rect x="56" y="25" width="1" height="1" fill="#2EC4F6"/>
<rect x="58" y="25" width="1" height="1" fill="#2EC4F6"/>
<rect x="62" y="25" width="1" height="1" fill="#2EC4F6"/>
<rect x="70" y="25" width="1" height="1" fill="#2EC4F6"/>
<rect x="76" y="25" width="1" height="1" fill="#2EC4F6"/>
<rect x="80" y="25" width="1" height="1" fill="#2EC4F6"/>
<rect x="82" y="25" width="1" height="1" fill="#2EC4F6"/>
<rect x="86" y="25" width="1" height="1" fill="#2EC4F6"/>
<rect x="88" y="25" width="1" height="1" fill="#2EC4F6"/>
<rect x="92" y="25" width="1" height="1" fill="#2EC4F6"/>
<rect x="94" y="25" width="1" height="1" fill="#2EC4F6"/>
<rect x="98" y="25" width="1" height="1" fill="#2EC4F6"/>
<rect x="28" y="26" width="1" height="1" fill="#2EC4F6"/>
<rect x="34" y="26" width="1" height="1" fill="#2EC4F6"/>
<rect x="40" y="26" width="1" height="1" fill="#2EC4F6"/>
<rect x="42" y="26" width="1" height="1" fill="#2EC4F6"/>
<rect x="44" y="26" width="1" height="1" fill="#2EC4F6"/>
<rect x="46" y="26" width="1" height="1" fill="#2EC4F6"/>
<rect x="52" y="26" width="1" height="1" fill="#2EC4F6"/>
<rect x="56" y="26" width="1" height="1" fill="#2EC4F6"/>
<rect x="58" y="26" width="1" height="1" fill="#2EC4F6"/>
<rect x="62" y="26" width="1" height="1" fill="#2EC4F6"/>
<rect x="70" y="26" width="1" height="1" fill="#2EC4F6"/>
<rect x="76" y="26" width="1" height="1" fill="#2EC4F6"/>
<rect x="80" y="26" width="1" height="1" fill="#2EC4F6"/>
<rect x="82" y="26" width="1" height="1" fill="#2EC4F6"/>
<rect x="86" y="26" width="1" height="1" fill="#2EC4F6"/>
<rect x="88" y="26" width="1" height="1" fill="#2EC4F6"/>
<rect x="92" y="26" width="1" height="1" fill="#2EC4F6"/>
<rect x="94" y="26" width="1" height="1" fill="#2EC4F6"/>
<rect x="98" y="26" width="1" height="1" fill="#2EC4F6"/>
<rect x="29" y="27" width="1" height="1" fill="#2EC4F6"/>
<rect x="30" y="27" width="1" height="1" fill="#2EC4F6"/>
<rect x="31" y="27" width="1" height="1" fill="#2EC4F6"/>
<rect x="34" y="27" width="1" height="1" fill="#2EC4F6"/>
<rect x="35" y="27" width="1" height="1" fill="#2EC4F6"/>
<rect x="36" y="27" width="1" height="1" fill="#2EC4F6"/>
<rect x="37" y="27" width="1" height="1" fill="#2EC4F6"/>
<rect x="40" y="27" width="1" height="1" fill="#2EC4F6"/>
<rect x="42" y="27" width="1" height="1" fill="#2EC4F6"/>
<rect x="44" y="27" width="1" height="1" fill="#2EC4F6"/>
<rect x="47" y="27" width="1" height="1" fill="#2EC4F6"/>
<rect x="48" y="27" width="1" height="1" fill="#2EC4F6"/>
<rect x="49" y="27" width="1" height="1" fill="#2EC4F6"/>
<rect x="52" y="27" width="1" height="1" fill="#2EC4F6"/>
<rect x="56" y="27" width="1" height="1" fill="#2EC4F6"/>
<rect x="58" y="27" width="1" height="1" fill="#2EC4F6"/>
<rect x="59" y="27" width="1" height="1" fill="#2EC4F6"/>
<rect x="60" y="27" width="1" height="1" fill="#2EC4F6"/>
<rect x="61" y="27" width="1" height="1" fill="#2EC4F6"/>
<rect x="70" y="27" width="1" height="1" fill="#2EC4F6"/>
<rect x="71" y="27" width="1" height="1" fill="#2EC4F6"/>
<rect x="72" y="27" width="1" height="1" fill="#2EC4F6"/>
<rect x="73" y="27" width="1" height="1" fill="#2EC4F6"/>
<rect x="76" y="27" width="1" height="1" fill="#2EC4F6"/>
<rect x="77" y="27" width="1" height="1" fill="#2EC4F6"/>
<rect x="78" y="27" width="1" height="1" fill="#2EC4F6"/>
<rect x="79" y="27" width="1" height="1" fill="#2EC4F6"/>
<rect x="82" y="27" width="1" height="1" fill="#2EC4F6"/>
<rect x="83" y="27" width="1" height="1" fill="#2EC4F6"/>
<rect x="84" y="27" width="1" height="1" fill="#2EC4F6"/>
<rect x="85" y="27" width="1" height="1" fill="#2EC4F6"/>
<rect x="88" y="27" width="1" height="1" fill="#2EC4F6"/>
<rect x="92" y="27" width="1" height="1" fill="#2EC4F6"/>
<rect x="94" y="27" width="1" height="1" fill="#2EC4F6"/>
<rect x="95" y="27" width="1" height="1" fill="#2EC4F6"/>
<rect x="96" y="27" width="1" height="1" fill="#2EC4F6"/>
<rect x="97" y="27" width="1" height="1" fill="#2EC4F6"/>
<rect x="32" y="28" width="1" height="1" fill="#2EC4F6"/>
<rect x="34" y="28" width="1" height="1" fill="#2EC4F6"/>
<rect x="40" y="28" width="1" height="1" fill="#2EC4F6"/>
<rect x="43" y="28" width="1" height="1" fill="#2EC4F6"/>
<rect x="44" y="28" width="1" height="1" fill="#2EC4F6"/>
<rect x="50" y="28" width="1" height="1" fill="#2EC4F6"/>
<rect x="52" y="28" width="1" height="1" fill="#2EC4F6"/>
<rect x="56" y="28" width="1" height="1" fill="#2EC4F6"/>
<rect x="58" y="28" width="1" height="1" fill="#2EC4F6"/>
<rect x="60" y="28" width="1" height="1" fill="#2EC4F6"/>
<rect x="70" y="28" width="1" height="1" fill="#2EC4F6"/>
<rect x="76" y="28" width="1" height="1" fill="#2EC4F6"/>
<rect x="78" y="28" width="1" height="1" fill="#2EC4F6"/>
<rect x="82" y="28" width="1" height="1" fill="#2EC4F6"/>
<rect x="84" y="28" width="1" height="1" fill="#2EC4F6"/>
<rect x="88" y="28" width="1" height="1" fill="#2EC4F6"/>
<rect x="92" y="28" width="1" height="1" fill="#2EC4F6"/>
<rect x="94" y="28" width="1" height="1" fill="#2EC4F6"/>
<rect x="96" y="28" width="1" height="1" fill="#2EC4F6"/>
<rect x="32" y="29" width="1" height="1" fill="#2EC4F6"/>
<rect x="34" y="29" width="1" height="1" fill="#2EC4F6"/>
<rect x="40" y="29" width="1" height="1" fill="#2EC4F6"/>
<rect x="44" y="29" width="1" height="1" fill="#2EC4F6"/>
<rect x="50" y="29" width="1" height="1" fill="#2EC4F6"/>
<rect x="52" y="29" width="1" height="1" fill="#2EC4F6"/>
<rect x="56" y="29" width="1" height="1" fill="#2EC4F6"/>
<rect x="58" y="29" width="1" height="1" fill="#2EC4F6"/>
<rect x="61" y="29" width="1" height="1" fill="#2EC4F6"/>
<rect x="70" y="29" width="1" height="1" fill="#2EC4F6"/>
<rect x="76" y="29" width="1" height="1" fill="#2EC4F6"/>
<rect x="79" y="29" width="1" height="1" fill="#2EC4F6"/>
<rect x="82" y="29" width="1" height="1" fill="#2EC4F6"/>
<rect x="85" y="29" width="1" height="1" fill="#2EC4F6"/>
<rect x="88" y="29" width="1" height="1" fill="#2EC4F6"/>
<rect x="92" y="29" width="1" height="1" fill="#2EC4F6"/>
<rect x="94" y="29" width="1" height="1" fill="#2EC4F6"/>
<rect x="97" y="29" width="1" height="1" fill="#2EC4F6"/>
<rect x="28" y="30" width="1" height="1" fill="#2EC4F6"/>
<rect x="29" y="30" width="1" height="1" fill="#2EC4F6"/>
<rect x="30" y="30" width="1" height="1" fill="#2EC4F6"/>
<rect x="34" y="30" width="1" height="1" fill="#2EC4F6"/>
<rect x="35" y="30" width="1" height="1" fill="#2EC4F6"/>
<rect x="36" y="30" width="1" height="1" fill="#2EC4F6"/>
<rect x="37" y="30" width="1" height="1" fill="#2EC4F6"/>
<rect x="38" y="30" width="1" height="1" fill="#2EC4F6"/>
<rect x="40" y="30" width="1" height="1" fill="#2EC4F6"/>
<rect x="44" y="30" width="1" height="1" fill="#2EC4F6"/>
<rect x="46" y="30" width="1" height="1" fill="#2EC4F6"/>
<rect x="47" y="30" width="1" height="1" fill="#2EC4F6"/>
<rect x="48" y="30" width="1" height="1" fill="#2EC4F6"/>
<rect x="53" y="30" width="1" height="1" fill="#2EC4F6"/>
<rect x="54" y="30" width="1" height="1" fill="#2EC4F6"/>
<rect x="55" y="30" width="1" height="1" fill="#2EC4F6"/>
<rect x="58" y="30" width="1" height="1" fill="#2EC4F6"/>
<rect x="62" y="30" width="1" height="1" fill="#2EC4F6"/>
<rect x="70" y="30" width="1" height="1" fill="#2EC4F6"/>
<rect x="71" y="30" width="1" height="1" fill="#2EC4F6"/>
<rect x="72" y="30" width="1" height="1" fill="#2EC4F6"/>
<rect x="73" y="30" width="1" height="1" fill="#2EC4F6"/>
<rect x="74" y="30" width="1" height="1" fill="#2EC4F6"/>
<rect x="76" y="30" width="1" height="1" fill="#2EC4F6"/>
<rect x="80" y="30" width="1" height="1" fill="#2EC4F6"/>
<rect x="82" y="30" width="1" height="1" fill="#2EC4F6"/>
<rect x="86" y="30" width="1" height="1" fill="#2EC4F6"/>
<rect x="89" y="30" width="1" height="1" fill="#2EC4F6"/>
<rect x="90" y="30" width="1" height="1" fill="#2EC4F6"/>
<rect x="91" y="30" width="1" height="1" fill="#2EC4F6"/>
<rect x="94" y="30" width="1" height="1" fill="#2EC4F6"/>
<rect x="98" y="30" width="1" height="1" fill="#2EC4F6"/>
<rect x="16" y="44" width="1" height="1" fill="#2EC4F6"/>
<rect x="17" y="44" width="1" height="1" fill="#2EC4F6"/>
<rect x="18" y="44" width="1" height="1" fill="#2EC4F6"/>
<rect x="19" y="44" width="1" height="1" fill="#2EC4F6"/>
<rect x="22" y="44" width="1" height="1" fill="#2EC4F6"/>
<rect x="23" y="44" width="1" height="1" fill="#2EC4F6"/>
<rect x="24" y="44" width="1" height="1" fill="#2EC4F6"/>
<rect x="25" y="44" width="1" height="1" fill="#2EC4F6"/>
<rect x="28" y="44" width="1" height="1" fill="#2EC4F6"/>
<rect x="29" y="44" width="1" height="1" fill="#2EC4F6"/>
<rect x="30" y="44" width="1" height="1" fill="#2EC4F6"/>
<rect x="31" y="44" width="1" height="1" fill="#2EC4F6"/>
<rect x="32" y="44" width="1" height="1" fill="#2EC4F6"/>
<rect x="35" y="44" width="1" height="1" fill="#2EC4F6"/>
<rect x="36" y="44" width="1" height="1" fill="#2EC4F6"/>
<rect x="37" y="44" width="1" height="1" fill="#2EC4F6"/>
<rect x="41" y="44" width="1" height="1" fill="#2EC4F6"/>
<rect x="42" y="44" width="1" height="1" fill="#2EC4F6"/>
<rect x="43" y="44" width="1" height="1" fill="#2EC4F6"/>
<rect x="52" y="44" width="1" height="1" fill="#2EC4F6"/>
<rect x="53" y="44" width="1" height="1" fill="#2EC4F6"/>
<rect x="54" y="44" width="1" height="1" fill="#2EC4F6"/>
<rect x="55" y="44" width="1" height="1" fill="#2EC4F6"/>
<rect x="56" y="44" width="1" height="1" fill="#2EC4F6"/>
<rect x="59" y="44" width="1" height="1" fill="#2EC4F6"/>
<rect x="60" y="44" width="1" height="1" fill="#2EC4F6"/>
<rect x="61" y="44" width="1" height="1" fill="#2EC4F6"/>
<rect x="70" y="44" width="1" height="1" fill="#2EC4F6"/>
<rect x="71" y="44" width="1" height="1" fill="#2EC4F6"/>
<rect x="72" y="44" width="1" height="1" fill="#2EC4F6"/>
<rect x="73" y="44" width="1" height="1" fill="#2EC4F6"/>
<rect x="76" y="44" width="1" height="1" fill="#2EC4F6"/>
<rect x="77" y="44" width="1" height="1" fill="#2EC4F6"/>
<rect x="78" y="44" width="1" height="1" fill="#2EC4F6"/>
<rect x="79" y="44" width="1" height="1" fill="#2EC4F6"/>
<rect x="80" y="44" width="1" height="1" fill="#2EC4F6"/>
<rect x="83" y="44" width="1" height="1" fill="#2EC4F6"/>
<rect x="84" y="44" width="1" height="1" fill="#2EC4F6"/>
<rect x="85" y="44" width="1" height="1" fill="#2EC4F6"/>
<rect x="88" y="44" width="1" height="1" fill="#2EC4F6"/>
<rect x="89" y="44" width="1" height="1" fill="#2EC4F6"/>
<rect x="90" y="44" width="1" height="1" fill="#2EC4F6"/>
<rect x="91" y="44" width="1" height="1" fill="#2EC4F6"/>
<rect x="92" y="44" width="1" height="1" fill="#2EC4F6"/>
<rect x="95" y="44" width="1" height="1" fill="#2EC4F6"/>
<rect x="96" y="44" width="1" height="1" fill="#2EC4F6"/>
<rect x="97" y="44" width="1" height="1" fill="#2EC4F6"/>
<rect x="100" y="44" width="1" height="1" fill="#2EC4F6"/>
<rect x="101" y="44" width="1" height="1" fill="#2EC4F6"/>
<rect x="102" y="44" width="1" height="1" fill="#2EC4F6"/>
<rect x="103" y="44" width="1" height="1" fill="#2EC4F6"/>
<rect x="106" y="44" width="1" height="1" fill="#2EC4F6"/>
<rect x="107" y="44" width="1" height="1" fill="#2EC4F6"/>
<rect x="108" y="44" width="1" height="1" fill="#2EC4F6"/>
<rect x="109" y="44" width="1" height="1" fill="#2EC4F6"/>
<rect x="110" y="44" width="1" height="1" fill="#2EC4F6"/>
<rect x="16" y="45" width="1" height="1" fill="#2EC4F6"/>
<rect x="20" y="45" width="1" height="1" fill="#2EC4F6"/>
<rect x="22" y="45" width="1" height="1" fill="#2EC4F6"/>
<rect x="26" y="45" width="1" height="1" fill="#2EC4F6"/>
<rect x="28" y="45" width="1" height="1" fill="#2EC4F6"/>
<rect x="34" y="45" width="1" height="1" fill="#2EC4F6"/>
<rect x="40" y="45" width="1" height="1" fill="#2EC4F6"/>
<rect x="54" y="45" width="1" height="1" fill="#2EC4F6"/>
<rect x="58" y="45" width="1" height="1" fill="#2EC4F6"/>
<rect x="62" y="45" width="1" height="1" fill="#2EC4F6"/>
<rect x="70" y="45" width="1" height="1" fill="#2EC4F6"/>
<rect x="74" y="45" width="1" height="1" fill="#2EC4F6"/>
<rect x="76" y="45" width="1" height="1" fill="#2EC4F6"/>
<rect x="82" y="45" width="1" height="1" fill="#2EC4F6"/>
<rect x="90" y="45" width="1" height="1" fill="#2EC4F6"/>
<rect x="94" y="45" width="1" height="1" fill="#2EC4F6"/>
<rect x="98" y="45" width="1" height="1" fill="#2EC4F6"/>
<rect x="100" y="45" width="1" height="1" fill="#2EC4F6"/>
<rect x="104" y="45" width="1" height="1" fill="#2EC4F6"/>
<rect x="108" y="45" width="1" height="1" fill="#2EC4F6"/>
<rect x="16" y="46" width="1" height="1" fill="#2EC4F6"/>
<rect x="20" y="46" width="1" height="1" fill="#2EC4F6"/>
<rect x="22" y="46" width="1" height="1" fill="#2EC4F6"/>
<rect x="26" y="46" width="1" height="1" fill="#2EC4F6"/>
<rect x="28" y="46" width="1" height="1" fill="#2EC4F6"/>
<rect x="34" y="46" width="1" height="1" fill="#2EC4F6"/>
<rect x="40" y="46" width="1" height="1" fill="#2EC4F6"/>
<rect x="54" y="46" width="1" height="1" fill="#2EC4F6"/>
<rect x="58" y="46" width="1" height="1" fill="#2EC4F6"/>
<rect x="62" y="46" width="1" height="1" fill="#2EC4F6"/>
<rect x="70" y="46" width="1" height="1" fill="#2EC4F6"/>
<rect x="74" y="46" width="1" height="1" fill="#2EC4F6"/>
<rect x="76" y="46" width="1" height="1" fill="#2EC4F6"/>
<rect x="82" y="46" width="1" height="1" fill="#2EC4F6"/>
<rect x="90" y="46" width="1" height="1" fill="#2EC4F6"/>
<rect x="94" y="46" width="1" height="1" fill="#2EC4F6"/>
<rect x="98" y="46" width="1" height="1" fill="#2EC4F6"/>
<rect x="100" y="46" width="1" height="1" fill="#2EC4F6"/>
<rect x="104" y="46" width="1" height="1" fill="#2EC4F6"/>
<rect x="108" y="46" width="1" height="1" fill="#2EC4F6"/>
<rect x="16" y="47" width="1" height="1" fill="#2EC4F6"/>
<rect x="17" y="47" width="1" height="1" fill="#2EC4F6"/>
<rect x="18" y="47" width="1" height="1" fill="#2EC4F6"/>
<rect x="19" y="47" width="1" height="1" fill="#2EC4F6"/>
<rect x="22" y="47" width="1" height="1" fill="#2EC4F6"/>
<rect x="23" y="47" width="1" height="1" fill="#2EC4F6"/>
<rect x="24" y="47" width="1" height="1" fill="#2EC4F6"/>
<rect x="25" y="47" width="1" height="1" fill="#2EC4F6"/>
<rect x="28" y="47" width="1" height="1" fill="#2EC4F6"/>
<rect x="29" y="47" width="1" height="1" fill="#2EC4F6"/>
<rect x="30" y="47" width="1" height="1" fill="#2EC4F6"/>
<rect x="31" y="47" width="1" height="1" fill="#2EC4F6"/>
<rect x="35" y="47" width="1" height="1" fill="#2EC4F6"/>
<rect x="36" y="47" width="1" height="1" fill="#2EC4F6"/>
<rect x="37" y="47" width="1" height="1" fill="#2EC4F6"/>
<rect x="41" y="47" width="1" height="1" fill="#2EC4F6"/>
<rect x="42" y="47" width="1" height="1" fill="#2EC4F6"/>
<rect x="43" y="47" width="1" height="1" fill="#2EC4F6"/>
<rect x="54" y="47" width="1" height="1" fill="#2EC4F6"/>
<rect x="58" y="47" width="1" height="1" fill="#2EC4F6"/>
<rect x="62" y="47" width="1" height="1" fill="#2EC4F6"/>
<rect x="70" y="47" width="1" height="1" fill="#2EC4F6"/>
<rect x="71" y="47" width="1" height="1" fill="#2EC4F6"/>
<rect x="72" y="47" width="1" height="1" fill="#2EC4F6"/>
<rect x="73" y="47" width="1" height="1" fill="#2EC4F6"/>
<rect x="76" y="47" width="1" height="1" fill="#2EC4F6"/>
<rect x="77" y="47" width="1" height="1" fill="#2EC4F6"/>
<rect x="78" y="47" width="1" height="1" fill="#2EC4F6"/>
<rect x="79" y="47" width="1" height="1" fill="#2EC4F6"/>
<rect x="83" y="47" width="1" height="1" fill="#2EC4F6"/>
<rect x="84" y="47" width="1" height="1" fill="#2EC4F6"/>
<rect x="85" y="47" width="1" height="1" fill="#2EC4F6"/>
<rect x="90" y="47" width="1" height="1" fill="#2EC4F6"/>
<rect x="94" y="47" width="1" height="1" fill="#2EC4F6"/>
<rect x="95" y="47" width="1" height="1" fill="#2EC4F6"/>
<rect x="96" y="47" width="1" height="1" fill="#2EC4F6"/>
<rect x="97" y="47" width="1" height="1" fill="#2EC4F6"/>
<rect x="98" y="47" width="1" height="1" fill="#2EC4F6"/>
<rect x="100" y="47" width="1" height="1" fill="#2EC4F6"/>
<rect x="101" y="47" width="1" height="1" fill="#2EC4F6"/>
<rect x="102" y="47" width="1" height="1" fill="#2EC4F6"/>
<rect x="103" y="47" width="1" height="1" fill="#2EC4F6"/>
<rect x="108" y="47" width="1" height="1" fill="#2EC4F6"/>
<rect x="16" y="48" width="1" height="1" fill="#2EC4F6"/>
<rect x="22" y="48" width="1" height="1" fill="#2EC4F6"/>
<rect x="24" y="48" width="1" height="1" fill="#2EC4F6"/>
<rect x="28" y="48" width="1" height="1" fill="#2EC4F6"/>
<rect x="38" y="48" width="1" height="1" fill="#2EC4F6"/>
<rect x="44" y="48" width="1" height="1" fill="#2EC4F6"/>
<rect x="54" y="48" width="1" height="1" fill="#2EC4F6"/>
<rect x="58" y="48" width="1" height="1" fill="#2EC4F6"/>
<rect x="62" y="48" width="1" height="1" fill="#2EC4F6"/>
<rect x="70" y="48" width="1" height="1" fill="#2EC4F6"/>
<rect x="72" y="48" width="1" height="1" fill="#2EC4F6"/>
<rect x="76" y="48" width="1" height="1" fill="#2EC4F6"/>
<rect x="86" y="48" width="1" height="1" fill="#2EC4F6"/>
<rect x="90" y="48" width="1" height="1" fill="#2EC4F6"/>
<rect x="94" y="48" width="1" height="1" fill="#2EC4F6"/>
<rect x="98" y="48" width="1" height="1" fill="#2EC4F6"/>
<rect x="100" y="48" width="1" height="1" fill="#2EC4F6"/>
<rect x="102" y="48" width="1" height="1" fill="#2EC4F6"/>
<rect x="108" y="48" width="1" height="1" fill="#2EC4F6"/>
<rect x="16" y="49" width="1" height="1" fill="#2EC4F6"/>
<rect x="22" y="49" width="1" height="1" fill="#2EC4F6"/>
<rect x="25" y="49" width="1" height="1" fill="#2EC4F6"/>
<rect x="28" y="49" width="1" height="1" fill="#2EC4F6"/>
<rect x="38" y="49" width="1" height="1" fill="#2EC4F6"/>
<rect x="44" y="49" width="1" height="1" fill="#2EC4F6"/>
<rect x="54" y="49" width="1" height="1" fill="#2EC4F6"/>
<rect x="58" y="49" width="1" height="1" fill="#2EC4F6"/>
<rect x="62" y="49" width="1" height="1" fill="#2EC4F6"/>
<rect x="70" y="49" width="1" height="1" fill="#2EC4F6"/>
<rect x="73" y="49" width="1" height="1" fill="#2EC4F6"/>
<rect x="76" y="49" width="1" height="1" fill="#2EC4F6"/>
<rect x="86" y="49" width="1" height="1" fill="#2EC4F6"/>
<rect x="90" y="49" width="1" height="1" fill="#2EC4F6"/>
<rect x="94" y="49" width="1" height="1" fill="#2EC4F6"/>
<rect x="98" y="49" width="1" height="1" fill="#2EC4F6"/>
<rect x="100" y="49" width="1" height="1" fill="#2EC4F6"/>
<rect x="103" y="49" width="1" height="1" fill="#2EC4F6"/>
<rect x="108" y="49" width="1" height="1" fill="#2EC4F6"/>
<rect x="16" y="50" width="1" height="1" fill="#2EC4F6"/>
<rect x="22" y="50" width="1" height="1" fill="#2EC4F6"/>
<rect x="26" y="50" width="1" height="1" fill="#2EC4F6"/>
<rect x="28" y="50" width="1" height="1" fill="#2EC4F6"/>
<rect x="29" y="50" width="1" height="1" fill="#2EC4F6"/>
<rect x="30" y="50" width="1" height="1" fill="#2EC4F6"/>
<rect x="31" y="50" width="1" height="1" fill="#2EC4F6"/>
<rect x="32" y="50" width="1" height="1" fill="#2EC4F6"/>
<rect x="34" y="50" width="1" height="1" fill="#2EC4F6"/>
<rect x="35" y="50" width="1" height="1" fill="#2EC4F6"/>
<rect x="36" y="50" width="1" height="1" fill="#2EC4F6"/>
<rect x="40" y="50" width="1" height="1" fill="#2EC4F6"/>
<rect x="41" y="50" width="1" height="1" fill="#2EC4F6"/>
<rect x="42" y="50" width="1" height="1" fill="#2EC4F6"/>
<rect x="54" y="50" width="1" height="1" fill="#2EC4F6"/>
<rect x="59" y="50" width="1" height="1" fill="#2EC4F6"/>
<rect x="60" y="50" width="1" height="1" fill="#2EC4F6"/>
<rect x="61" y="50" width="1" height="1" fill="#2EC4F6"/>
<rect x="70" y="50" width="1" height="1" fill="#2EC4F6"/>
<rect x="74" y="50" width="1" height="1" fill="#2EC4F6"/>
<rect x="76" y="50" width="1" height="1" fill="#2EC4F6"/>
<rect x="77" y="50" width="1" height="1" fill="#2EC4F6"/>
<rect x="78" y="50" width="1" height="1" fill="#2EC4F6"/>
<rect x="79" y="50" width="1" height="1" fill="#2EC4F6"/>
<rect x="80" y="50" width="1" height="1" fill="#2EC4F6"/>
<rect x="82" y="50" width="1" height="1" fill="#2EC4F6"/>
<rect x="83" y="50" width="1" height="1" fill="#2EC4F6"/>
<rect x="84" y="50" width="1" height="1" fill="#2EC4F6"/>
<rect x="90" y="50" width="1" height="1" fill="#2EC4F6"/>
<rect x="94" y="50" width="1" height="1" fill="#2EC4F6"/>
<rect x="98" y="50" width="1" height="1" fill="#2EC4F6"/>
<rect x="100" y="50" width="1" height="1" fill="#2EC4F6"/>
<rect x="104" y="50" width="1" height="1" fill="#2EC4F6"/>
<rect x="108" y="50" width="1" height="1" fill="#2EC4F6"/>
</svg>
