<svg viewBox="0 0 128 64" width="128" height="64" xmlns="http://www.w3.org/2000/svg" shape-rendering="crispEdges">
<rect x="0" y="0" width="128" height="64" fill="#000000"/>
<rect x="35" y="18" width="1" height="1" fill="#2EC4F6"/>
<rect x="36" y="18" width="1" height="1" fill="#2EC4F6"/>
<rect x="37" y="18" width="1" height="1" fill="#2EC4F6"/>
<rect x="40" y="18" width="1" height="1" fill="#2EC4F6"/>
<rect x="41" y="18" width="1" height="1" fill="#2EC4F6"/>
<rect x="42" y="18" width="1" height="1" fill="#2EC4F6"/>
<rect x="48" y="18" width="1" height="1" fill="#2EC4F6"/>
<rect x="49" y="18" width="1" height="1" fill="#2EC4F6"/>
<rect x="50" y="18" width="1" height="1" fill="#2EC4F6"/>
<rect x="52" y="18" width="1" height="1" fill="#2EC4F6"/>
<rect x="56" y="18" width="1" height="1" fill="#2EC4F6"/>
<rect x="59" y="18" width="1" height="1" fill="#2EC4F6"/>
<rect x="60" y="18" width="1" height="1" fill="#2EC4F6"/>
<rect x="61" y="18" width="1" height="1" fill="#2EC4F6"/>
<rect x="64" y="18" width="1" height="1" fill="#2EC4F6"/>
<rect x="65" y="18" width="1" height="1" fill="#2EC4F6"/>
<rect x="66" y="18" width="1" height="1" fill="#2EC4F6"/>
<rect x="67" y="18" width="1" height="1" fill="#2EC4F6"/>
<rect x="68" y="18" width="1" height="1" fill="#2EC4F6"/>
<rect x="76" y="18" width="1" height="1" fill="#2EC4F6"/>
<rect x="77" y="18" width="1" height="1" fill="#2EC4F6"/>
<rect x="78" y="18" width="1" height="1" fill="#2EC4F6"/>
<rect x="79" y="18" width="1" height="1" fill="#2EC4F6"/>
<rect x="80" y="18" width="1" height="1" fill="#2EC4F6"/>
<rect x="83" y="18" width="1" height="1" fill="#2EC4F6"/>
<rect x="84" y="18" width="1" height="1" fill="#2EC4F6"/>
<rect x="85" y="18" width="1" height="1" fill="#2EC4F6"/>
<rect x="88" y="18" width="1" height="1" fill="#2EC4F6"/>
<rect x="89" y="18" width="1" height="1" fill="#2EC4F6"/>
<rect x="90" y="18" width="1" height="1" fill="#2EC4F6"/>
<rect x="91" y="18" width="1" height="1" fill="#2EC4F6"/>
<rect x="34" y="19" width="1" height="1" fill="#2EC4F6"/>
<rect x="38" y="19" width="1" height="1" fill="#2EC4F6"/>
<rect x="40" y="19" width="1" height="1" fill="#2EC4F6"/>
<rect x="43" y="19" width="1" height="1" fill="#2EC4F6"/>
<rect x="49" y="19" width="1" height="1" fill="#2EC4F6"/>
<rect x="52" y="19" width="1" height="1" fill="#2EC4F6"/>
<rect x="56" y="19" width="1" height="1" fill="#2EC4F6"/>
<rect x="58" y="19" width="1" height="1" fill="#2EC4F6"/>
<rect x="66" y="19" width="1" height="1" fill="#2EC4F6"/>
<rect x="76" y="19" width="1" height="1" fill="#2EC4F6"/>
<rect x="82" y="19" width="1" height="1" fill="#2EC4F6"/>
<rect x="86" y="19" width="1" height="1" fill="#2EC4F6"/>
<rect x="88" y="19" width="1" height="1" fill="#2EC4F6"/>
<rect x="92" y="19" width="1" height="1" fill="#2EC4F6"/>
<rect x="34" y="20" width="1" height="1" fill="#2EC4F6"/>
<rect x="38" y="20" width="1" height="1" fill="#2EC4F6"/>
<rect x="40" y="20" width="1" height="1" fill="#2EC4F6"/>
<rect x="44" y="20" width="1" height="1" fill="#2EC4F6"/>
<rect x="49" y="20" width="1" height="1" fill="#2EC4F6"/>
<rect x="52" y="20" width="1" height="1" fill="#2EC4F6"/>
<rect x="56" y="20" width="1" height="1" fill="#2EC4F6"/>
<rect x="58" y="20" width="1" height="1" fill="#2EC4F6"/>
<rect x="66" y="20" width="1" height="1" fill="#2EC4F6"/>
<rect x="76" y="20" width="1" height="1" fill="#2EC4F6"/>
<rect x="82" y="20" width="1" height="1" fill="#2EC4F6"/>
<rect x="86" y="20" width="1" height="1" fill="#2EC4F6"/>
<rect x="88" y="20" width="1" height="1" fill="#2EC4F6"/>
<rect x="92" y="20" width="1" height="1" fill="#2EC4F6"/>
<rect x="34" y="21" width="1" height="1" fill="#2EC4F6"/>
<rect x="35" y="21" width="1" height="1" fill="#2EC4F6"/>
<rect x="36" y="21" width="1" height="1" fill="#2EC4F6"/>
<rect x="37" y="21" width="1" height="1" fill="#2EC4F6"/>
<rect x="38" y="21" width="1" height="1" fill="#2EC4F6"/>
<rect x="40" y="21" width="1" height="1" fill="#2EC4F6"/>
<rect x="44" y="21" width="1" height="1" fill="#2EC4F6"/>
<rect x="49" y="21" width="1" height="1" fill="#2EC4F6"/>
<rect x="52" y="21" width="1" height="1" fill="#2EC4F6"/>
<rect x="56" y="21" width="1" height="1" fill="#2EC4F6"/>
<rect x="59" y="21" width="1" height="1" fill="#2EC4F6"/>
<rect x="60" y="21" width="1" height="1" fill="#2EC4F6"/>
<rect x="61" y="21" width="1" height="1" fill="#2EC4F6"/>
<rect x="66" y="21" width="1" height="1" fill="#2EC4F6"/>
<rect x="76" y="21" width="1" height="1" fill="#2EC4F6"/>
<rect x="77" y="21" width="1" height="1" fill="#2EC4F6"/>
<rect x="78" y="21" width="1" height="1" fill="#2EC4F6"/>
<rect x="79" y="21" width="1" height="1" fill="#2EC4F6"/>
<rect x="82" y="21" width="1" height="1" fill="#2EC4F6"/>
<rect x="86" y="21" width="1" height="1" fill="#2EC4F6"/>
<rect x="88" y="21" width="1" height="1" fill="#2EC4F6"/>
<rect x="89" y="21" width="1" height="1" fill="#2EC4F6"/>
<rect x="90" y="21" width="1" height="1" fill="#2EC4F6"/>
<rect x="91" y="21" width="1" height="1" fill="#2EC4F6"/>
<rect x="34" y="22" width="1" height="1" fill="#2EC4F6"/>
<rect x="38" y="22" width="1" height="1" fill="#2EC4F6"/>
<rect x="40" y="22" width="1" height="1" fill="#2EC4F6"/>
<rect x="44" y="22" width="1" height="1" fill="#2EC4F6"/>
<rect x="46" y="22" width="1" height="1" fill="#2EC4F6"/>
<rect x="49" y="22" width="1" height="1" fill="#2EC4F6"/>
<rect x="52" y="22" width="1" height="1" fill="#2EC4F6"/>
<rect x="56" y="22" width="1" height="1" fill="#2EC4F6"/>
<rect x="62" y="22" width="1" height="1" fill="#2EC4F6"/>
<rect x="66" y="22" width="1" height="1" fill="#2EC4F6"/>
<rect x="76" y="22" width="1" height="1" fill="#2EC4F6"/>
<rect x="82" y="22" width="1" height="1" fill="#2EC4F6"/>
<rect x="86" y="22" width="1" height="1" fill="#2EC4F6"/>
<rect x="88" y="22" width="1" height="1" fill="#2EC4F6"/>
<rect x="90" y="22" width="1" height="1" fill="#2EC4F6"/>
<rect x="34" y="23" width="1" height="1" fill="#2EC4F6"/>
<rect x="38" y="23" width="1" height="1" fill="#2EC4F6"/>
<rect x="40" y="23" width="1" height="1" fill="#2EC4F6"/>
<rect x="43" y="23" width="1" height="1" fill="#2EC4F6"/>
<rect x="46" y="23" width="1" height="1" fill="#2EC4F6"/>
<rect x="49" y="23" width="1" height="1" fill="#2EC4F6"/>
<rect x="52" y="23" width="1" height="1" fill="#2EC4F6"/>
<rect x="56" y="23" width="1" height="1" fill="#2EC4F6"/>
<rect x="62" y="23" width="1" height="1" fill="#2EC4F6"/>
<rect x="66" y="23" width="1" height="1" fill="#2EC4F6"/>
<rect x="76" y="23" width="1" height="1" fill="#2EC4F6"/>
<rect x="82" y="23" width="1" height="1" fill="#2EC4F6"/>
<rect x="86" y="23" width="1" height="1" fill="#2EC4F6"/>
<rect x="88" y="23" width="1" height="1" fill="#2EC4F6"/>
<rect x="91" y="23" width="1" height="1" fill="#2EC4F6"/>
<rect x="34" y="24" width="1" height="1" fill="#2EC4F6"/>
<rect x="38" y="24" width="1" height="1" fill="#2EC4F6"/>
<rect x="40" y="24" width="1" height="1" fill="#2EC4F6"/>
<rect x="41" y="24" width="1" height="1" fill="#2EC4F6"/>
<rect x="42" y="24" width="1" height="1" fill="#2EC4F6"/>
<rect x="47" y="24" width="1" height="1" fill="#2EC4F6"/>
<rect x="48" y="24" width="1" height="1" fill="#2EC4F6"/>
<rect x="53" y="24" width="1" height="1" fill="#2EC4F6"/>
<rect x="54" y="24" width="1" height="1" fill="#2EC4F6"/>
<rect x="55" y="24" width="1" height="1" fill="#2EC4F6"/>
<rect x="58" y="24" width="1" height="1" fill="#2EC4F6"/>
<rect x="59" y="24" width="1" height="1" fill="#2EC4F6"/>
<rect x="60" y="24" width="1" height="1" fill="#2EC4F6"/>
<rect x="66" y="24" width="1" height="1" fill="#2EC4F6"/>
<rect x="76" y="24" width="1" height="1" fill="#2EC4F6"/>
<rect x="83" y="24" width="1" height="1" fill="#2EC4F6"/>
<rect x="84" y="24" width="1" height="1" fill="#2EC4F6"/>
<rect x="85" y="24" width="1" height="1" fill="#2EC4F6"/>
<rect x="88" y="24" width="1" height="1" fill="#2EC4F6"/>
<rect x="92" y="24" width="1" height="1" fill="#2EC4F6"/>
<rect x="53" y="30" width="1" height="1" fill="#2EC4F6"/>
<rect x="54" y="30" width="1" height="1" fill="#2EC4F6"/>
<rect x="55" y="30" width="1" height="1" fill="#2EC4F6"/>
<rect x="58" y="30" width="1" height="1" fill="#2EC4F6"/>
<rect x="59" y="30" width="1" height="1" fill="#2EC4F6"/>
<rect x="60" y="30" width="1" height="1" fill="#2EC4F6"/>
<rect x="61" y="30" width="1" height="1" fill="#2EC4F6"/>
<rect x="62" y="30" width="1" height="1" fill="#2EC4F6"/>
<rect x="65" y="30" width="1" height="1" fill="#2EC4F6"/>
<rect x="66" y="30" width="1" height="1" fill="#2EC4F6"/>
<rect x="67" y="30" width="1" height="1" fill="#2EC4F6"/>
<rect x="70" y="30" width="1" height="1" fill="#2EC4F6"/>
<rect x="52" y="31" width="1" height="1" fill="#2EC4F6"/>
<rect x="58" y="31" width="1" height="1" fill="#2EC4F6"/>
<rect x="64" y="31" width="1" height="1" fill="#2EC4F6"/>
<rect x="68" y="31" width="1" height="1" fill="#2EC4F6"/>
<rect x="70" y="31" width="1" height="1" fill="#2EC4F6"/>
<rect x="52" y="32" width="1" height="1" fill="#2EC4F6"/>
<rect x="58" y="32" width="1" height="1" fill="#2EC4F6"/>
<rect x="64" y="32" width="1" height="1" fill="#2EC4F6"/>
<rect x="68" y="32" width="1" height="1" fill="#2EC4F6"/>
<rect x="70" y="32" width="1" height="1" fill="#2EC4F6"/>
<rect x="53" y="33" width="1" height="1" fill="#2EC4F6"/>
<rect x="54" y="33" width="1" height="1" fill="#2EC4F6"/>
<rect x="55" y="33" width="1" height="1" fill="#2EC4F6"/>
<rect x="58" y="33" width="1" height="1" fill="#2EC4F6"/>
<rect x="59" y="33" width="1" height="1" fill="#2EC4F6"/>
<rect x="60" y="33" width="1" height="1" fill="#2EC4F6"/>
<rect x="61" y="33" width="1" height="1" fill="#2EC4F6"/>
<rect x="64" y="33" width="1" height="1" fill="#2EC4F6"/>
<rect x="65" y="33" width="1" height="1" fill="#2EC4F6"/>
<rect x="66" y="33" width="1" height="1" fill="#2EC4F6"/>
<rect x="67" y="33" width="1" height="1" fill="#2EC4F6"/>
<rect x="68" y="33" width="1" height="1" fill="#2EC4F6"/>
<rect x="70" y="33" width="1" height="1" fill="#2EC4F6"/>
<rect x="56" y="34" width="1" height="1" fill="#2EC4F6"/>
<rect x="58" y="34" width="1" height="1" fill="#2EC4F6"/>
<rect x="64" y="34" width="1" height="1" fill="#2EC4F6"/>
<rect x="68" y="34" width="1" height="1" fill="#2EC4F6"/>
<rect x="70" y="34" width="1" height="1" fill="#2EC4F6"/>
<rect x="56" y="35" width="1" height="1" fill="#2EC4F6"/>
<rect x="58" y="35" width="1" height="1" fill="#2EC4F6"/>
<rect x="64" y="35" width="1" height="1" fill="#2EC4F6"/>
<rect x="68" y="35" width="1" height="1" fill="#2EC4F6"/>
<rect x="70" y="35" width="1" height="1" fill="#2EC4F6"/>
<rect x="52" y="36" width="1" height="1" fill="#2EC4F6"/>
<rect x="53" y="36" width="1" height="1" fill="#2EC4F6"/>
<rect x="54" y="36" width="1" height="1" fill="#2EC4F6"/>
<rect x="58" y="36" width="1" height="1" fill="#2EC4F6"/>
<rect x="59" y="36" width="1" height="1" fill="#2EC4F6"/>
<rect x="60" y="36" width="1" height="1" fill="#2EC4F6"/>
<rect x="61" y="36" width="1" height="1" fill="#2EC4F6"/>
<rect x="62" y="36" width="1" height="1" fill="#2EC4F6"/>
<rect x="64" y="36" width="1" height="1" fill="#2EC4F6"/>
<rect x="68" y="36" width="1" height="1" fill="#2EC4F6"/>
<rect x="70" y="36" width="1" height="1" fill="#2EC4F6"/>
<rect x="71" y="36" width="1" height="1" fill="#2EC4F6"/>
<rect x="72" y="36" width="1" height="1" fill="#2EC4F6"/>
<rect x="73" y="36" width="1" height="1" fill="#2EC4F6"/>
<rect x="74" y="36" width="1" height="1" fill="#2EC4F6"/>
<rect x="56" y="46" width="1" height="1" fill="#2EC4F6"/>
<rect x="61" y="46" width="1" height="1" fill="#2EC4F6"/>
<rect x="62" y="46" width="1" height="1" fill="#2EC4F6"/>
<rect x="63" y="46" width="1" height="1" fill="#2EC4F6"/>
<rect x="66" y="46" width="1" height="1" fill="#2EC4F6"/>
<rect x="61" y="47" width="1" height="1" fill="#2EC4F6"/>
<rect x="62" y="47" width="1" height="1" fill="#2EC4F6"/>
<rect x="63" y="47" width="1" height="1" fill="#2EC4F6"/>
<rect x="61" y="48" width="1" height="1" fill="#2EC4F6"/>
<rect x="62" y="48" width="1" height="1" fill="#2EC4F6"/>
<rect x="63" y="48" width="1" height="1" fill="#2EC4F6"/>
</svg>
